<?xml version="1.0" encoding="UTF-8" standalone="no"?><!DOCTYPE svg PUBLIC "-//W3C//DTD SVG 1.1//EN" "http://www.w3.org/Graphics/SVG/1.1/DTD/svg11.dtd"><svg width="100%" height="100%" viewBox="0 0 375 753" version="1.1" xmlns="http://www.w3.org/2000/svg" xmlns:xlink="http://www.w3.org/1999/xlink" xml:space="preserve" style="fill-rule:evenodd;clip-rule:evenodd;stroke-linecap:round;stroke-linejoin:round;stroke-miterlimit:1.5;"><rect id="Artboard1" x="0" y="0" width="375" height="752.869" style="fill:none;"/><g><path d="M145.002,318.129c0.433,-23.086 19.31,-41.694 42.498,-41.694c23.188,0 42.065,18.608 42.498,41.694c0,0 10.933,-0.199 16.941,-0.308c1.014,-0.019 1.993,0.371 2.716,1.082c0.724,0.71 1.131,1.682 1.131,2.695c0,17.428 0,88.856 0,106.101c0,2.087 -1.691,3.778 -3.778,3.778c-18.613,0 -100.403,0 -119.016,0c-2.087,0 -3.778,-1.691 -3.778,-3.778c0,-15.637 0,-75.589 0,-99.57c0,-5.523 4.477,-10 10,-10c5.325,0 10.788,0 10.788,0Zm74.351,0c-0.431,-17.212 -14.539,-31.052 -31.853,-31.052c-17.314,0 -31.422,13.84 -31.853,31.052l63.706,0Z" style="fill:none;stroke:#ebd831;stroke-width:3px;"/><g><path d="M220.56,353.956l-66.12,0c0,0 0,29.975 0,46.032c0,5.478 4.408,9.937 9.886,10c12.414,0.141 33.599,0.384 46.12,0.527c2.671,0.03 5.244,-1.01 7.145,-2.888c1.9,-1.879 2.969,-4.44 2.969,-7.112c0,-16.297 0,-46.559 0,-46.559Z" style="fill:none;stroke:#000;stroke-width:3px;"/><path d="M182.988,334.746c2.837,-1.435 6.187,-1.435 9.024,0c10.942,5.532 37.994,19.21 37.994,19.21l-85.012,0c0,0 27.052,-13.678 37.994,-19.21Z" style="fill:none;stroke:#000;stroke-width:3px;"/></g><path d="M177.973,437.064l0,-2.589l18.892,0l0,2.496c5.689,3.257 9.526,9.387 9.526,16.407c0,8.466 -5.58,15.638 -13.26,18.037c-0.322,2.823 -2.722,5.02 -5.631,5.02c-2.909,0 -5.309,-2.197 -5.631,-5.02c-7.68,-2.399 -13.26,-9.571 -13.26,-18.037c0,-6.953 3.764,-13.034 9.364,-16.314Z" style="fill:none;stroke:#89abe3;stroke-width:3px;"/><circle cx="187.5" cy="469.988" r="1.97" style="fill:none;stroke:#89abe3;stroke-width:2px;"/></g></svg>