<?xml version="1.0" encoding="UTF-8" standalone="no"?><!DOCTYPE svg PUBLIC "-//W3C//DTD SVG 1.1//EN" "http://www.w3.org/Graphics/SVG/1.1/DTD/svg11.dtd"><svg width="100%" height="100%" viewBox="0 0 375 753" version="1.1" xmlns="http://www.w3.org/2000/svg" xmlns:xlink="http://www.w3.org/1999/xlink" xml:space="preserve" style="fill-rule:evenodd;clip-rule:evenodd;stroke-linejoin:round;stroke-miterlimit:1.41421;"><rect id="Artboard1" x="0" y="0" width="375" height="752.869" style="fill:none;"/><g><g><path d="M145.613,277.019l-34.111,0c-3.627,0 -6.571,2.944 -6.571,6.571l0,58.78" style="fill:none;stroke:#ebd831;stroke-width:3px;"/><path d="M104.931,404.576l0,10.402" style="fill:none;stroke:#ebd831;stroke-width:3px;"/><path d="M163.446,439.887l43.975,0" style="fill:none;stroke:#ebd831;stroke-width:3px;"/><path d="M235.225,415.078l0,-9.748" style="fill:none;stroke:#ebd831;stroke-width:3px;"/><path d="M235.225,395.425l0,-111.835c0,-3.627 -2.944,-6.571 -6.57,-6.571l-34.119,0" style="fill:none;stroke:#ebd831;stroke-width:3px;"/><path d="M145.627,285.163l-32.552,0l0,54.997" style="fill:none;stroke:#ccc;stroke-width:1px;"/><path d="M113.075,404.874l0,9.887" style="fill:none;stroke:#ccc;stroke-width:1px;"/><path d="M163.446,431.743l44.187,0" style="fill:none;stroke:#ccc;stroke-width:1px;"/><path d="M227.082,414.47l0,-4.155" style="fill:none;stroke:#ccc;stroke-width:1px;"/><path d="M227.082,397.769l0,-94.799" style="fill:none;stroke:#ccc;stroke-width:1px;"/><path d="M227.082,302.97l0,-17.807l-17.176,0" style="fill:none;stroke:#ccc;stroke-width:1px;"/><path d="M209.906,285.163l-15.57,0" style="fill:none;stroke:#ccc;stroke-width:1px;"/><g><g><path d="M144.802,324.784l65.149,0" style="fill:#ebd831;stroke:#bfbfbf;stroke-width:2px;stroke-linecap:round;stroke-miterlimit:1.5;"/><path d="M144.802,347.076l65.149,0" style="fill:#ebd831;stroke:#bfbfbf;stroke-width:2px;stroke-linecap:round;stroke-miterlimit:1.5;"/><path d="M144.802,370.394l65.149,0" style="fill:#ebd831;stroke:#bfbfbf;stroke-width:2px;stroke-linecap:round;stroke-miterlimit:1.5;"/><path d="M144.802,392.736l65.149,0" style="fill:#ebd831;stroke:#bfbfbf;stroke-width:2px;stroke-linecap:round;stroke-miterlimit:1.5;"/><rect x="130.205" y="320.277" width="8.12" height="8.088" style="fill:#ebd831;"/><rect x="130.205" y="343.031" width="8.12" height="8.088" style="fill:#ebd831;"/><rect x="130.205" y="365.786" width="8.12" height="8.088" style="fill:#ebd831;"/><rect x="130.205" y="388.541" width="8.12" height="8.088" style="fill:#ebd831;"/></g><path id="Checked-Icon" d="M147.671,378.803l-13.641,13.659l-5.62,-5.639c-0.679,-0.68 -1.78,-0.68 -2.459,0c-0.679,0.681 -0.679,1.784 0,2.465l6.813,6.834c0.349,0.349 0.809,0.516 1.266,0.507c0.457,0.009 0.917,-0.158 1.266,-0.507l14.834,-14.856c0.679,-0.68 0.679,-1.783 0,-2.463c-0.679,-0.681 -1.78,-0.681 -2.459,0Z"/><path id="Checked-Icon1" d="M147.671,355.945l-13.641,13.659l-5.62,-5.639c-0.679,-0.68 -1.78,-0.68 -2.459,0c-0.679,0.681 -0.679,1.784 0,2.465l6.813,6.834c0.349,0.349 0.809,0.517 1.266,0.507c0.457,0.01 0.917,-0.158 1.266,-0.507l14.834,-14.856c0.679,-0.68 0.679,-1.783 0,-2.463c-0.679,-0.681 -1.78,-0.681 -2.459,0Z"/><path id="Checked-Icon2" d="M147.671,333.087l-13.641,13.659l-5.62,-5.639c-0.679,-0.68 -1.78,-0.68 -2.459,0c-0.679,0.681 -0.679,1.784 0,2.465l6.813,6.834c0.349,0.349 0.809,0.517 1.266,0.507c0.457,0.01 0.917,-0.158 1.266,-0.507l14.834,-14.856c0.679,-0.68 0.679,-1.783 0,-2.463c-0.679,-0.681 -1.78,-0.681 -2.459,0Z"/><path id="Checked-Icon3" d="M147.671,310.229l-13.641,13.659l-5.62,-5.638c-0.679,-0.681 -1.78,-0.681 -2.459,0c-0.679,0.68 -0.679,1.783 0,2.464l6.813,6.835c0.349,0.348 0.809,0.516 1.266,0.506c0.457,0.01 0.917,-0.158 1.266,-0.506l14.834,-14.857c0.679,-0.68 0.679,-1.783 0,-2.463c-0.679,-0.681 -1.78,-0.681 -2.459,0Z"/></g><g><path d="M162.786,273.236c0.403,-3.669 3.516,-6.528 7.292,-6.528c3.776,0 6.889,2.859 7.292,6.528l13.067,0c2.247,0.001 4.071,1.825 4.071,4.072l0,12.215l-48.86,0l0,-12.215c0,-2.247 1.824,-4.071 4.072,-4.072l13.066,0Z" style="fill:none;stroke:#000;stroke-width:2px;"/><circle cx="170.078" cy="273.762" r="3.257" style="fill:none;stroke:#000;stroke-width:1px;"/></g></g><path d="M260.489,414.866c0.008,0.043 8.386,48.436 0,58.118c-8.389,9.687 -41.946,9.687 -50.336,0c-8.385,-9.682 -0.007,-58.075 0,-58.118l50.336,0Zm-5.938,0c0.004,-2.411 -0.446,-4.775 -1.301,-6.98c-0.954,-2.46 -2.414,-4.721 -4.313,-6.625c-7.495,-7.515 -19.681,-7.531 -27.196,-0.036c-3.611,3.602 -5.643,8.491 -5.65,13.591l9.615,0.012c0.003,-2.55 1.02,-4.994 2.825,-6.795c3.758,-3.747 9.851,-3.739 13.598,0.018c1.801,1.805 2.811,4.252 2.807,6.803l9.615,0.012Z" style="fill:none;stroke:#ebd831;stroke-width:3px;"/><path d="M243.141,263.734c0,0 6.245,-2.164 7.787,-5.03c2.311,-4.298 0.698,-9.664 -3.6,-11.975c-4.297,-2.312 -9.663,-0.699 -11.975,3.599c-1.11,2.065 -1.355,4.487 -0.68,6.733l-4.11,1.235c-1.003,-3.336 -0.639,-6.933 1.011,-10.001c3.433,-6.384 11.403,-8.78 17.787,-5.346c6.384,3.433 8.78,11.403 5.347,17.787c-1.452,2.699 -3.768,4.754 -6.501,5.897l60.081,34.391l0,4.745l-130.294,0l0,-4.745l65.147,-37.29Zm-56.539,37.29l113.197,0l-56.658,-32.465l0,0.001l-56.539,32.464Z" style="fill:#ebd831;"/><g><g><path d="M96.361,292.579l45.475,-61.397l1.314,0.974l-45.474,61.396c7.027,5.756 5.662,14.343 5.661,14.349l-22.351,-16.555c0,0 7.818,-3.813 15.375,1.233Z" style="fill:#ebd831;"/></g><path d="M94.755,326.578l-20.053,-14.852l4.055,-5.648l-5.331,4.703l-6.714,-4.973l13.291,-13.135l22.351,16.554l-7.599,17.351Z" style="fill:none;stroke:#ebd831;stroke-width:3px;stroke-linecap:round;stroke-miterlimit:1.5;"/></g><g><path d="M248.154,368.412l-51.622,-56.327l1.206,-1.105l51.622,56.326c6.988,-5.804 15.158,-2.829 15.164,-2.827l-20.505,18.792c0,0 -2.256,-8.401 4.135,-14.859Z" style="fill:#ebd831;"/><path d="M255.488,374.579c6.439,-5.902 10.965,-11.46 16.866,-5.021c5.902,6.44 -5.325,19.572 -0.974,22.361c7.353,4.714 -16.459,5.465 -22.36,-0.975c-5.902,-6.439 0.029,-10.463 6.468,-16.365Z" style="fill:none;stroke:#ebd831;stroke-width:3px;stroke-linecap:round;stroke-miterlimit:1.5;"/></g><path d="M74,342.782l1.878,-4.424l1.927,4.542l2.591,-6.105l2.703,6.369l1.675,-3.948l1.719,4.05l2.65,-6.246l2.446,5.762l2.445,-5.762l2.651,6.246l1.624,-3.828l1.419,3.344l2.523,-5.945l2.573,6.063l2.578,-6.074l2.263,5.334l2.284,-5.382l0.04,0l2.284,5.382l2.035,-4.797l2.3,5.419l2.548,-6.004l0.009,0l2.284,5.382l1.253,-2.954l1.238,2.916l2.087,-4.918c-0.925,10.035 -3.325,44.802 -3.325,44.802c0,0 2.273,10.238 3.325,22.689l-56.598,0l2.571,-34.598l-2.571,-33.319l0.023,0l2.548,6.004Z" style="fill:none;stroke:#ebd831;stroke-width:3px;stroke-linecap:round;stroke-miterlimit:1.5;"/><g><path d="M163.414,417.744c0,-1.724 -1.4,-3.124 -3.125,-3.124l-55.738,0c-1.724,0 -3.124,1.4 -3.124,3.124l0,100.819c0,1.725 1.4,3.125 3.124,3.125l55.738,0c1.725,0 3.125,-1.4 3.125,-3.125l0,-100.819Z" style="fill:none;stroke:#ebd831;stroke-width:3px;"/><rect x="105.033" y="425.704" width="54.774" height="84.9" style="fill:none;stroke:#ccc;stroke-width:1px;"/><circle cx="132.42" cy="515.754" r="2.818" style="fill:none;stroke:#000;stroke-width:1px;"/><path d="M137.703,420.602c0,-0.195 -0.158,-0.353 -0.352,-0.353l-9.862,0c-0.194,0 -0.352,0.158 -0.352,0.353c0,0.194 0.158,0.352 0.352,0.352l9.862,0c0.194,0 0.352,-0.158 0.352,-0.352Z"/></g></g></svg>