<?xml version="1.0" encoding="utf-8"?>
<!-- Generator: Adobe Illustrator 17.1.0, SVG Export Plug-In . SVG Version: 6.00 Build 0)  -->
<!DOCTYPE svg PUBLIC "-//W3C//DTD SVG 1.1//EN" "http://www.w3.org/Graphics/SVG/1.1/DTD/svg11.dtd">
<svg version="1.1" id="Layer_1" xmlns="http://www.w3.org/2000/svg" xmlns:xlink="http://www.w3.org/1999/xlink" x="0px" y="0px"
	 viewBox="0 0 1231.3 952.7" enable-background="new 0 0 1231.3 952.7" xml:space="preserve">
<g>
	<path fill="#1E1B1C" d="M775.7,89.8h-69.8c-4.8,0-8.7-3.9-8.7-8.7V23c0-4.8,3.9-8.7,8.7-8.7h69.8c4.8,0,8.7,3.9,8.7,8.7v58.1
		C784.4,85.9,780.5,89.8,775.7,89.8z"/>
	<path fill="#1E1B1C" d="M869.7,89.8h-69.8c-4.8,0-8.7-3.9-8.7-8.7V23c0-4.8,3.9-8.7,8.7-8.7h69.8c4.8,0,8.7,3.9,8.7,8.7v58.1
		C878.4,85.9,874.5,89.8,869.7,89.8z"/>
	<line fill="none" stroke="#F7F0F1" stroke-width="0.25" stroke-miterlimit="10" x1="697.2" y1="52" x2="784.4" y2="52"/>
	<line fill="none" stroke="#F7F0F1" stroke-width="0.25" stroke-miterlimit="10" x1="791.1" y1="52" x2="878.4" y2="52"/>
	<text transform="matrix(1 0 0 1 706.9758 74.1082)" fill="#FFFFFF" font-family="'.SFNSText'" font-size="60.1598">10</text>
	<text transform="matrix(1 0 0 1 704.0026 74.1081)" fill="#FFFFFF" font-family="'.SFNSText'" font-size="8.2546">am</text>
	<text transform="matrix(1 0 0 1 796.9041 74.1082)" fill="#FFFFFF" font-family="'.SFNSText'" font-size="60.1598">32</text>
</g>
<path opacity="0.7" fill="#231F20" stroke="#231F20" stroke-width="0.5" stroke-miterlimit="10" d="M1118,342.9h-35.7
	c-2,0-3.6-1.6-3.6-3.6V328c0-2,1.6-3.6,3.6-3.6h35.7c2,0,3.6,1.6,3.6,3.6v11.4C1121.6,341.3,1120,342.9,1118,342.9z"/>
<path opacity="0.7" fill="#7A8E53" d="M43,709.7c0.2-12.8,1.7-30.9,7.6-51.1c4-13.8,6.5-22.2,13.1-29.1
	c11.6-12.1,30.8-14.5,43.4-3.6c8,7,10.8,17.1,15.9,35.8c5.3,19.3,7,36,7.6,47L43,709.7z"/>
<path opacity="0.7" fill="#7A8E53" d="M63.1,283.1H31.7c-2.5,0-4.5-2-4.5-4.5v-24.4c0-2.5,2-4.5,4.5-4.5h31.4c2.5,0,4.5,2,4.5,4.5
	v24.4C67.6,281.1,65.6,283.1,63.1,283.1z"/>
<path opacity="0.7" fill="#7A8E53" d="M105.5,283.1H74.1c-2.5,0-4.5-2-4.5-4.5v-24.4c0-2.5,2-4.5,4.5-4.5h31.4c2.5,0,4.5,2,4.5,4.5
	v24.4C110,281.1,108,283.1,105.5,283.1z"/>
<path opacity="0.7" fill="#7A8E53" d="M147.6,283.1h-31.4c-2.5,0-4.5-2-4.5-4.5v-24.4c0-2.5,2-4.5,4.5-4.5h31.4c2.5,0,4.5,2,4.5,4.5
	v24.4C152.2,281.1,150.1,283.1,147.6,283.1z"/>
<path opacity="0.7" fill="#7A8E53" d="M189.8,283.1h-31.4c-2.5,0-4.5-2-4.5-4.5v-24.4c0-2.5,2-4.5,4.5-4.5h31.4c2.5,0,4.5,2,4.5,4.5
	v24.4C194.3,281.1,192.3,283.1,189.8,283.1z"/>
<path opacity="0.7" fill="#7A8E53" d="M232.2,283.1h-31.4c-2.5,0-4.5-2-4.5-4.5v-24.4c0-2.5,2-4.5,4.5-4.5h31.4c2.5,0,4.5,2,4.5,4.5
	v24.4C236.7,281.1,234.7,283.1,232.2,283.1z"/>
<g id="XMLID_42_" opacity="0.7">
	<g>
		<path fill="#8C6C3E" d="M1121.5,781.8c0.9,3.6,1.6,29.8,0.8,63.8h-27.1c-1-32.9,0-56.6,0-61.2c0-0.7-0.5-3.5,0.9-6.5
			c0.7-1.6,1.7-2.7,2.6-3.4c-0.1-9.7,0-11,0-14.1h18.5c0,1.5-0.1,2.4-0.2,4.1c-0.1,1.7-0.2,4.3-0.2,9.1c0.8,0.7,1.7,1.7,2.6,3
			C1119.3,776.6,1120.8,778.9,1121.5,781.8z"/>
		<path fill="#8C6C3E" d="M1117,752.3c0.6,1.7,0.1,7.2,0.1,8h-18.5c0-0.8-0.5-6.4,0.1-8c0.6-1.7,1.6-2.1,2.4-3.9
			c0.4-0.9,0.8-2.3,0.6-4.3h12.1c-0.2,2,0.3,3.4,0.6,4.3C1115.4,750.2,1116.4,750.6,1117,752.3z"/>
	</g>
	<g>
		<path fill="none" stroke="#8C6C3E" stroke-width="0.25" stroke-miterlimit="10" d="M1098.6,760.4c0,3.1-0.1,4.4,0,14.1
			c-0.8,0.8-1.9,1.9-2.6,3.4c-1.4,3-0.9,5.8-0.9,6.5c0,4.5-1,28.3,0,61.2h27.1c0.8-34,0-60.2-0.8-63.8c-0.7-2.9-2.2-5.2-2.2-5.2
			c-0.9-1.3-1.8-2.3-2.6-3c0.1-4.8,0.2-7.4,0.2-9.1c0.1-1.7,0.2-2.6,0.2-4.1c0-0.8,0.5-6.4-0.1-8c-0.6-1.7-1.6-2.1-2.4-3.9
			c-0.4-0.9-0.8-2.3-0.6-4.3h-12.1c0.2,2-0.2,3.4-0.6,4.3c-0.8,1.8-1.8,2.2-2.4,3.9C1098.2,754,1098.6,759.6,1098.6,760.4z"/>
	</g>
</g>
<path opacity="0.7" fill="#231F20" stroke="#231F20" stroke-width="0.5" stroke-miterlimit="10" d="M1114.6,744.1h-13.8
	c-0.8,0-1.5-0.7-1.5-1.5v-3.2c0-0.8,0.7-1.5,1.5-1.5h13.8c0.8,0,1.5,0.7,1.5,1.5v3.2C1116.1,743.4,1115.4,744.1,1114.6,744.1z"/>
<polyline opacity="0.7" fill="#E8D52F" points="1095.6,794.8 1121.8,794.8 1121.8,808.8 1095.6,808.8 "/>
<path opacity="0.7" fill="#231F20" stroke="#231F20" stroke-width="0.5" stroke-miterlimit="10" d="M706.1,344.9h-17.9
	c-3.1,0-5.6-2.5-5.6-5.6v-5.8c0-3.1,2.5-5.6,5.6-5.6h17.9c3.1,0,5.6,2.5,5.6,5.6v5.8C711.7,342.3,709.2,344.9,706.1,344.9z"/>
<path opacity="0.7" fill="#A03546" d="M714.5,431.5h-34.8c-5.8,0-10.5-4.7-10.5-10.5v-68.3c0-5.8,4.7-10.5,10.5-10.5h34.8
	c5.8,0,10.5,4.7,10.5,10.5V421C725,426.8,720.3,431.5,714.5,431.5z"/>
<path opacity="0.7" fill="#C78B41" d="M748.6,288.8h-50.4c-4,0-7.2-3.2-7.2-7.2v-65.2c0-4,3.2-7.2,7.2-7.2h50.4c4,0,7.2,3.2,7.2,7.2
	v65.2C755.8,285.6,752.6,288.8,748.6,288.8z"/>
<path opacity="0.7" fill="#526282" d="M748.6,207.4h-50.5c-3,0-5.4-2.4-5.4-5.4v-6.4c0-3,2.4-5.4,5.4-5.4h50.5c3,0,5.4,2.4,5.4,5.4
	v6.4C754,205,751.6,207.4,748.6,207.4z"/>
<path opacity="0.7" fill="#7A8E53" d="M1183.1,570.6h-56.5c-4,0-7.3-3.3-7.3-7.3v-60.7c0-4,3.3-7.3,7.3-7.3h56.5
	c4,0,7.3,3.3,7.3,7.3v60.7C1190.4,567.3,1187.1,570.6,1183.1,570.6z"/>
<line opacity="0.7" fill="#F6EFF0" stroke="#F6EFF0" stroke-miterlimit="10" x1="1119.3" y1="502.6" x2="1190.4" y2="502.6"/>
<path opacity="0.7" fill="#7A8E53" d="M1106.4,570.6h-56.5c-4,0-7.3-3.3-7.3-7.3v-60.7c0-4,3.3-7.3,7.3-7.3h56.5
	c4,0,7.3,3.3,7.3,7.3v60.7C1113.7,567.3,1110.4,570.6,1106.4,570.6z"/>
<line opacity="0.7" fill="#F6EFF0" stroke="#F6EFF0" stroke-miterlimit="10" x1="1042.6" y1="502.6" x2="1113.7" y2="502.6"/>
<path opacity="0.7" fill="#7A8E53" d="M1031.4,570.6h-56.5c-4,0-7.3-3.3-7.3-7.3v-60.7c0-4,3.3-7.3,7.3-7.3h56.5
	c4,0,7.3,3.3,7.3,7.3v60.7C1038.7,567.3,1035.5,570.6,1031.4,570.6z"/>
<line opacity="0.7" fill="#F6EFF0" stroke="#F6EFF0" stroke-miterlimit="10" x1="967.6" y1="502.6" x2="1038.7" y2="502.6"/>
<polygon opacity="0.7" fill="#6C5F63" stroke="#6C5F63" stroke-width="0.5" stroke-miterlimit="10" points="1060.8,342.9 
	1140.9,342.9 1154.8,429.6 1048.5,429.6 "/>
<path opacity="0.7" fill="#EBD765" d="M951.2,574h-23c-3.7,0-6.6-3-6.6-6.6v-54.5c0-3.7,3-6.6,6.6-6.6h23c3.7,0,6.6,3,6.6,6.6v54.5
	C957.8,571,954.9,574,951.2,574z"/>
<path opacity="0.7" fill="#231F20" stroke="#231F20" stroke-width="0.5" stroke-miterlimit="10" d="M943.8,506.2h-9.3
	c-3.2,0-5.8-2.6-5.8-5.8v-2.1c0-3.2,2.6-5.8,5.8-5.8h9.3c3.2,0,5.8,2.6,5.8,5.8v2.1C949.6,503.6,947,506.2,943.8,506.2z"/>
<rect x="695.1" y="233.9" opacity="0.7" fill="#526282" width="56.1" height="21.4"/>
<circle opacity="0.7" fill="#231F20" stroke="#231F20" stroke-width="0.25" stroke-miterlimit="10" cx="939.7" cy="539.2" r="12.9"/>
<ellipse opacity="0.7" fill="#EBD765" cx="697.1" cy="370.8" rx="20.6" ry="5.1"/>
<rect x="24" y="157.6" opacity="0.7" fill="#AFADAA" width="1181.3" height="21.8"/>
<rect x="24" y="295.4" opacity="0.7" fill="#AFADAA" width="1181.3" height="21.8"/>
<rect x="24" y="437.2" opacity="0.7" fill="#AFADAA" width="1181.3" height="21.8"/>
<rect x="24" y="575.1" opacity="0.7" fill="#AFADAA" width="1181.3" height="21.8"/>
<rect x="24" y="712.9" opacity="0.7" fill="#AFADAA" width="1181.3" height="21.8"/>
<rect x="24" y="850.7" opacity="0.7" fill="#AFADAA" width="1181.3" height="21.8"/>
<g id="XMLID_41_" opacity="0.7">
	<g>
		<path fill="#8C6C3E" d="M1152.1,782.7c0.9,3.6,1.6,29.8,0.8,63.8h-27.1c-1-32.9,0-56.6,0-61.2c0-0.7-0.5-3.5,0.9-6.5
			c0.7-1.6,1.7-2.7,2.6-3.4c-0.1-9.7,0-11,0-14.1h18.5c0,1.5-0.1,2.4-0.2,4.1c-0.1,1.7-0.2,4.3-0.2,9.1c0.8,0.7,1.7,1.7,2.6,3
			C1149.9,777.6,1151.4,779.8,1152.1,782.7z"/>
		<path fill="#8C6C3E" d="M1129.4,753.3c0.6-1.7,1.6-2.1,2.4-3.9c0.4-0.9,0.8-2.3,0.6-4.3h12.1c-0.2,2,0.3,3.4,0.6,4.3
			c0.8,1.8,1.9,2.2,2.4,3.9c0.6,1.7,0.1,7.2,0.1,8h-18.5C1129.2,760.5,1128.8,755,1129.4,753.3z"/>
	</g>
	<g>
		<path fill="none" stroke="#8C6C3E" stroke-width="0.25" stroke-miterlimit="10" d="M1129.2,761.3c0,3.1-0.1,4.4,0,14.1
			c-0.8,0.8-1.9,1.9-2.6,3.4c-1.4,3-0.9,5.8-0.9,6.5c0,4.5-1,28.3,0,61.2h27.1c0.8-34,0-60.2-0.8-63.8c-0.7-2.9-2.2-5.2-2.2-5.2
			c-0.9-1.3-1.8-2.3-2.6-3c0.1-4.8,0.2-7.4,0.2-9.1c0.1-1.7,0.2-2.6,0.2-4.1c0-0.8,0.5-6.4-0.1-8c-0.6-1.7-1.6-2.1-2.4-3.9
			c-0.4-0.9-0.8-2.3-0.6-4.3h-12.1c0.2,2-0.2,3.4-0.6,4.3c-0.8,1.8-1.8,2.2-2.4,3.9C1128.8,755,1129.2,760.5,1129.2,761.3z"/>
	</g>
</g>
<path opacity="0.7" fill="#231F20" stroke="#231F20" stroke-width="0.5" stroke-miterlimit="10" d="M1145.2,745.1h-13.8
	c-0.8,0-1.5-0.7-1.5-1.5v-3.2c0-0.8,0.7-1.5,1.5-1.5h13.8c0.8,0,1.5,0.7,1.5,1.5v3.2C1146.7,744.4,1146,745.1,1145.2,745.1z"/>
<polyline opacity="0.7" fill="#E8D52F" points="1126.2,795.8 1152.4,795.8 1152.4,809.7 1126.2,809.7 "/>
<g id="XMLID_40_" opacity="0.7">
	<g>
		<path fill="#8C6C3E" d="M1183.4,782.7c0.9,3.6,1.6,29.8,0.8,63.8h-27.1c-1-32.9,0-56.6,0-61.2c0-0.7-0.5-3.5,0.9-6.5
			c0.7-1.6,1.7-2.7,2.6-3.4c-0.1-9.7,0-11,0-14.1h18.5c0,1.5-0.1,2.4-0.2,4.1s-0.2,4.3-0.2,9.1c0.8,0.7,1.7,1.7,2.6,3
			C1181.2,777.6,1182.7,779.8,1183.4,782.7z"/>
		<path fill="#8C6C3E" d="M1179,761.3h-18.5c0-0.8-0.5-6.4,0.1-8c0.6-1.7,1.6-2.1,2.4-3.9c0.4-0.9,0.8-2.3,0.6-4.3h12.1
			c-0.2,2,0.3,3.4,0.6,4.3c0.8,1.8,1.9,2.2,2.4,3.9C1179.4,755,1179,760.5,1179,761.3z"/>
	</g>
	<g>
		<path fill="none" stroke="#8C6C3E" stroke-width="0.25" stroke-miterlimit="10" d="M1160.5,761.3c0,3.1-0.1,4.4,0,14.1
			c-0.8,0.8-1.9,1.9-2.6,3.4c-1.4,3-0.9,5.8-0.9,6.5c0,4.5-1,28.3,0,61.2h27.1c0.8-34,0-60.2-0.8-63.8c-0.7-2.9-2.2-5.2-2.2-5.2
			c-0.9-1.3-1.8-2.3-2.6-3c0.1-4.8,0.2-7.4,0.2-9.1s0.2-2.6,0.2-4.1c0-0.8,0.5-6.4-0.1-8c-0.6-1.7-1.6-2.1-2.4-3.9
			c-0.4-0.9-0.8-2.3-0.6-4.3h-12.1c0.2,2-0.2,3.4-0.6,4.3c-0.8,1.8-1.8,2.2-2.4,3.9C1160.1,755,1160.5,760.5,1160.5,761.3z"/>
	</g>
</g>
<path opacity="0.7" fill="#231F20" stroke="#231F20" stroke-width="0.5" stroke-miterlimit="10" d="M1176.5,745.1h-13.8
	c-0.8,0-1.5-0.7-1.5-1.5v-3.2c0-0.8,0.7-1.5,1.5-1.5h13.8c0.8,0,1.5,0.7,1.5,1.5v3.2C1178,744.4,1177.3,745.1,1176.5,745.1z"/>
<polyline opacity="0.7" fill="#E8D52F" points="1157.5,795.8 1183.7,795.8 1183.7,809.7 1157.5,809.7 "/>
<g id="XMLID_39_" opacity="0.7">
	<g>
		<path fill="#673C40" d="M615.4,648.3c0.9,3.6,1.6,29.8,0.8,63.8h-27.1c-1-32.9,0-56.6,0-61.2c0-0.7-0.5-3.5,0.9-6.5
			c0.7-1.6,1.7-2.7,2.6-3.4c-0.1-9.7,0-11,0-14.1H611c0,1.5-0.1,2.4-0.2,4.1c-0.1,1.7-0.2,4.3-0.2,9.1c0.8,0.7,1.7,1.7,2.6,3
			C613.2,643.2,614.7,645.4,615.4,648.3z"/>
		<path fill="#673C40" d="M592.7,618.9c0.6-1.7,1.6-2.1,2.4-3.9c0.4-0.9,0.8-2.3,0.6-4.3h12.1c-0.2,2,0.3,3.4,0.6,4.3
			c0.8,1.8,1.9,2.2,2.4,3.9c0.6,1.7,0.1,7.2,0.1,8h-18.5C592.5,626.1,592.1,620.6,592.7,618.9z"/>
	</g>
</g>
<path opacity="0.7" fill="#8F5629" d="M608.5,610.7h-13.8c-0.8,0-1.5-0.7-1.5-1.5V606c0-0.8,0.7-1.5,1.5-1.5h13.8
	c0.8,0,1.5,0.7,1.5,1.5v3.2C610,610,609.3,610.7,608.5,610.7z"/>
<polyline opacity="0.7" fill="#2E1A24" points="589.5,661.4 615.7,661.4 615.7,675.3 589.5,675.3 "/>
<g id="XMLID_38_" opacity="0.7">
	<g>
		<path fill="#673C40" d="M584.2,648.3c0.9,3.6,1.6,29.8,0.8,63.8h-27.1c-1-32.9,0-56.6,0-61.2c0-0.7-0.5-3.5,0.9-6.5
			c0.7-1.6,1.7-2.7,2.6-3.4c-0.1-9.7,0-11,0-14.1h18.5c0,1.5-0.1,2.4-0.2,4.1c-0.1,1.7-0.2,4.3-0.2,9.1c0.8,0.7,1.7,1.7,2.6,3
			C582,643.1,583.4,645.4,584.2,648.3z"/>
		<path fill="#673C40" d="M561.4,618.8c0.6-1.7,1.6-2.1,2.4-3.9c0.4-0.9,0.8-2.3,0.6-4.3h12.1c-0.2,2,0.3,3.4,0.6,4.3
			c0.8,1.8,1.9,2.2,2.4,3.9c0.6,1.7,0.1,7.2,0.1,8h-18.5C561.3,626.1,560.8,620.5,561.4,618.8z"/>
	</g>
</g>
<path opacity="0.7" fill="#8F5629" d="M577.2,610.6h-13.8c-0.8,0-1.5-0.7-1.5-1.5v-3.2c0-0.8,0.7-1.5,1.5-1.5h13.8
	c0.8,0,1.5,0.7,1.5,1.5v3.2C578.7,609.9,578.1,610.6,577.2,610.6z"/>
<polyline opacity="0.7" fill="#2E1A24" points="558.2,661.3 584.4,661.3 584.4,675.3 558.2,675.3 "/>
<g id="XMLID_37_" opacity="0.7">
	<g>
		<path fill="#673C40" d="M553.9,648.3c0.9,3.6,1.6,29.8,0.8,63.8h-27.1c-1-32.9,0-56.6,0-61.2c0-0.7-0.5-3.5,0.9-6.5
			c0.7-1.6,1.7-2.7,2.6-3.4c-0.1-9.7,0-11,0-14.1h18.5c0,1.5-0.1,2.4-0.2,4.1c-0.1,1.7-0.2,4.3-0.2,9.1c0.8,0.7,1.7,1.7,2.6,3
			C551.7,643.1,553.2,645.4,553.9,648.3z"/>
		<path fill="#673C40" d="M549.4,618.8c0.6,1.7,0.1,7.2,0.1,8H531c0-0.8-0.5-6.4,0.1-8c0.6-1.7,1.6-2.1,2.4-3.9
			c0.4-0.9,0.8-2.3,0.6-4.3h12.1c-0.2,2,0.3,3.4,0.6,4.3C547.8,616.7,548.8,617.1,549.4,618.8z"/>
	</g>
</g>
<path opacity="0.7" fill="#8F5629" d="M547,610.6h-13.8c-0.8,0-1.5-0.7-1.5-1.5v-3.2c0-0.8,0.7-1.5,1.5-1.5H547
	c0.8,0,1.5,0.7,1.5,1.5v3.2C548.5,609.9,547.8,610.6,547,610.6z"/>
<polyline opacity="0.7" fill="#2E1A24" points="528,661.3 554.2,661.3 554.2,675.3 528,675.3 "/>
<g id="XMLID_36_" opacity="0.7">
	<g>
		<path fill="#8C6C3E" d="M651.3,648.3c0.9,3.6,1.6,29.8,0.8,63.8H625c-1-32.9,0-56.6,0-61.2c0-0.7-0.5-3.5,0.9-6.5
			c0.7-1.6,1.7-2.7,2.6-3.4c-0.1-9.7,0-11,0-14.1h18.5c0,1.5-0.1,2.4-0.2,4.1c-0.1,1.7-0.2,4.3-0.2,9.1c0.8,0.7,1.7,1.7,2.6,3
			C649.1,643.1,650.6,645.4,651.3,648.3z"/>
		<path fill="#8C6C3E" d="M646.8,618.8c0.6,1.7,0.1,7.2,0.1,8h-18.5c0-0.8-0.5-6.4,0.1-8c0.6-1.7,1.6-2.1,2.4-3.9
			c0.4-0.9,0.8-2.3,0.6-4.3h12.1c-0.2,2,0.3,3.4,0.6,4.3C645.2,616.7,646.2,617.1,646.8,618.8z"/>
	</g>
	<g>
		<path fill="none" stroke="#8C6C3E" stroke-width="0.25" stroke-miterlimit="10" d="M628.4,626.9c0,3.1-0.1,4.4,0,14.1
			c-0.8,0.8-1.9,1.9-2.6,3.4c-1.4,3-0.9,5.8-0.9,6.5c0,4.5-1,28.3,0,61.2h27.1c0.8-34,0-60.2-0.8-63.8c-0.7-2.9-2.2-5.2-2.2-5.2
			c-0.9-1.3-1.8-2.3-2.6-3c0.1-4.8,0.2-7.4,0.2-9.1c0.1-1.7,0.2-2.6,0.2-4.1c0-0.8,0.5-6.4-0.1-8c-0.6-1.7-1.6-2.1-2.4-3.9
			c-0.4-0.9-0.8-2.3-0.6-4.3h-12.1c0.2,2-0.2,3.4-0.6,4.3c-0.8,1.8-1.8,2.2-2.4,3.9C628,620.5,628.4,626.1,628.4,626.9z"/>
	</g>
</g>
<path opacity="0.7" fill="#C78B41" d="M644.4,610.6h-13.8c-0.8,0-1.5-0.7-1.5-1.5v-3.2c0-0.8,0.7-1.5,1.5-1.5h13.8
	c0.8,0,1.5,0.7,1.5,1.5v3.2C645.9,609.9,645.2,610.6,644.4,610.6z"/>
<polyline opacity="0.7" fill="#8B293A" points="625.4,661.3 651.6,661.3 651.6,675.3 625.4,675.3 "/>
<g id="XMLID_35_" opacity="0.7">
	<g>
		<path fill="#8C6C3E" d="M683.7,648.3c0.9,3.6,1.6,29.8,0.8,63.8h-27.1c-1-32.9,0-56.6,0-61.2c0-0.7-0.5-3.5,0.9-6.5
			c0.7-1.6,1.7-2.7,2.6-3.4c-0.1-9.7,0-11,0-14.1h18.5c0,1.5-0.1,2.4-0.2,4.1c-0.1,1.7-0.2,4.3-0.2,9.1c0.8,0.7,1.7,1.7,2.6,3
			C681.5,643.2,683,645.4,683.7,648.3z"/>
		<path fill="#8C6C3E" d="M661,618.9c0.6-1.7,1.6-2.1,2.4-3.9c0.4-0.9,0.8-2.3,0.6-4.3h12.1c-0.2,2,0.3,3.4,0.6,4.3
			c0.8,1.8,1.9,2.2,2.4,3.9c0.6,1.7,0.1,7.2,0.1,8h-18.5C660.9,626.1,660.4,620.6,661,618.9z"/>
	</g>
	<g>
		<path fill="none" stroke="#8C6C3E" stroke-width="0.25" stroke-miterlimit="10" d="M660.9,626.9c0,3.1-0.1,4.4,0,14.1
			c-0.8,0.8-1.9,1.9-2.6,3.4c-1.4,3-0.9,5.8-0.9,6.5c0,4.5-1,28.3,0,61.2h27.1c0.8-34,0-60.2-0.8-63.8c-0.7-2.9-2.2-5.2-2.2-5.2
			c-0.9-1.3-1.8-2.3-2.6-3c0.1-4.8,0.2-7.4,0.2-9.1c0.1-1.7,0.2-2.6,0.2-4.1c0-0.8,0.5-6.4-0.1-8c-0.6-1.7-1.6-2.1-2.4-3.9
			c-0.4-0.9-0.8-2.3-0.6-4.3H664c0.2,2-0.2,3.4-0.6,4.3c-0.8,1.8-1.8,2.2-2.4,3.9C660.4,620.6,660.9,626.1,660.9,626.9z"/>
	</g>
</g>
<path opacity="0.7" fill="#C78B41" d="M676.8,610.7H663c-0.8,0-1.5-0.7-1.5-1.5V606c0-0.8,0.7-1.5,1.5-1.5h13.8
	c0.8,0,1.5,0.7,1.5,1.5v3.2C678.3,610,677.6,610.7,676.8,610.7z"/>
<polyline opacity="0.7" fill="#8B293A" points="657.8,661.4 684,661.4 684,675.3 657.8,675.3 "/>
<g id="XMLID_34_" opacity="0.7">
	<g>
		<path fill="#8C6C3E" d="M719.7,647.9c0.9,3.6,1.6,29.8,0.8,63.8h-27.1c-1-32.9,0-56.6,0-61.2c0-0.7-0.5-3.5,0.9-6.5
			c0.7-1.6,1.7-2.7,2.6-3.4c-0.1-9.7,0-11,0-14.1h18.5c0,1.5-0.1,2.4-0.2,4.1c-0.1,1.7-0.2,4.3-0.2,9.1c0.8,0.7,1.7,1.7,2.6,3
			C717.5,642.7,718.9,644.9,719.7,647.9z"/>
		<path fill="#8C6C3E" d="M715.3,626.4h-18.5c0-0.8-0.5-6.4,0.1-8c0.6-1.7,1.6-2.1,2.4-3.9c0.4-0.9,0.8-2.3,0.6-4.3h12.1
			c-0.2,2,0.3,3.4,0.6,4.3c0.8,1.8,1.9,2.2,2.4,3.9C715.7,620.1,715.3,625.6,715.3,626.4z"/>
	</g>
	<g>
		<path fill="none" stroke="#8C6C3E" stroke-width="0.25" stroke-miterlimit="10" d="M696.8,626.4c0,3.1-0.1,4.4,0,14.1
			c-0.8,0.8-1.9,1.9-2.6,3.4c-1.4,3-0.9,5.8-0.9,6.5c0,4.5-1,28.3,0,61.2h27.1c0.8-34,0-60.2-0.8-63.8c-0.7-2.9-2.2-5.2-2.2-5.2
			c-0.9-1.3-1.8-2.3-2.6-3c0.1-4.8,0.2-7.4,0.2-9.1c0.1-1.7,0.2-2.6,0.2-4.1c0-0.8,0.5-6.4-0.1-8c-0.6-1.7-1.6-2.1-2.4-3.9
			c-0.4-0.9-0.8-2.3-0.6-4.3H700c0.2,2-0.2,3.4-0.6,4.3c-0.8,1.8-1.8,2.2-2.4,3.9C696.3,620.1,696.8,625.6,696.8,626.4z"/>
	</g>
</g>
<path opacity="0.7" fill="#C78B41" d="M712.7,610.2H699c-0.8,0-1.5-0.7-1.5-1.5v-3.2c0-0.8,0.7-1.5,1.5-1.5h13.8
	c0.8,0,1.5,0.7,1.5,1.5v3.2C714.2,609.5,713.6,610.2,712.7,610.2z"/>
<polyline opacity="0.7" fill="#8B293A" points="693.7,660.9 719.9,660.9 719.9,674.9 693.7,674.9 "/>
<rect x="730" y="643.7" opacity="0.7" fill="#EBD765" width="55.8" height="67.7"/>
<path opacity="0.7" fill="#E2E2C6" d="M776.4,699.7h-38.8c-2.4,0-4.4-2-4.4-4.4v-13.4c0-2.4,2-4.4,4.4-4.4h38.8c2.4,0,4.4,2,4.4,4.4
	v13.4C780.8,697.8,778.8,699.7,776.4,699.7z"/>
<ellipse opacity="0.7" fill="#7A8E53" cx="746.4" cy="673.9" rx="6.7" ry="18.4"/>
<rect x="788.5" y="644.3" opacity="0.7" fill="#EBD765" width="55.8" height="67.7"/>
<path opacity="0.7" fill="#E2E2C6" d="M835,700.3h-38.8c-2.4,0-4.4-2-4.4-4.4v-13.4c0-2.4,2-4.4,4.4-4.4H835c2.4,0,4.4,2,4.4,4.4
	v13.4C839.4,698.4,837.4,700.3,835,700.3z"/>
<ellipse opacity="0.7" fill="#7A8E53" cx="805" cy="674.4" rx="6.7" ry="18.4"/>
<rect x="847.9" y="670.5" opacity="0.7" fill="#EBD765" width="34.2" height="41.5"/>
<path opacity="0.7" fill="#E2E2C6" d="M876.4,704.8h-23.8c-1.5,0-2.7-1.2-2.7-2.7v-8.2c0-1.5,1.2-2.7,2.7-2.7h23.8
	c1.5,0,2.7,1.2,2.7,2.7v8.2C879.1,703.6,877.9,704.8,876.4,704.8z"/>
<ellipse opacity="0.7" fill="#7A8E53" cx="858" cy="689" rx="4.1" ry="11.3"/>
<rect x="885.4" y="670.5" opacity="0.7" fill="#EBD765" width="34.2" height="41.5"/>
<path opacity="0.7" fill="#E2E2C6" d="M913.9,704.8h-23.8c-1.5,0-2.7-1.2-2.7-2.7v-8.2c0-1.5,1.2-2.7,2.7-2.7h23.8
	c1.5,0,2.7,1.2,2.7,2.7v8.2C916.6,703.6,915.4,704.8,913.9,704.8z"/>
<ellipse opacity="0.7" fill="#7A8E53" cx="895.5" cy="689" rx="4.1" ry="11.3"/>
<rect x="847.9" y="626.4" opacity="0.7" fill="#EBD765" width="34.2" height="41.5"/>
<path opacity="0.7" fill="#E2E2C6" d="M876.4,660.8h-23.8c-1.5,0-2.7-1.2-2.7-2.7v-8.2c0-1.5,1.2-2.7,2.7-2.7h23.8
	c1.5,0,2.7,1.2,2.7,2.7v8.2C879.1,659.6,877.9,660.8,876.4,660.8z"/>
<ellipse opacity="0.7" fill="#7A8E53" cx="858" cy="644.9" rx="4.1" ry="11.3"/>
<rect x="998.4" y="616.9" opacity="0.7" fill="#C78B41" width="67.2" height="94.5"/>
<path opacity="0.7" fill="#E2E2C6" d="M1054,695.1H1008c-3.1,0-5.7-2.5-5.7-5.7v-19.6c0-3.1,2.5-5.7,5.7-5.7h45.9
	c3.1,0,5.7,2.5,5.7,5.7v19.6C1059.6,692.6,1057.1,695.1,1054,695.1z"/>
<ellipse transform="matrix(0.178 -0.984 0.984 0.178 183.4684 1575.9114)" opacity="0.7" fill="#9A6F4D" cx="1035" cy="678.1" rx="5.3" ry="17"/>
<ellipse transform="matrix(0.8423 -0.5391 0.5391 0.8423 -193.6697 666.47)" opacity="0.7" fill="#7A8E53" cx="1042" cy="664.2" rx="8" ry="25.7"/>
<ellipse transform="matrix(-0.6248 -0.7808 0.7808 -0.6248 1156.5731 1936.0413)" opacity="0.7" fill="#7A8E53" cx="1043.5" cy="690.1" rx="5.3" ry="17"/>
<rect x="929" y="616.9" opacity="0.7" fill="#C78B41" width="67.2" height="94.5"/>
<path opacity="0.7" fill="#E2E2C6" d="M984.6,695.1h-45.9c-3.1,0-5.7-2.5-5.7-5.7v-19.6c0-3.1,2.5-5.7,5.7-5.7h45.9
	c3.1,0,5.7,2.5,5.7,5.7v19.6C990.2,692.6,987.7,695.1,984.6,695.1z"/>
<ellipse transform="matrix(0.178 -0.984 0.984 0.178 126.4121 1507.6064)" opacity="0.7" fill="#9A6F4D" cx="965.6" cy="678.1" rx="5.3" ry="17"/>
<ellipse transform="matrix(0.8423 -0.5391 0.5391 0.8423 -204.6191 629.0509)" opacity="0.7" fill="#7A8E53" cx="972.6" cy="664.2" rx="8" ry="25.7"/>
<ellipse transform="matrix(-0.6248 -0.7808 0.7808 -0.6248 1043.7926 1881.8417)" opacity="0.7" fill="#7A8E53" cx="974.1" cy="690.1" rx="5.3" ry="17"/>
<rect x="1069.5" y="616.3" opacity="0.7" fill="#C78B41" width="67.2" height="94.5"/>
<path opacity="0.7" fill="#E2E2C6" d="M1125.1,694.5h-45.9c-3.1,0-5.7-2.5-5.7-5.7v-19.6c0-3.1,2.5-5.7,5.7-5.7h45.9
	c3.1,0,5.7,2.5,5.7,5.7v19.6C1130.7,692,1128.2,694.5,1125.1,694.5z"/>
<ellipse transform="matrix(0.178 -0.984 0.984 0.178 242.4701 1645.4072)" opacity="0.7" fill="#9A6F4D" cx="1106.1" cy="677.6" rx="5.3" ry="17"/>
<ellipse transform="matrix(0.8423 -0.5391 0.5391 0.8423 -182.1477 704.708)" opacity="0.7" fill="#7A8E53" cx="1113.1" cy="663.6" rx="8" ry="25.7"/>
<ellipse transform="matrix(-0.6248 -0.7808 0.7808 -0.6248 1272.5365 1990.6324)" opacity="0.7" fill="#7A8E53" cx="1114.6" cy="689.5" rx="5.3" ry="17"/>
<path opacity="0.7" fill="#E6B433" d="M131.8,575.2H33.2c-2.2,0-4-1.8-4-4v-26.6c0-2.2,1.8-4,4-4h98.6c2.2,0,4,1.8,4,4v26.6
	C135.8,573.4,134,575.2,131.8,575.2z"/>
<path opacity="0.7" fill="#FCFAF6" d="M63.1,560.2c-7.1,0-14.2,0-21.3,0c-4.3,0-6.8-2.3-6.8-6.1c0-3.7,2.3-5.9,6.4-6
	c14.8-0.1,29.6-0.1,44.4,0c3.9,0,7.1,2.9,6.7,6.3c-0.5,3.8-2.8,5.8-6.8,5.8C78.2,560.2,70.6,560.2,63.1,560.2
	C63.1,560.2,63.1,560.2,63.1,560.2z"/>
<path opacity="0.7" fill="#E6B433" d="M131.8,539.4H33.2c-2.2,0-4-1.8-4-4v-26.6c0-2.2,1.8-4,4-4h98.6c2.2,0,4,1.8,4,4v26.6
	C135.8,537.5,134,539.4,131.8,539.4z"/>
<path opacity="0.7" fill="#FCFAF6" d="M63.1,524.3c-7.1,0-14.2,0-21.3,0c-4.3,0-6.8-2.3-6.8-6.1c0-3.7,2.3-5.9,6.4-6
	c14.8-0.1,29.6-0.1,44.4,0c3.9,0,7.1,2.9,6.7,6.3c-0.5,3.8-2.8,5.8-6.8,5.8C78.2,524.3,70.6,524.3,63.1,524.3
	C63.1,524.3,63.1,524.3,63.1,524.3z"/>
<ellipse opacity="0.7" fill="#FCFAF6" cx="115.5" cy="526.9" rx="11.2" ry="5.7"/>
<ellipse opacity="0.7" fill="#FCFAF6" cx="121.2" cy="522" rx="5.7" ry="11.2"/>
<ellipse opacity="0.7" fill="#FCFAF6" cx="115.5" cy="562.8" rx="11.2" ry="5.7"/>
<ellipse opacity="0.7" fill="#FCFAF6" cx="121.1" cy="557.9" rx="5.7" ry="11.2"/>
<path opacity="0.7" fill="#8FD0D0" d="M242.8,574.6h-98.6c-2.2,0-4-1.8-4-4V544c0-2.2,1.8-4,4-4h98.6c2.2,0,4,1.8,4,4v26.6
	C246.9,572.8,245.1,574.6,242.8,574.6z"/>
<path opacity="0.7" fill="#FCFAF6" d="M174.1,559.6c-7.1,0-14.2,0-21.3,0c-4.3,0-6.8-2.3-6.8-6.1c0-3.7,2.3-5.9,6.4-6
	c14.8-0.1,29.6-0.1,44.4,0c3.9,0,7.1,2.9,6.7,6.3c-0.5,3.8-2.8,5.8-6.8,5.8C189.2,559.6,181.7,559.6,174.1,559.6
	C174.1,559.6,174.1,559.6,174.1,559.6z"/>
<ellipse opacity="0.7" fill="#FCFAF6" cx="226.5" cy="562.2" rx="11.2" ry="5.7"/>
<ellipse opacity="0.7" fill="#FCFAF6" cx="232.2" cy="557.3" rx="5.7" ry="11.2"/>
<path opacity="0.7" fill="#7A8E53" d="M352,574h-98.6c-2.2,0-4-1.8-4-4v-26.6c0-2.2,1.8-4,4-4H352c2.2,0,4,1.8,4,4V570
	C356,572.2,354.2,574,352,574z"/>
<path opacity="0.7" fill="#FCFAF6" d="M283.3,559c-7.1,0-14.2,0-21.3,0c-4.3,0-6.8-2.3-6.8-6.1c0-3.7,2.3-5.9,6.4-6
	c14.8-0.1,29.6-0.1,44.4,0c3.9,0,7.1,2.9,6.7,6.3c-0.5,3.8-2.8,5.8-6.8,5.8C298.4,559,290.8,559,283.3,559
	C283.3,559,283.3,559,283.3,559z"/>
<path opacity="0.7" fill="#7A8E53" d="M352,538.2h-98.6c-2.2,0-4-1.8-4-4v-26.6c0-2.2,1.8-4,4-4H352c2.2,0,4,1.8,4,4v26.6
	C356,536.4,354.2,538.2,352,538.2z"/>
<path opacity="0.7" fill="#FCFAF6" d="M283.3,523.1c-7.1,0-14.2,0-21.3,0c-4.3,0-6.8-2.3-6.8-6.1c0-3.7,2.3-5.9,6.4-6
	c14.8-0.1,29.6-0.1,44.4,0c3.9,0,7.1,2.9,6.7,6.3c-0.5,3.8-2.8,5.8-6.8,5.8C298.4,523.1,290.8,523.1,283.3,523.1
	C283.3,523.1,283.3,523.1,283.3,523.1z"/>
<ellipse opacity="0.7" fill="#FCFAF6" cx="335.7" cy="525.7" rx="11.2" ry="5.7"/>
<ellipse opacity="0.7" fill="#FCFAF6" cx="341.4" cy="520.8" rx="5.7" ry="11.2"/>
<ellipse opacity="0.7" fill="#FCFAF6" cx="335.6" cy="561.6" rx="11.2" ry="5.7"/>
<ellipse opacity="0.7" fill="#FCFAF6" cx="341.3" cy="556.7" rx="5.7" ry="11.2"/>
<path opacity="0.7" fill="#7A8E53" d="M463,573.4h-98.6c-2.2,0-4-1.8-4-4v-26.6c0-2.2,1.8-4,4-4H463c2.2,0,4,1.8,4,4v26.6
	C467.1,571.6,465.3,573.4,463,573.4z"/>
<path opacity="0.7" fill="#FCFAF6" d="M394.3,558.4c-7.1,0-14.2,0-21.3,0c-4.3,0-6.8-2.3-6.8-6.1c0-3.7,2.3-5.9,6.4-6
	c14.8-0.1,29.6-0.1,44.4,0c3.9,0,7.1,2.9,6.7,6.3c-0.5,3.8-2.8,5.8-6.8,5.8C409.4,558.4,401.9,558.4,394.3,558.4
	C394.3,558.4,394.3,558.4,394.3,558.4z"/>
<path opacity="0.7" fill="#7A8E53" d="M463,537.6h-98.6c-2.2,0-4-1.8-4-4v-26.6c0-2.2,1.8-4,4-4H463c2.2,0,4,1.8,4,4v26.6
	C467.1,535.8,465.3,537.6,463,537.6z"/>
<path opacity="0.7" fill="#FCFAF6" d="M394.3,522.5c-7.1,0-14.2,0-21.3,0c-4.3,0-6.8-2.3-6.8-6.1c0-3.7,2.3-5.9,6.4-6
	c14.8-0.1,29.6-0.1,44.4,0c3.9,0,7.1,2.9,6.7,6.3c-0.5,3.8-2.8,5.8-6.8,5.8C409.4,522.5,401.9,522.5,394.3,522.5
	C394.3,522.5,394.3,522.5,394.3,522.5z"/>
<ellipse opacity="0.7" fill="#FCFAF6" cx="446.8" cy="525.1" rx="11.2" ry="5.7"/>
<ellipse opacity="0.7" fill="#FCFAF6" cx="452.4" cy="520.2" rx="5.7" ry="11.2"/>
<ellipse opacity="0.7" fill="#FCFAF6" cx="452.4" cy="556.1" rx="5.7" ry="11.2"/>
<path opacity="0.7" fill="#7A8E53" d="M352,501h-98.6c-2.2,0-4-1.8-4-4v-26.6c0-2.2,1.8-4,4-4H352c2.2,0,4,1.8,4,4v26.6
	C356,499.2,354.2,501,352,501z"/>
<path opacity="0.7" fill="#FCFAF6" d="M283.3,485.9c-7.1,0-14.2,0-21.3,0c-4.3,0-6.8-2.3-6.8-6.1c0-3.7,2.3-5.9,6.4-6
	c14.8-0.1,29.6-0.1,44.4,0c3.9,0,7.1,2.9,6.7,6.3c-0.5,3.8-2.8,5.8-6.8,5.8C298.4,485.9,290.8,486,283.3,485.9
	C283.3,485.9,283.3,485.9,283.3,485.9z"/>
<ellipse opacity="0.7" fill="#FCFAF6" cx="335.7" cy="488.5" rx="11.2" ry="5.7"/>
<ellipse opacity="0.7" fill="#FCFAF6" cx="341.4" cy="483.6" rx="5.7" ry="11.2"/>
<path opacity="0.7" fill="#EB7332" d="M759.5,847.2h-93.2c-1.5,0-2.8-1.3-2.8-2.8V742.2c0-1.5,1.3-2.8,2.8-2.8h93.2
	c1.5,0,2.8,1.3,2.8,2.8v102.2C762.3,845.9,761,847.2,759.5,847.2z"/>
<path opacity="0.7" fill="#F6EFF0" d="M756.5,741.1L660.5,804c-1.1,0.7-2.5,0.4-3.3-0.7l0,0c-0.7-1.1-0.4-2.5,0.7-3.3l96.1-62.9
	c1.1-0.7,2.5-0.4,3.3,0.7l0,0C757.9,738.9,757.6,740.4,756.5,741.1z"/>
<path opacity="0.7" fill="#A03546" d="M1112.8,810.2c3-0.3,6-0.9,9-0.3c0.6,0.4,1.1,0.4,1.6,0c0.6,0,1.3-0.1,1.9-0.1
	c0.3,0,0.5,0.1,0.8,0.2c0.6,0,1.3,0,1.9,0l0.4,0.2l0.4-0.2c19.2,0.1,38.4,0.2,57.6,0.3c2.7,0,3.2,1.3,3.2,3.7
	c-0.1,10.6-0.1,21.2,0,31.8c0,3-1,3.9-3.9,3.9c-13.2-0.1-26.3-0.1-39.5-0.1c-17.7,0-35.4-0.1-53.1,0.1c-3.3,0-4.6-0.8-4.5-4.3
	c0.2-10.3,0.2-20.6,0-30.9c0-3.2,0.9-4.3,4.2-4.2c5.3,0.2,10.6,0.1,15.9,0.1C1110.1,810.2,1111.5,810.2,1112.8,810.2z M1114.7,832.8
	c5.9,0,10.8-0.1,15.6,0c2.6,0.1,4.2-0.3,4.2-3.6c0-3.2-1.5-3.7-4.2-3.6c-9.1,0.1-18.2-0.1-27.3,0.1c-3.5,0.1-4.7-1.1-4.3-4.4
	c0.1-0.7-0.1-1.5,0-2.3c0.2-3-2.1-2.3-3.8-2.6c-2.5-0.5-2.3,1.2-2.3,2.8c0,3.8,0.1,7.6,0,11.4c-0.1,2.5,1.3,3.6,3.4,3
	C1102.6,831.9,1109.2,833.5,1114.7,832.8z"/>
<path opacity="0.7" fill="#8B293A" d="M1123.4,809.9c-0.5,0.4-1.1,0.4-1.6,0C1122.3,809.9,1122.9,809.9,1123.4,809.9z"/>
<path opacity="0.7" fill="#8B293A" d="M1128.9,809.9l-0.4,0.2l-0.4-0.2C1128.4,809.7,1128.7,809.7,1128.9,809.9z"/>
<path opacity="0.7" fill="#8B293A" d="M1126.2,809.9c-0.3-0.1-0.5-0.1-0.8-0.2C1125.7,809.7,1125.9,809.7,1126.2,809.9z"/>
<path opacity="0.7" fill="#2E1A24" d="M1114.7,832.8c-5.5,0.7-12.1-1-18.7,0.8c-2.1,0.5-3.4-0.6-3.4-3c0.1-3.8,0-7.6,0-11.4
	c0-1.6-0.2-3.2,2.3-2.8c1.7,0.3,3.9-0.4,3.8,2.6c0,0.8,0.1,1.5,0,2.3c-0.4,3.3,0.9,4.5,4.3,4.4c9.1-0.2,18.2,0,27.3-0.1
	c2.7,0,4.2,0.4,4.2,3.6c0,3.3-1.6,3.7-4.2,3.6C1125.5,832.8,1120.6,832.8,1114.7,832.8z"/>
<g id="XMLID_33_" opacity="0.7">
	<g>
		<path fill="#8C6C3E" d="M1016,780.8c0.9,3.6,1.6,29.8,0.8,63.8h-27.1c-1-32.9,0-56.6,0-61.2c0-0.7-0.5-3.5,0.9-6.5
			c0.7-1.6,1.7-2.7,2.6-3.4c-0.1-9.7,0-11,0-14.1h18.5c0,1.5-0.1,2.4-0.2,4.1c-0.1,1.7-0.2,4.3-0.2,9.1c0.8,0.7,1.7,1.7,2.6,3
			C1013.8,775.6,1015.3,777.9,1016,780.8z"/>
		<path fill="#8C6C3E" d="M1011.5,751.3c0.6,1.7,0.1,7.2,0.1,8h-18.5c0-0.8-0.5-6.4,0.1-8c0.6-1.7,1.6-2.1,2.4-3.9
			c0.4-0.9,0.8-2.3,0.6-4.3h12.1c-0.2,2,0.3,3.4,0.6,4.3C1009.9,749.2,1010.9,749.6,1011.5,751.3z"/>
	</g>
	<g>
		<path fill="none" stroke="#8C6C3E" stroke-width="0.25" stroke-miterlimit="10" d="M993.1,759.4c0,3.1-0.1,4.4,0,14.1
			c-0.8,0.8-1.9,1.9-2.6,3.4c-1.4,3-0.9,5.8-0.9,6.5c0,4.5-1,28.3,0,61.2h27.1c0.8-34,0-60.2-0.8-63.8c-0.7-2.9-2.2-5.2-2.2-5.2
			c-0.9-1.3-1.8-2.3-2.6-3c0.1-4.8,0.2-7.4,0.2-9.1c0.1-1.7,0.2-2.6,0.2-4.1c0-0.8,0.5-6.4-0.1-8c-0.6-1.7-1.6-2.1-2.4-3.9
			c-0.4-0.9-0.8-2.3-0.6-4.3h-12.1c0.2,2-0.2,3.4-0.6,4.3c-0.8,1.8-1.8,2.2-2.4,3.9C992.7,753,993.1,758.6,993.1,759.4z"/>
	</g>
</g>
<path opacity="0.7" fill="#231F20" stroke="#231F20" stroke-width="0.5" stroke-miterlimit="10" d="M1009.1,743.1h-13.8
	c-0.8,0-1.5-0.7-1.5-1.5v-3.2c0-0.8,0.7-1.5,1.5-1.5h13.8c0.8,0,1.5,0.7,1.5,1.5v3.2C1010.6,742.4,1009.9,743.1,1009.1,743.1z"/>
<polyline opacity="0.7" fill="#E8D52F" points="990.1,793.8 1016.3,793.8 1016.3,807.8 990.1,807.8 "/>
<g id="XMLID_32_" opacity="0.7">
	<g>
		<path fill="#8C6C3E" d="M1046.6,781.7c0.9,3.6,1.6,29.8,0.8,63.8h-27.1c-1-32.9,0-56.6,0-61.2c0-0.7-0.5-3.5,0.9-6.5
			c0.7-1.6,1.7-2.7,2.6-3.4c-0.1-9.7,0-11,0-14.1h18.5c0,1.5-0.1,2.4-0.2,4.1c-0.1,1.7-0.2,4.3-0.2,9.1c0.8,0.7,1.7,1.7,2.6,3
			C1044.4,776.6,1045.9,778.8,1046.6,781.7z"/>
		<path fill="#8C6C3E" d="M1042.2,760.3h-18.5c0-0.8-0.5-6.4,0.1-8c0.6-1.7,1.6-2.1,2.4-3.9c0.4-0.9,0.8-2.3,0.6-4.3h12.1
			c-0.2,2,0.3,3.4,0.6,4.3c0.8,1.8,1.9,2.2,2.4,3.9C1042.7,754,1042.2,759.5,1042.2,760.3z"/>
	</g>
	<g>
		<path fill="none" stroke="#8C6C3E" stroke-width="0.25" stroke-miterlimit="10" d="M1023.7,760.3c0,3.1-0.1,4.4,0,14.1
			c-0.8,0.8-1.9,1.9-2.6,3.4c-1.4,3-0.9,5.8-0.9,6.5c0,4.5-1,28.3,0,61.2h27.1c0.8-34,0-60.2-0.8-63.8c-0.7-2.9-2.2-5.2-2.2-5.2
			c-0.9-1.3-1.8-2.3-2.6-3c0.1-4.8,0.2-7.4,0.2-9.1c0.1-1.7,0.2-2.6,0.2-4.1c0-0.8,0.5-6.4-0.1-8c-0.6-1.7-1.6-2.1-2.4-3.9
			c-0.4-0.9-0.8-2.3-0.6-4.3h-12.1c0.2,2-0.2,3.4-0.6,4.3c-0.8,1.8-1.8,2.2-2.4,3.9C1023.3,754,1023.7,759.5,1023.7,760.3z"/>
	</g>
</g>
<path opacity="0.7" fill="#231F20" stroke="#231F20" stroke-width="0.5" stroke-miterlimit="10" d="M1039.7,744.1h-13.8
	c-0.8,0-1.5-0.7-1.5-1.5v-3.2c0-0.8,0.7-1.5,1.5-1.5h13.8c0.8,0,1.5,0.7,1.5,1.5v3.2C1041.2,743.4,1040.5,744.1,1039.7,744.1z"/>
<polyline opacity="0.7" fill="#E8D52F" points="1020.7,794.8 1046.9,794.8 1046.9,808.7 1020.7,808.7 "/>
<g id="XMLID_31_" opacity="0.7">
	<g>
		<path fill="#8C6C3E" d="M1077.9,781.7c0.9,3.6,1.6,29.8,0.8,63.8h-27.1c-1-32.9,0-56.6,0-61.2c0-0.7-0.5-3.5,0.9-6.5
			c0.7-1.6,1.7-2.7,2.6-3.4c-0.1-9.7,0-11,0-14.1h18.5c0,1.5-0.1,2.4-0.2,4.1c-0.1,1.7-0.2,4.3-0.2,9.1c0.8,0.7,1.7,1.7,2.6,3
			C1075.7,776.6,1077.1,778.8,1077.9,781.7z"/>
		<path fill="#8C6C3E" d="M1073.5,760.3H1055c0-0.8-0.5-6.4,0.1-8c0.6-1.7,1.6-2.1,2.4-3.9c0.4-0.9,0.8-2.3,0.6-4.3h12.1
			c-0.2,2,0.3,3.4,0.6,4.3c0.8,1.8,1.9,2.2,2.4,3.9C1073.9,754,1073.5,759.5,1073.5,760.3z"/>
	</g>
	<g>
		<path fill="none" stroke="#8C6C3E" stroke-width="0.25" stroke-miterlimit="10" d="M1055,760.3c0,3.1-0.1,4.4,0,14.1
			c-0.8,0.8-1.9,1.9-2.6,3.4c-1.4,3-0.9,5.8-0.9,6.5c0,4.5-1,28.3,0,61.2h27.1c0.8-34,0-60.2-0.8-63.8c-0.7-2.9-2.2-5.2-2.2-5.2
			c-0.9-1.3-1.8-2.3-2.6-3c0.1-4.8,0.2-7.4,0.2-9.1c0.1-1.7,0.2-2.6,0.2-4.1c0-0.8,0.5-6.4-0.1-8c-0.6-1.7-1.6-2.1-2.4-3.9
			c-0.4-0.9-0.8-2.3-0.6-4.3h-12.1c0.2,2-0.2,3.4-0.6,4.3c-0.8,1.8-1.8,2.2-2.4,3.9C1054.5,754,1055,759.5,1055,760.3z"/>
	</g>
</g>
<path opacity="0.7" fill="#231F20" stroke="#231F20" stroke-width="0.5" stroke-miterlimit="10" d="M1070.9,744.1h-13.8
	c-0.8,0-1.5-0.7-1.5-1.5v-3.2c0-0.8,0.7-1.5,1.5-1.5h13.8c0.8,0,1.5,0.7,1.5,1.5v3.2C1072.4,743.4,1071.8,744.1,1070.9,744.1z"/>
<polyline opacity="0.7" fill="#E8D52F" points="1052,794.8 1078.1,794.8 1078.1,808.7 1052,808.7 "/>
<path opacity="0.7" fill="#A03546" d="M1007.3,809.2c3-0.3,6-0.9,9-0.3c0.6,0.4,1.1,0.4,1.6,0c0.6,0,1.3-0.1,1.9-0.1
	c0.3,0,0.5,0.1,0.8,0.2c0.6,0,1.3,0,1.9,0c0,0,0.4,0.2,0.4,0.2l0.4-0.2c19.2,0.1,38.4,0.2,57.6,0.3c2.7,0,3.2,1.3,3.2,3.7
	c-0.1,10.6-0.1,21.2,0,31.8c0,3-1,3.9-3.9,3.9c-13.2-0.1-26.3-0.1-39.5-0.1c-17.7,0-35.4-0.1-53.1,0.1c-3.3,0-4.6-0.8-4.5-4.3
	c0.2-10.3,0.2-20.6,0-30.9c0-3.2,0.9-4.3,4.2-4.2c5.3,0.2,10.6,0.1,15.9,0.1C1004.6,809.2,1006,809.2,1007.3,809.2z M1009.2,831.8
	c5.9,0,10.8-0.1,15.6,0c2.6,0.1,4.2-0.3,4.2-3.6c0-3.2-1.5-3.7-4.2-3.6c-9.1,0.1-18.2-0.1-27.3,0.1c-3.5,0.1-4.7-1.1-4.3-4.4
	c0.1-0.7-0.1-1.5,0-2.3c0.2-3-2.1-2.3-3.8-2.6c-2.5-0.5-2.3,1.2-2.3,2.8c0,3.8,0.1,7.6,0,11.4c-0.1,2.5,1.3,3.6,3.4,3
	C997.1,830.9,1003.7,832.5,1009.2,831.8z"/>
<path opacity="0.7" fill="#8B293A" d="M1017.9,808.9c-0.5,0.4-1.1,0.4-1.6,0C1016.8,808.9,1017.4,808.9,1017.9,808.9z"/>
<path opacity="0.7" fill="#8B293A" d="M1023.4,808.9l-0.4,0.2c0,0-0.4-0.2-0.4-0.2C1022.9,808.7,1023.1,808.7,1023.4,808.9z"/>
<path opacity="0.7" fill="#8B293A" d="M1020.7,808.9c-0.3-0.1-0.5-0.1-0.8-0.2C1020.1,808.7,1020.4,808.7,1020.7,808.9z"/>
<path opacity="0.7" fill="#2E1A24" d="M1009.2,831.8c-5.5,0.7-12.1-1-18.7,0.8c-2.1,0.5-3.4-0.6-3.4-3c0.1-3.8,0-7.6,0-11.4
	c0-1.6-0.2-3.2,2.3-2.8c1.7,0.3,3.9-0.4,3.8,2.6c0,0.8,0.1,1.5,0,2.3c-0.4,3.3,0.9,4.5,4.3,4.4c9.1-0.2,18.2,0,27.3-0.1
	c2.7,0,4.2,0.4,4.2,3.6c0,3.3-1.6,3.7-4.2,3.6C1020,831.8,1015.1,831.8,1009.2,831.8z"/>
<g id="XMLID_30_" opacity="0.7">
	<g>
		<path fill="#E0B13D" d="M908.9,781.3c0.9,3.6,1.6,29.8,0.8,63.8h-27.1c-1-32.9,0-56.6,0-61.2c0-0.7-0.5-3.5,0.9-6.5
			c0.7-1.6,1.7-2.7,2.6-3.4c-0.1-9.7,0-11,0-14.1h18.5c0,1.5-0.1,2.4-0.2,4.1s-0.2,4.3-0.2,9.1c0.8,0.7,1.7,1.7,2.6,3
			C906.7,776.2,908.2,778.4,908.9,781.3z"/>
		<path fill="#E0B13D" d="M904.5,759.9H886c0-0.8-0.5-6.4,0.1-8c0.6-1.7,1.6-2.1,2.4-3.9c0.4-0.9,0.8-2.3,0.6-4.3h12.1
			c-0.2,2,0.3,3.4,0.6,4.3c0.8,1.8,1.9,2.2,2.4,3.9C905,753.6,904.5,759.1,904.5,759.9z"/>
	</g>
	<g>
		<path fill="none" stroke="#E0B13D" stroke-width="0.25" stroke-miterlimit="10" d="M886,759.9c0,3.1-0.1,4.4,0,14.1
			c-0.8,0.8-1.9,1.9-2.6,3.4c-1.4,3-0.9,5.8-0.9,6.5c0,4.5-1,28.3,0,61.2h27.1c0.8-34,0-60.2-0.8-63.8c-0.7-2.9-2.2-5.2-2.2-5.2
			c-0.9-1.3-1.8-2.3-2.6-3c0.1-4.8,0.2-7.4,0.2-9.1s0.2-2.6,0.2-4.1c0-0.8,0.5-6.4-0.1-8c-0.6-1.7-1.6-2.1-2.4-3.9
			c-0.4-0.9-0.8-2.3-0.6-4.3h-12.1c0.2,2-0.2,3.4-0.6,4.3c-0.8,1.8-1.8,2.2-2.4,3.9C885.6,753.6,886,759.1,886,759.9z"/>
	</g>
</g>
<path opacity="0.7" fill="#231F20" stroke="#231F20" stroke-width="0.5" stroke-miterlimit="10" d="M902,743.7h-13.8
	c-0.8,0-1.5-0.7-1.5-1.5V739c0-0.8,0.7-1.5,1.5-1.5H902c0.8,0,1.5,0.7,1.5,1.5v3.2C903.5,743,902.8,743.7,902,743.7z"/>
<polyline opacity="0.7" fill="#E8D52F" points="883,794.4 909.2,794.4 909.2,808.3 883,808.3 "/>
<g id="XMLID_29_" opacity="0.7">
	<g>
		<path fill="#E0B13D" d="M939.5,782.3c0.9,3.6,1.6,29.8,0.8,63.8h-27.1c-1-32.9,0-56.6,0-61.2c0-0.7-0.5-3.5,0.9-6.5
			c0.7-1.6,1.7-2.7,2.6-3.4c-0.1-9.7,0-11,0-14.1h18.5c0,1.5-0.1,2.4-0.2,4.1s-0.2,4.3-0.2,9.1c0.8,0.7,1.7,1.7,2.6,3
			C937.3,777.1,938.8,779.4,939.5,782.3z"/>
		<path fill="#E0B13D" d="M935,752.8c0.6,1.7,0.1,7.2,0.1,8h-18.5c0-0.8-0.5-6.4,0.1-8c0.6-1.7,1.6-2.1,2.4-3.9
			c0.4-0.9,0.8-2.3,0.6-4.3h12.1c-0.2,2,0.3,3.4,0.6,4.3C933.4,750.7,934.4,751.1,935,752.8z"/>
	</g>
	<g>
		<path fill="none" stroke="#E0B13D" stroke-width="0.25" stroke-miterlimit="10" d="M916.6,760.9c0,3.1-0.1,4.4,0,14.1
			c-0.8,0.8-1.9,1.9-2.6,3.4c-1.4,3-0.9,5.8-0.9,6.5c0,4.5-1,28.3,0,61.2h27.1c0.8-34,0-60.2-0.8-63.8c-0.7-2.9-2.2-5.2-2.2-5.2
			c-0.9-1.3-1.8-2.3-2.6-3c0.1-4.8,0.2-7.4,0.2-9.1s0.2-2.6,0.2-4.1c0-0.8,0.5-6.4-0.1-8c-0.6-1.7-1.6-2.1-2.4-3.9
			c-0.4-0.9-0.8-2.3-0.6-4.3h-12.1c0.2,2-0.2,3.4-0.6,4.3c-0.8,1.8-1.8,2.2-2.4,3.9C916.2,754.5,916.6,760.1,916.6,760.9z"/>
	</g>
</g>
<path opacity="0.7" fill="#231F20" stroke="#231F20" stroke-width="0.5" stroke-miterlimit="10" d="M932.6,744.6h-13.8
	c-0.8,0-1.5-0.7-1.5-1.5V740c0-0.8,0.7-1.5,1.5-1.5h13.8c0.8,0,1.5,0.7,1.5,1.5v3.2C934.1,744,933.4,744.6,932.6,744.6z"/>
<polyline opacity="0.7" fill="#E8D52F" points="913.6,795.3 939.8,795.3 939.8,809.3 913.6,809.3 "/>
<g id="XMLID_28_" opacity="0.7">
	<g>
		<path fill="#E0B13D" d="M970.8,782.3c0.9,3.6,1.6,29.8,0.8,63.8h-27.1c-1-32.9,0-56.6,0-61.2c0-0.7-0.5-3.5,0.9-6.5
			c0.7-1.6,1.7-2.7,2.6-3.4c-0.1-9.7,0-11,0-14.1h18.5c0,1.5-0.1,2.4-0.2,4.1s-0.2,4.3-0.2,9.1c0.8,0.7,1.7,1.7,2.6,3
			C968.6,777.1,970,779.4,970.8,782.3z"/>
		<path fill="#E0B13D" d="M948,752.8c0.6-1.7,1.6-2.1,2.4-3.9c0.4-0.9,0.8-2.3,0.6-4.3h12.1c-0.2,2,0.3,3.4,0.6,4.3
			c0.8,1.8,1.9,2.2,2.4,3.9c0.6,1.7,0.1,7.2,0.1,8h-18.5C947.9,760.1,947.4,754.5,948,752.8z"/>
	</g>
	<g>
		<path fill="none" stroke="#E0B13D" stroke-width="0.25" stroke-miterlimit="10" d="M947.9,760.9c0,3.1-0.1,4.4,0,14.1
			c-0.8,0.8-1.9,1.9-2.6,3.4c-1.4,3-0.9,5.8-0.9,6.5c0,4.5-1,28.3,0,61.2h27.1c0.8-34,0-60.2-0.8-63.8c-0.7-2.9-2.2-5.2-2.2-5.2
			c-0.9-1.3-1.8-2.3-2.6-3c0.1-4.8,0.2-7.4,0.2-9.1s0.2-2.6,0.2-4.1c0-0.8,0.5-6.4-0.1-8c-0.6-1.7-1.6-2.1-2.4-3.9
			c-0.4-0.9-0.8-2.3-0.6-4.3h-12.1c0.2,2-0.2,3.4-0.6,4.3c-0.8,1.8-1.8,2.2-2.4,3.9C947.4,754.5,947.9,760.1,947.9,760.9z"/>
	</g>
</g>
<path opacity="0.7" fill="#231F20" stroke="#231F20" stroke-width="0.5" stroke-miterlimit="10" d="M963.8,744.6h-13.8
	c-0.8,0-1.5-0.7-1.5-1.5V740c0-0.8,0.7-1.5,1.5-1.5h13.8c0.8,0,1.5,0.7,1.5,1.5v3.2C965.3,744,964.7,744.6,963.8,744.6z"/>
<polyline opacity="0.7" fill="#E8D52F" points="944.9,795.3 971,795.3 971,809.3 944.9,809.3 "/>
<path opacity="0.7" fill="#E8D52F" d="M900.2,809.7c3-0.3,6-0.9,9-0.3c0.6,0.4,1.1,0.4,1.6,0c0.6,0,1.3-0.1,1.9-0.1
	c0.3,0,0.5,0.1,0.8,0.2c0.6,0,1.3,0,1.9,0c0,0,0.4,0.2,0.4,0.2l0.4-0.2c19.2,0.1,38.4,0.2,57.6,0.3c2.7,0,3.2,1.3,3.2,3.7
	c-0.1,10.6-0.1,21.2,0,31.8c0,3-1,3.9-3.9,3.9c-13.2-0.1-26.3-0.1-39.5-0.1c-17.7,0-35.4-0.1-53.1,0.1c-3.3,0-4.6-0.8-4.5-4.3
	c0.2-10.3,0.2-20.6,0-30.9c0-3.2,0.9-4.3,4.2-4.2c5.3,0.2,10.6,0.1,15.9,0.1C897.5,809.7,898.9,809.7,900.2,809.7z M902.1,832.4
	c5.9,0,10.8-0.1,15.6,0c2.6,0.1,4.2-0.3,4.2-3.6c0-3.2-1.5-3.7-4.2-3.6c-9.1,0.1-18.2-0.1-27.3,0.1c-3.5,0.1-4.7-1.1-4.3-4.4
	c0.1-0.7-0.1-1.5,0-2.3c0.2-3-2.1-2.3-3.8-2.6c-2.5-0.5-2.3,1.2-2.3,2.8c0,3.8,0.1,7.6,0,11.4c-0.1,2.5,1.3,3.6,3.4,3
	C890,831.4,896.6,833.1,902.1,832.4z"/>
<path opacity="0.7" fill="#8B293A" d="M910.8,809.4c-0.5,0.4-1.1,0.4-1.6,0C909.7,809.5,910.3,809.4,910.8,809.4z"/>
<path opacity="0.7" fill="#8B293A" d="M916.3,809.4l-0.4,0.2c0,0-0.4-0.2-0.4-0.2C915.8,809.3,916,809.3,916.3,809.4z"/>
<path opacity="0.7" fill="#8B293A" d="M913.6,809.5c-0.3-0.1-0.5-0.1-0.8-0.2C913,809.2,913.3,809.3,913.6,809.5z"/>
<path opacity="0.7" fill="#2E1A24" d="M902.1,832.4c-5.5,0.7-12.1-1-18.7,0.8c-2.1,0.5-3.4-0.6-3.4-3c0.1-3.8,0-7.6,0-11.4
	c0-1.6-0.2-3.2,2.3-2.8c1.7,0.3,3.9-0.4,3.8,2.6c0,0.8,0.1,1.5,0,2.3c-0.4,3.3,0.9,4.5,4.3,4.4c9.1-0.2,18.2,0,27.3-0.1
	c2.7,0,4.2,0.4,4.2,3.6c0,3.3-1.6,3.7-4.2,3.6C912.9,832.3,908,832.4,902.1,832.4z"/>
<g id="XMLID_27_" opacity="0.7">
	<g>
		<path fill="#E0B13D" d="M803.9,781.3c0.9,3.6,1.6,29.8,0.8,63.8h-27.1c-1-32.9,0-56.6,0-61.2c0-0.7-0.5-3.5,0.9-6.5
			c0.7-1.6,1.7-2.7,2.6-3.4c-0.1-9.7,0-11,0-14.1h18.5c0,1.5-0.1,2.4-0.2,4.1s-0.2,4.3-0.2,9.1c0.8,0.7,1.7,1.7,2.6,3
			C801.7,776.1,803.2,778.4,803.9,781.3z"/>
		<path fill="#E0B13D" d="M781.1,751.8c0.6-1.7,1.6-2.1,2.4-3.9c0.4-0.9,0.8-2.3,0.6-4.3h12.1c-0.2,2,0.3,3.4,0.6,4.3
			c0.8,1.8,1.9,2.2,2.4,3.9c0.6,1.7,0.1,7.2,0.1,8H781C781,759.1,780.6,753.5,781.1,751.8z"/>
	</g>
	<g>
		<path fill="none" stroke="#E0B13D" stroke-width="0.25" stroke-miterlimit="10" d="M781,759.9c0,3.1-0.1,4.4,0,14.1
			c-0.8,0.8-1.9,1.9-2.6,3.4c-1.4,3-0.9,5.8-0.9,6.5c0,4.5-1,28.3,0,61.2h27.1c0.8-34,0-60.2-0.8-63.8c-0.7-2.9-2.2-5.2-2.2-5.2
			c-0.9-1.3-1.8-2.3-2.6-3c0.1-4.8,0.2-7.4,0.2-9.1s0.2-2.6,0.2-4.1c0-0.8,0.5-6.4-0.1-8c-0.6-1.7-1.6-2.1-2.4-3.9
			c-0.4-0.9-0.8-2.3-0.6-4.3h-12.1c0.2,2-0.2,3.4-0.6,4.3c-0.8,1.8-1.8,2.2-2.4,3.9C780.6,753.5,781,759.1,781,759.9z"/>
	</g>
</g>
<path opacity="0.7" fill="#231F20" stroke="#231F20" stroke-width="0.5" stroke-miterlimit="10" d="M797,743.6h-13.8
	c-0.8,0-1.5-0.7-1.5-1.5v-3.2c0-0.8,0.7-1.5,1.5-1.5H797c0.8,0,1.5,0.7,1.5,1.5v3.2C798.4,742.9,797.8,743.6,797,743.6z"/>
<polyline opacity="0.7" fill="#E8D52F" points="778,794.3 804.2,794.3 804.2,808.3 778,808.3 "/>
<g id="XMLID_26_" opacity="0.7">
	<g>
		<path fill="#E0B13D" d="M834.5,782.2c0.9,3.6,1.6,29.8,0.8,63.8h-27.1c-1-32.9,0-56.6,0-61.2c0-0.7-0.5-3.5,0.9-6.5
			c0.7-1.6,1.7-2.7,2.6-3.4c-0.1-9.7,0-11,0-14.1h18.5c0,1.5-0.1,2.4-0.2,4.1s-0.2,4.3-0.2,9.1c0.8,0.7,1.7,1.7,2.6,3
			C832.3,777,833.8,779.3,834.5,782.2z"/>
		<path fill="#E0B13D" d="M811.7,752.8c0.6-1.7,1.6-2.1,2.4-3.9c0.4-0.9,0.8-2.3,0.6-4.3h12.1c-0.2,2,0.3,3.4,0.6,4.3
			c0.8,1.8,1.9,2.2,2.4,3.9c0.6,1.7,0.1,7.2,0.1,8h-18.5C811.6,760,811.2,754.4,811.7,752.8z"/>
	</g>
	<g>
		<path fill="none" stroke="#E0B13D" stroke-width="0.25" stroke-miterlimit="10" d="M811.6,760.8c0,3.1-0.1,4.4,0,14.1
			c-0.8,0.8-1.9,1.9-2.6,3.4c-1.4,3-0.9,5.8-0.9,6.5c0,4.5-1,28.3,0,61.2h27.1c0.8-34,0-60.2-0.8-63.8c-0.7-2.9-2.2-5.2-2.2-5.2
			c-0.9-1.3-1.8-2.3-2.6-3c0.1-4.8,0.2-7.4,0.2-9.1s0.2-2.6,0.2-4.1c0-0.8,0.5-6.4-0.1-8c-0.6-1.7-1.6-2.1-2.4-3.9
			c-0.4-0.9-0.8-2.3-0.6-4.3h-12.1c0.2,2-0.2,3.4-0.6,4.3c-0.8,1.8-1.8,2.2-2.4,3.9C811.2,754.4,811.6,760,811.6,760.8z"/>
	</g>
</g>
<path opacity="0.7" fill="#231F20" stroke="#231F20" stroke-width="0.5" stroke-miterlimit="10" d="M827.6,744.6h-13.8
	c-0.8,0-1.5-0.7-1.5-1.5v-3.2c0-0.8,0.7-1.5,1.5-1.5h13.8c0.8,0,1.5,0.7,1.5,1.5v3.2C829,743.9,828.4,744.6,827.6,744.6z"/>
<polyline opacity="0.7" fill="#E8D52F" points="808.6,795.3 834.8,795.3 834.8,809.2 808.6,809.2 "/>
<g id="XMLID_25_" opacity="0.7">
	<g>
		<path fill="#E0B13D" d="M865.7,782.2c0.9,3.6,1.6,29.8,0.8,63.8h-27.1c-1-32.9,0-56.6,0-61.2c0-0.7-0.5-3.5,0.9-6.5
			c0.7-1.6,1.7-2.7,2.6-3.4c-0.1-9.7,0-11,0-14.1h18.5c0,1.5-0.1,2.4-0.2,4.1s-0.2,4.3-0.2,9.1c0.8,0.7,1.7,1.7,2.6,3
			C863.6,777,865,779.3,865.7,782.2z"/>
		<path fill="#E0B13D" d="M861.2,752.8c0.6,1.7,0.1,7.2,0.1,8h-18.5c0-0.8-0.5-6.4,0.1-8c0.6-1.7,1.6-2.1,2.4-3.9
			c0.4-0.9,0.8-2.3,0.6-4.3h12.1c-0.2,2,0.3,3.4,0.6,4.3C859.6,750.7,860.7,751,861.2,752.8z"/>
	</g>
	<g>
		<path fill="none" stroke="#E0B13D" stroke-width="0.25" stroke-miterlimit="10" d="M842.9,760.8c0,3.1-0.1,4.4,0,14.1
			c-0.8,0.8-1.9,1.9-2.6,3.4c-1.4,3-0.9,5.8-0.9,6.5c0,4.5-1,28.3,0,61.2h27.1c0.8-34,0-60.2-0.8-63.8c-0.7-2.9-2.2-5.2-2.2-5.2
			c-0.9-1.3-1.8-2.3-2.6-3c0.1-4.8,0.2-7.4,0.2-9.1s0.2-2.6,0.2-4.1c0-0.8,0.5-6.4-0.1-8c-0.6-1.7-1.6-2.1-2.4-3.9
			c-0.4-0.9-0.8-2.3-0.6-4.3h-12.1c0.2,2-0.2,3.4-0.6,4.3c-0.8,1.8-1.8,2.2-2.4,3.9C842.4,754.4,842.9,760,842.9,760.8z"/>
	</g>
</g>
<path opacity="0.7" fill="#231F20" stroke="#231F20" stroke-width="0.5" stroke-miterlimit="10" d="M858.8,744.6h-13.8
	c-0.8,0-1.5-0.7-1.5-1.5v-3.2c0-0.8,0.7-1.5,1.5-1.5h13.8c0.8,0,1.5,0.7,1.5,1.5v3.2C860.3,743.9,859.7,744.6,858.8,744.6z"/>
<polyline opacity="0.7" fill="#E8D52F" points="839.8,795.3 866,795.3 866,809.2 839.8,809.2 "/>
<path opacity="0.7" fill="#E8D52F" d="M795.2,809.7c3-0.3,6-0.9,9-0.3c0.6,0.4,1.1,0.4,1.6,0c0.6,0,1.3-0.1,1.9-0.1
	c0.3,0,0.5,0.1,0.8,0.2c0.6,0,1.3,0,1.9,0c0,0,0.4,0.2,0.4,0.2l0.4-0.2c19.2,0.1,38.4,0.2,57.6,0.3c2.7,0,3.2,1.3,3.2,3.7
	c-0.1,10.6-0.1,21.2,0,31.8c0,3-1,3.9-3.9,3.9c-13.2-0.1-26.3-0.1-39.5-0.1c-17.7,0-35.4-0.1-53.1,0.1c-3.3,0-4.6-0.8-4.5-4.3
	c0.2-10.3,0.2-20.6,0-30.9c0-3.2,0.9-4.3,4.2-4.2c5.3,0.2,10.6,0.1,15.9,0.1C792.5,809.7,793.8,809.7,795.2,809.7z M797.1,832.3
	c5.9,0,10.8-0.1,15.6,0c2.6,0.1,4.2-0.3,4.2-3.6c0-3.2-1.5-3.7-4.2-3.6c-9.1,0.1-18.2-0.1-27.3,0.1c-3.5,0.1-4.7-1.1-4.3-4.4
	c0.1-0.7-0.1-1.5,0-2.3c0.2-3-2.1-2.3-3.8-2.6c-2.5-0.5-2.3,1.2-2.3,2.8c0,3.8,0.1,7.6,0,11.4c-0.1,2.5,1.3,3.6,3.4,3
	C785,831.4,791.6,833,797.1,832.3z"/>
<path opacity="0.7" fill="#8B293A" d="M805.8,809.4c-0.5,0.4-1.1,0.4-1.6,0C804.7,809.4,805.2,809.4,805.8,809.4z"/>
<path opacity="0.7" fill="#8B293A" d="M811.3,809.3l-0.4,0.2c0,0-0.4-0.2-0.4-0.2C810.7,809.2,811,809.2,811.3,809.3z"/>
<path opacity="0.7" fill="#8B293A" d="M808.5,809.4c-0.3-0.1-0.5-0.1-0.8-0.2C808,809.2,808.3,809.2,808.5,809.4z"/>
<path opacity="0.7" fill="#2E1A24" d="M797.1,832.3c-5.5,0.7-12.1-1-18.7,0.8c-2.1,0.5-3.4-0.6-3.4-3c0.1-3.8,0-7.6,0-11.4
	c0-1.6-0.2-3.2,2.3-2.8c1.7,0.3,3.9-0.4,3.8,2.6c0,0.8,0.1,1.5,0,2.3c-0.4,3.3,0.9,4.5,4.3,4.4c9.1-0.2,18.2,0,27.3-0.1
	c2.7,0,4.2,0.4,4.2,3.6c0,3.3-1.6,3.7-4.2,3.6C807.9,832.3,803,832.3,797.1,832.3z"/>
<path opacity="0.7" fill="#F6EFF0" d="M762,742.5l-97,97c-0.9,0.9-2.4,0.9-3.3,0l0,0c-0.9-0.9-0.9-2.4,0-3.3l97-97
	c0.9-0.9,2.4-0.9,3.3,0l0,0C762.9,740.1,762.9,741.6,762,742.5z"/>
<path opacity="0.7" fill="#F6EFF0" d="M763.9,742.7l-50.6,106.9c-0.6,1.2-2,1.7-3.1,1.1l0,0c-1.2-0.6-1.7-2-1.1-3.1l50.6-106.9
	c0.6-1.2,2-1.7,3.1-1.1l0,0C764,740.1,764.5,741.5,763.9,742.7z"/>
<path opacity="0.7" fill="#EB7332" d="M654.9,848.1h-93.2c-1.5,0-2.8-1.3-2.8-2.8V743.1c0-1.5,1.3-2.8,2.8-2.8h93.2
	c1.5,0,2.8,1.3,2.8,2.8v102.2C657.7,846.8,656.5,848.1,654.9,848.1z"/>
<path opacity="0.7" fill="#F6EFF0" d="M652,742l-96.1,62.9c-1.1,0.7-2.5,0.4-3.3-0.7l0,0c-0.7-1.1-0.4-2.5,0.7-3.3l96.1-62.9
	c1.1-0.7,2.5-0.4,3.3,0.7l0,0C653.4,739.8,653.1,741.3,652,742z"/>
<path opacity="0.7" fill="#F6EFF0" d="M657.5,743.4l-97,97c-0.9,0.9-2.4,0.9-3.3,0l0,0c-0.9-0.9-0.9-2.4,0-3.3l97-97
	c0.9-0.9,2.4-0.9,3.3,0l0,0C658.4,741,658.4,742.5,657.5,743.4z"/>
<path opacity="0.7" fill="#F6EFF0" d="M659.4,743.6l-50.6,106.9c-0.6,1.2-2,1.7-3.1,1.1l0,0c-1.2-0.6-1.7-2-1.1-3.1l50.6-106.9
	c0.6-1.2,2-1.7,3.1-1.1l0,0C659.4,741,659.9,742.4,659.4,743.6z"/>
<path opacity="0.7" fill="#EB7332" d="M552.7,848.1h-93.2c-1.5,0-2.8-1.3-2.8-2.8V743.1c0-1.5,1.3-2.8,2.8-2.8h93.2
	c1.5,0,2.8,1.3,2.8,2.8v102.2C555.5,846.8,554.3,848.1,552.7,848.1z"/>
<path opacity="0.7" fill="#F6EFF0" d="M549.8,742l-96.1,62.9c-1.1,0.7-2.5,0.4-3.3-0.7l0,0c-0.7-1.1-0.4-2.5,0.7-3.3l96.1-62.9
	c1.1-0.7,2.5-0.4,3.3,0.7l0,0C551.2,739.8,550.9,741.3,549.8,742z"/>
<path opacity="0.7" fill="#F6EFF0" d="M555.3,743.4l-97,97c-0.9,0.9-2.4,0.9-3.3,0l0,0c-0.9-0.9-0.9-2.4,0-3.3l97-97
	c0.9-0.9,2.4-0.9,3.3,0l0,0C556.2,741,556.2,742.5,555.3,743.4z"/>
<path opacity="0.7" fill="#F6EFF0" d="M557.2,743.6l-50.6,106.9c-0.6,1.2-2,1.7-3.1,1.1l0,0c-1.2-0.6-1.7-2-1.1-3.1l50.6-106.9
	c0.6-1.2,2-1.7,3.1-1.1h0C557.2,741,557.7,742.4,557.2,743.6z"/>
<path opacity="0.7" fill="#7A8E53" d="M338.2,848.1H245c-1.5,0-2.8-1.3-2.8-2.8V743.1c0-1.5,1.3-2.8,2.8-2.8h93.2
	c1.5,0,2.8,1.3,2.8,2.8v102.2C341,846.8,339.7,848.1,338.2,848.1z"/>
<path opacity="0.7" fill="#F6EFF0" d="M335.2,742l-96.1,62.9c-1.1,0.7-2.5,0.4-3.3-0.7l0,0c-0.7-1.1-0.4-2.5,0.7-3.3l96.1-62.9
	c1.1-0.7,2.5-0.4,3.3,0.7l0,0C336.6,739.8,336.3,741.3,335.2,742z"/>
<path opacity="0.7" fill="#F6EFF0" d="M340.7,743.4l-97,97c-0.9,0.9-2.4,0.9-3.3,0l0,0c-0.9-0.9-0.9-2.4,0-3.3l97-97
	c0.9-0.9,2.4-0.9,3.3,0l0,0C341.6,741,341.6,742.5,340.7,743.4z"/>
<path opacity="0.7" fill="#F6EFF0" d="M342.6,743.6L292,850.5c-0.6,1.2-2,1.7-3.1,1.1l0,0c-1.2-0.6-1.7-2-1.1-3.1l50.6-106.9
	c0.6-1.2,2-1.7,3.1-1.1l0,0C342.6,741,343.2,742.4,342.6,743.6z"/>
<path opacity="0.7" fill="#2E1A24" d="M329.3,794.5h-75.4c-2.2,0-4-1.8-4-4V788c0-2.2,1.8-4,4-4h75.4c2.2,0,4,1.8,4,4v2.5
	C333.3,792.7,331.5,794.5,329.3,794.5z"/>
<path opacity="0.7" fill="#7A8E53" d="M444.7,846.6h-93.2c-1.5,0-2.8-1.3-2.8-2.8V741.6c0-1.5,1.3-2.8,2.8-2.8h93.2
	c1.5,0,2.8,1.3,2.8,2.8v102.2C447.5,845.3,446.3,846.6,444.7,846.6z"/>
<path opacity="0.7" fill="#F6EFF0" d="M441.8,740.5l-96.1,62.9c-1.1,0.7-2.5,0.4-3.3-0.7l0,0c-0.7-1.1-0.4-2.5,0.7-3.3l96.1-62.9
	c1.1-0.7,2.5-0.4,3.3,0.7h0C443.2,738.3,442.9,739.8,441.8,740.5z"/>
<path opacity="0.7" fill="#F6EFF0" d="M447.3,741.9l-97,97c-0.9,0.9-2.4,0.9-3.3,0l0,0c-0.9-0.9-0.9-2.4,0-3.3l97-97
	c0.9-0.9,2.4-0.9,3.3,0l0,0C448.2,739.5,448.2,741,447.3,741.9z"/>
<path opacity="0.7" fill="#F6EFF0" d="M449.2,742.1L398.6,849c-0.6,1.2-2,1.7-3.1,1.1l0,0c-1.2-0.6-1.7-2-1.1-3.1L444.9,740
	c0.6-1.2,2-1.7,3.1-1.1h0C449.2,739.5,449.7,740.9,449.2,742.1z"/>
<path opacity="0.7" fill="#2E1A24" d="M435.9,793h-75.4c-2.2,0-4-1.8-4-4v-2.5c0-2.2,1.8-4,4-4h75.4c2.2,0,4,1.8,4,4v2.5
	C439.9,791.2,438.1,793,435.9,793z"/>
<path opacity="0.7" fill="#7A8E53" d="M232.8,849.4h-93.2c-1.5,0-2.8-1.3-2.8-2.8V744.4c0-1.5,1.3-2.8,2.8-2.8h93.2
	c1.5,0,2.8,1.3,2.8,2.8v102.2C235.6,848.1,234.4,849.4,232.8,849.4z"/>
<path opacity="0.7" fill="#F6EFF0" d="M229.9,743.3l-96.1,62.9c-1.1,0.7-2.5,0.4-3.3-0.7h0c-0.7-1.1-0.4-2.5,0.7-3.3l96.1-62.9
	c1.1-0.7,2.5-0.4,3.3,0.7l0,0C231.3,741.1,231,742.6,229.9,743.3z"/>
<path opacity="0.7" fill="#F6EFF0" d="M235.4,744.7l-97,97c-0.9,0.9-2.4,0.9-3.3,0l0,0c-0.9-0.9-0.9-2.4,0-3.3l97-97
	c0.9-0.9,2.4-0.9,3.3,0l0,0C236.3,742.3,236.3,743.8,235.4,744.7z"/>
<path opacity="0.7" fill="#F6EFF0" d="M237.3,744.9l-50.6,106.9c-0.6,1.2-2,1.7-3.1,1.1l0,0c-1.2-0.6-1.7-2-1.1-3.1L233,742.8
	c0.6-1.2,2-1.7,3.1-1.1l0,0C237.3,742.3,237.8,743.7,237.3,744.9z"/>
<path opacity="0.7" fill="#2E1A24" d="M224,795.7h-75.4c-2.2,0-4-1.8-4-4v-2.5c0-2.2,1.8-4,4-4H224c2.2,0,4,1.8,4,4v2.5
	C228,794,226.2,795.7,224,795.7z"/>
<path opacity="0.7" fill="#2E1A24" d="M543.9,794.5h-75.4c-2.2,0-4-1.8-4-4V788c0-2.2,1.8-4,4-4h75.4c2.2,0,4,1.8,4,4v2.5
	C547.8,792.7,546.1,794.5,543.9,794.5z"/>
<path opacity="0.7" fill="#2E1A24" d="M646.1,794.5h-75.4c-2.2,0-4-1.8-4-4V788c0-2.2,1.8-4,4-4h75.4c2.2,0,4,1.8,4,4v2.5
	C650.1,792.7,648.3,794.5,646.1,794.5z"/>
<path opacity="0.7" fill="#2E1A24" d="M749.6,793.3h-75.4c-2.2,0-4-1.8-4-4v-2.5c0-2.2,1.8-4,4-4h75.4c2.2,0,4,1.8,4,4v2.5
	C753.6,791.5,751.8,793.3,749.6,793.3z"/>
<path opacity="0.7" fill="#8BAAD9" d="M372.9,399.3c0,9.1-0.2,18.2,0.1,27.2c0.1,4.1-1.6,5.4-5.3,5.3c-5.6-0.1-11.2,0-16.8,0.1
	c-2.9,0.1-4.4-0.8-4.4-4.1c0-18.9-0.2-37.8-0.3-56.7c0-1.8-0.1-3.9,1.1-5.2c3.3-3.5,3-7.7,2.9-11.9c-0.1-6.1,0.2-12.2,2.7-17.8
	c1.3-2.8-1.5-4.5-1.3-7.1c0.3-3.3,1.1-4.8,4.5-4.4c1.3,0.1,2.7,0,4.1,0c5.6,0,7.3,2.1,5.4,7.4c-0.5,1.5-0.9,2.7-0.3,4.2
	c2.7,6.9,3.2,14.1,3.1,21.4c0,1.6-0.5,3.5,0.7,4.8c4.2,4.5,3.6,10,3.6,15.4c0,7.1,0,14.2,0,21.3
	C372.8,399.3,372.9,399.3,372.9,399.3z M348.3,395.6C348.3,395.6,348.3,395.6,348.3,395.6c0,2.9,0.1,5.7,0,8.6
	c-0.1,2.1,0.6,3.1,2.8,3c5.3-0.1,10.6,0,15.9-0.1c1.4,0,3.2,0,3-1.9c-0.9-8.1,2.8-16.7-3.1-24.3c-2.7-3.5-5.7-4.7-9.7-3.8
	c-4.2,0.9-8.7,6.5-8.8,10.7C348.2,390.5,348.3,393.1,348.3,395.6z"/>
<path opacity="0.7" d="M348.3,395.6c0-2.6,0-5.1,0-7.7c0.1-4.2,4.6-9.8,8.8-10.7c4.1-0.9,7,0.4,9.7,3.8c5.9,7.6,2.3,16.2,3.1,24.3
	c0.2,1.9-1.6,1.9-3,1.9c-5.3,0-10.6,0-15.9,0.1c-2.2,0-2.9-1-2.8-3C348.3,401.4,348.3,398.5,348.3,395.6
	C348.3,395.6,348.3,395.6,348.3,395.6z"/>
<path opacity="0.7" d="M364.9,331.4h-11.8c-1.1,0-2-0.9-2-2v-2.7c0-1.1,0.9-2,2-2h11.8c1.1,0,2,0.9,2,2v2.7
	C366.9,330.5,366,331.4,364.9,331.4z"/>
<path opacity="0.7" fill="#8BAAD9" d="M344,399.3c0,9.1-0.2,18.2,0.1,27.2c0.1,4.1-1.6,5.4-5.3,5.3c-5.6-0.1-11.2,0-16.8,0.1
	c-2.9,0.1-4.4-0.8-4.4-4.1c0-18.9-0.2-37.8-0.3-56.7c0-1.8-0.1-3.9,1.1-5.2c3.3-3.5,3-7.7,2.9-11.9c-0.1-6.1,0.2-12.2,2.7-17.8
	c1.3-2.8-1.5-4.5-1.3-7.1c0.3-3.3,1.1-4.8,4.5-4.4c1.3,0.1,2.7,0,4.1,0c5.6,0,7.3,2.1,5.4,7.4c-0.5,1.5-0.9,2.7-0.3,4.2
	c2.7,6.9,3.2,14.1,3.1,21.4c0,1.6-0.5,3.5,0.7,4.8c4.2,4.5,3.6,10,3.6,15.4c0,7.1,0,14.2,0,21.3C343.9,399.3,343.9,399.3,344,399.3z
	 M319.3,395.6C319.3,395.6,319.3,395.6,319.3,395.6c0,2.9,0.1,5.7,0,8.6c-0.1,2.1,0.6,3.1,2.8,3c5.3-0.1,10.6,0,15.9-0.1
	c1.4,0,3.2,0,3-1.9c-0.9-8.1,2.8-16.7-3.1-24.3c-2.7-3.5-5.7-4.7-9.7-3.8c-4.2,0.9-8.7,6.5-8.8,10.7
	C319.3,390.5,319.3,393.1,319.3,395.6z"/>
<path opacity="0.7" d="M319.3,395.6c0-2.6,0-5.1,0-7.7c0.1-4.2,4.6-9.8,8.8-10.7c4.1-0.9,7,0.4,9.7,3.8c5.9,7.6,2.3,16.2,3.1,24.3
	c0.2,1.9-1.6,1.9-3,1.9c-5.3,0-10.6,0-15.9,0.1c-2.2,0-2.9-1-2.8-3C319.4,401.4,319.4,398.5,319.3,395.6
	C319.3,395.6,319.3,395.6,319.3,395.6z"/>
<path opacity="0.7" d="M335.9,331.4h-11.8c-1.1,0-2-0.9-2-2v-2.7c0-1.1,0.9-2,2-2h11.8c1.1,0,2,0.9,2,2v2.7
	C338,330.5,337.1,331.4,335.9,331.4z"/>
<path opacity="0.7" fill="#EADA8B" d="M437.9,431.5h-51.3c-2.5,0-4.5-2-4.5-4.5V326.6c0-2.5,2-4.5,4.5-4.5h51.3c2.5,0,4.5,2,4.5,4.5
	v100.5C442.3,429.5,440.3,431.5,437.9,431.5z"/>
<ellipse opacity="0.7" fill="#C78B41" cx="419.9" cy="382" rx="11" ry="24.4"/>
<path opacity="0.7" fill="#EADA8B" d="M504.2,431.5h-51.3c-2.5,0-4.5-2-4.5-4.5V326.6c0-2.5,2-4.5,4.5-4.5h51.3c2.5,0,4.5,2,4.5,4.5
	v100.5C508.6,429.5,506.6,431.5,504.2,431.5z"/>
<ellipse opacity="0.7" fill="#C78B41" cx="486.1" cy="382" rx="11" ry="24.4"/>
<path opacity="0.7" fill="#EADA8B" d="M569.8,432.1h-51.3c-2.5,0-4.5-2-4.5-4.5V327.2c0-2.5,2-4.5,4.5-4.5h51.3c2.5,0,4.5,2,4.5,4.5
	v100.5C574.2,430.1,572.2,432.1,569.8,432.1z"/>
<ellipse opacity="0.7" fill="#C78B41" cx="551.8" cy="382.6" rx="11" ry="24.4"/>
<rect x="24" y="270.9" opacity="0.7" fill="#E6B433" width="215.6" height="24.6"/>
<path opacity="0.7" fill="#7A8E53" d="M63.1,239.5H31.7c-2.5,0-4.5-2-4.5-4.5v-24.4c0-2.5,2-4.5,4.5-4.5h31.4c2.5,0,4.5,2,4.5,4.5
	V235C67.6,237.5,65.6,239.5,63.1,239.5z"/>
<path opacity="0.7" fill="#7A8E53" d="M105.5,239.5H74.1c-2.5,0-4.5-2-4.5-4.5v-24.4c0-2.5,2-4.5,4.5-4.5h31.4c2.5,0,4.5,2,4.5,4.5
	V235C110,237.5,108,239.5,105.5,239.5z"/>
<path opacity="0.7" fill="#7A8E53" d="M147.6,239.5h-31.4c-2.5,0-4.5-2-4.5-4.5v-24.4c0-2.5,2-4.5,4.5-4.5h31.4c2.5,0,4.5,2,4.5,4.5
	V235C152.2,237.5,150.1,239.5,147.6,239.5z"/>
<path opacity="0.7" fill="#7A8E53" d="M189.8,239.5h-31.4c-2.5,0-4.5-2-4.5-4.5v-24.4c0-2.5,2-4.5,4.5-4.5h31.4c2.5,0,4.5,2,4.5,4.5
	V235C194.3,237.5,192.3,239.5,189.8,239.5z"/>
<path opacity="0.7" fill="#7A8E53" d="M232.2,239.5h-31.4c-2.5,0-4.5-2-4.5-4.5v-24.4c0-2.5,2-4.5,4.5-4.5h31.4c2.5,0,4.5,2,4.5,4.5
	V235C236.7,237.5,234.7,239.5,232.2,239.5z"/>
<rect x="24" y="227.2" opacity="0.7" fill="#E6B433" width="215.6" height="24.6"/>
<path opacity="0.7" fill="#7A8E53" d="M282.4,284.2H251c-2.5,0-4.5-2-4.5-4.5v-24.4c0-2.5,2-4.5,4.5-4.5h31.4c2.5,0,4.5,2,4.5,4.5
	v24.4C286.9,282.1,284.9,284.2,282.4,284.2z"/>
<path opacity="0.7" fill="#7A8E53" d="M324.8,284.2h-31.4c-2.5,0-4.5-2-4.5-4.5v-24.4c0-2.5,2-4.5,4.5-4.5h31.4c2.5,0,4.5,2,4.5,4.5
	v24.4C329.3,282.1,327.3,284.2,324.8,284.2z"/>
<path opacity="0.7" fill="#7A8E53" d="M366.9,284.2h-31.4c-2.5,0-4.5-2-4.5-4.5v-24.4c0-2.5,2-4.5,4.5-4.5h31.4c2.5,0,4.5,2,4.5,4.5
	v24.4C371.4,282.1,369.4,284.2,366.9,284.2z"/>
<path opacity="0.7" fill="#7A8E53" d="M409,284.2h-31.4c-2.5,0-4.5-2-4.5-4.5v-24.4c0-2.5,2-4.5,4.5-4.5H409c2.5,0,4.5,2,4.5,4.5
	v24.4C413.5,282.1,411.5,284.2,409,284.2z"/>
<path opacity="0.7" fill="#7A8E53" d="M451.4,284.2H420c-2.5,0-4.5-2-4.5-4.5v-24.4c0-2.5,2-4.5,4.5-4.5h31.4c2.5,0,4.5,2,4.5,4.5
	v24.4C455.9,282.1,453.9,284.2,451.4,284.2z"/>
<rect x="243.3" y="271.9" opacity="0.7" fill="#E6B433" width="215.6" height="24.6"/>
<path opacity="0.7" fill="#7A8E53" d="M282.4,240.5H251c-2.5,0-4.5-2-4.5-4.5v-24.4c0-2.5,2-4.5,4.5-4.5h31.4c2.5,0,4.5,2,4.5,4.5
	V236C286.9,238.5,284.9,240.5,282.4,240.5z"/>
<rect x="243.3" y="228.2" opacity="0.7" fill="#E6B433" width="215.6" height="24.6"/>
<polygon opacity="0.7" fill="#DB3A3B" stroke="#DB3A3B" stroke-miterlimit="10" points="67.8,437.2 37.8,437.2 26.8,409.1 78,409.1 
	"/>
<polygon opacity="0.7" fill="#DB3A3B" stroke="#DB3A3B" stroke-miterlimit="10" points="125.5,437.2 95.6,437.2 84.5,409.1 
	135.7,409.1 "/>
<polygon opacity="0.7" fill="#DB3A3B" stroke="#DB3A3B" stroke-miterlimit="10" points="184.7,437.2 154.8,437.2 143.7,409.1 
	194.9,409.1 "/>
<polygon opacity="0.7" fill="#DB3A3B" stroke="#DB3A3B" stroke-miterlimit="10" points="67.1,404.2 37.1,404.2 26.1,376.1 
	77.3,376.1 "/>
<polygon opacity="0.7" fill="#DB3A3B" stroke="#DB3A3B" stroke-miterlimit="10" points="124.8,404.2 94.9,404.2 83.8,376.1 
	135,376.1 "/>
<path opacity="0.7" fill="#231F20" stroke="#231F20" stroke-width="0.5" stroke-miterlimit="10" d="M770.7,344.9h-17.9
	c-3.1,0-5.6-2.5-5.6-5.6v-5.8c0-3.1,2.5-5.6,5.6-5.6h17.9c3.1,0,5.6,2.5,5.6,5.6v5.8C776.3,342.3,773.8,344.9,770.7,344.9z"/>
<path opacity="0.7" fill="#A03546" d="M779.1,431.5h-34.8c-5.8,0-10.5-4.7-10.5-10.5v-68.3c0-5.8,4.7-10.5,10.5-10.5h34.8
	c5.8,0,10.5,4.7,10.5,10.5V421C789.6,426.8,784.9,431.5,779.1,431.5z"/>
<ellipse opacity="0.7" fill="#EBD765" cx="761.7" cy="370.8" rx="20.6" ry="5.1"/>
<path opacity="0.7" fill="#231F20" stroke="#231F20" stroke-width="0.5" stroke-miterlimit="10" d="M838.2,344h-17.9
	c-3.1,0-5.6-2.5-5.6-5.6v-5.8c0-3.1,2.5-5.6,5.6-5.6h17.9c3.1,0,5.6,2.5,5.6,5.6v5.8C843.8,341.5,841.3,344,838.2,344z"/>
<path opacity="0.7" fill="#A03546" d="M846.6,430.7h-34.8c-5.8,0-10.5-4.7-10.5-10.5v-68.3c0-5.8,4.7-10.5,10.5-10.5h34.8
	c5.8,0,10.5,4.7,10.5,10.5v68.3C857.2,425.9,852.4,430.7,846.6,430.7z"/>
<ellipse opacity="0.7" fill="#EBD765" cx="829.2" cy="369.9" rx="20.6" ry="5.1"/>
<path opacity="0.7" fill="#231F20" stroke="#231F20" stroke-width="0.5" stroke-miterlimit="10" d="M902.8,344h-17.9
	c-3.1,0-5.6-2.5-5.6-5.6v-5.8c0-3.1,2.5-5.6,5.6-5.6h17.9c3.1,0,5.6,2.5,5.6,5.6v5.8C908.4,341.5,905.9,344,902.8,344z"/>
<path opacity="0.7" fill="#A03546" d="M911.2,430.7h-34.8c-5.8,0-10.5-4.7-10.5-10.5v-68.3c0-5.8,4.7-10.5,10.5-10.5h34.8
	c5.8,0,10.5,4.7,10.5,10.5v68.3C921.7,425.9,917,430.7,911.2,430.7z"/>
<ellipse opacity="0.7" fill="#EBD765" cx="893.8" cy="369.9" rx="20.6" ry="5.1"/>
<path opacity="0.7" fill="#C78B41" d="M676.9,288.7h-50.4c-4,0-7.2-3.2-7.2-7.2v-65.2c0-4,3.2-7.2,7.2-7.2h50.4c4,0,7.2,3.2,7.2,7.2
	v65.2C684.2,285.5,680.9,288.7,676.9,288.7z"/>
<path opacity="0.7" fill="#526282" d="M676.9,207.4h-50.5c-3,0-5.4-2.4-5.4-5.4v-6.4c0-3,2.4-5.4,5.4-5.4h50.5c3,0,5.4,2.4,5.4,5.4
	v6.4C682.4,205,680,207.4,676.9,207.4z"/>
<rect x="623.5" y="233.8" opacity="0.7" fill="#526282" width="56.1" height="21.4"/>
<path opacity="0.7" fill="#C78B41" d="M606.6,288.8h-50.4c-4,0-7.2-3.2-7.2-7.2v-65.2c0-4,3.2-7.2,7.2-7.2h50.4c4,0,7.2,3.2,7.2,7.2
	v65.2C613.9,285.6,610.6,288.8,606.6,288.8z"/>
<path opacity="0.7" fill="#526282" d="M606.7,207.4h-50.5c-3,0-5.4-2.4-5.4-5.4v-6.4c0-3,2.4-5.4,5.4-5.4h50.5c3,0,5.4,2.4,5.4,5.4
	v6.4C612.1,205,609.7,207.4,606.7,207.4z"/>
<rect x="553.2" y="233.9" opacity="0.7" fill="#526282" width="56.1" height="21.4"/>
<path opacity="0.7" fill="#C78B41" d="M535,288.7h-50.4c-4,0-7.2-3.2-7.2-7.2v-65.2c0-4,3.2-7.2,7.2-7.2H535c4,0,7.2,3.2,7.2,7.2
	v65.2C542.2,285.5,539,288.7,535,288.7z"/>
<path opacity="0.7" fill="#526282" d="M535,207.4h-50.5c-3,0-5.4-2.4-5.4-5.4v-6.4c0-3,2.4-5.4,5.4-5.4H535c3,0,5.4,2.4,5.4,5.4v6.4
	C540.5,205,538,207.4,535,207.4z"/>
<rect x="481.5" y="233.8" opacity="0.7" fill="#526282" width="56.1" height="21.4"/>
<path opacity="0.7" fill="#C78B41" d="M819,289.8h-50.4c-4,0-7.2-3.2-7.2-7.2v-65.2c0-4,3.2-7.2,7.2-7.2H819c4,0,7.2,3.2,7.2,7.2
	v65.2C826.2,286.6,823,289.8,819,289.8z"/>
<path opacity="0.7" fill="#526282" d="M819,208.5h-50.5c-3,0-5.4-2.4-5.4-5.4v-6.4c0-3,2.4-5.4,5.4-5.4H819c3,0,5.4,2.4,5.4,5.4v6.4
	C824.5,206,822,208.5,819,208.5z"/>
<rect x="765.6" y="234.9" opacity="0.7" fill="#526282" width="56.1" height="21.4"/>
<path opacity="0.7" fill="#EBD765" d="M563.5,113.4h-83.2c-1.6,0-3-1.3-3-3V96.8c0-1.6,1.3-3,3-3h83.2c1.6,0,3,1.3,3,3v13.6
	C566.4,112,565.1,113.4,563.5,113.4z"/>
<path opacity="0.7" fill="#EBD765" d="M563.5,135.4h-83.2c-1.6,0-3-1.3-3-3v-13.6c0-1.6,1.3-3,3-3h83.2c1.6,0,3,1.3,3,3v13.6
	C566.4,134.1,565.1,135.4,563.5,135.4z"/>
<path opacity="0.7" fill="#EBD765" d="M563.5,157.6h-83.2c-1.6,0-3-1.3-3-3v-13.6c0-1.6,1.3-3,3-3h83.2c1.6,0,3,1.3,3,3v13.6
	C566.4,156.3,565.1,157.6,563.5,157.6z"/>
<path opacity="0.7" fill="#EADA8B" d="M636.7,432.1h-51.3c-2.5,0-4.5-2-4.5-4.5V327.2c0-2.5,2-4.5,4.5-4.5h51.3c2.5,0,4.5,2,4.5,4.5
	v100.5C641.1,430.1,639.1,432.1,636.7,432.1z"/>
<ellipse opacity="0.7" fill="#C78B41" cx="618.7" cy="382.6" rx="11" ry="24.4"/>
<polygon opacity="0.7" fill="#DB3A3B" stroke="#DB3A3B" stroke-miterlimit="10" points="241.7,437.2 211.8,437.2 200.7,409.1 
	251.9,409.1 "/>
<polygon opacity="0.7" fill="#DB3A3B" stroke="#DB3A3B" stroke-miterlimit="10" points="299.5,437.2 269.5,437.2 258.5,409.1 
	309.7,409.1 "/>
<path opacity="0.7" fill="#6C96CE" d="M67.1,145.3H35.7c-2.5,0-4.5-2-4.5-4.5v-24.4c0-2.5,2-4.5,4.5-4.5h31.4c2.5,0,4.5,2,4.5,4.5
	v24.4C71.6,143.3,69.5,145.3,67.1,145.3z"/>
<path opacity="0.7" fill="#6C96CE" d="M109.4,145.3H78.1c-2.5,0-4.5-2-4.5-4.5v-24.4c0-2.5,2-4.5,4.5-4.5h31.4c2.5,0,4.5,2,4.5,4.5
	v24.4C114,143.3,111.9,145.3,109.4,145.3z"/>
<path opacity="0.7" fill="#6C96CE" d="M151.6,145.3h-31.4c-2.5,0-4.5-2-4.5-4.5v-24.4c0-2.5,2-4.5,4.5-4.5h31.4c2.5,0,4.5,2,4.5,4.5
	v24.4C156.1,143.3,154.1,145.3,151.6,145.3z"/>
<path opacity="0.7" fill="#6C96CE" d="M193.7,145.3h-31.4c-2.5,0-4.5-2-4.5-4.5v-24.4c0-2.5,2-4.5,4.5-4.5h31.4c2.5,0,4.5,2,4.5,4.5
	v24.4C198.2,143.3,196.2,145.3,193.7,145.3z"/>
<path opacity="0.7" fill="#6C96CE" d="M236.1,145.3h-31.4c-2.5,0-4.5-2-4.5-4.5v-24.4c0-2.5,2-4.5,4.5-4.5h31.4c2.5,0,4.5,2,4.5,4.5
	v24.4C240.6,143.3,238.6,145.3,236.1,145.3z"/>
<rect x="27.9" y="133" opacity="0.7" fill="#FFFFFF" width="215.6" height="24.6"/>
<path opacity="0.7" fill="#6C96CE" d="M67.1,101.7H35.7c-2.5,0-4.5-2-4.5-4.5V72.8c0-2.5,2-4.5,4.5-4.5h31.4c2.5,0,4.5,2,4.5,4.5
	v24.4C71.6,99.6,69.5,101.7,67.1,101.7z"/>
<path opacity="0.7" fill="#6C96CE" d="M109.4,101.7H78.1c-2.5,0-4.5-2-4.5-4.5V72.8c0-2.5,2-4.5,4.5-4.5h31.4c2.5,0,4.5,2,4.5,4.5
	v24.4C114,99.6,111.9,101.7,109.4,101.7z"/>
<path opacity="0.7" fill="#6C96CE" d="M151.6,101.7h-31.4c-2.5,0-4.5-2-4.5-4.5V72.8c0-2.5,2-4.5,4.5-4.5h31.4c2.5,0,4.5,2,4.5,4.5
	v24.4C156.1,99.6,154.1,101.7,151.6,101.7z"/>
<path opacity="0.7" fill="#6C96CE" d="M193.7,101.7h-31.4c-2.5,0-4.5-2-4.5-4.5V72.8c0-2.5,2-4.5,4.5-4.5h31.4c2.5,0,4.5,2,4.5,4.5
	v24.4C198.2,99.6,196.2,101.7,193.7,101.7z"/>
<path opacity="0.7" fill="#6C96CE" d="M236.1,101.7h-31.4c-2.5,0-4.5-2-4.5-4.5V72.8c0-2.5,2-4.5,4.5-4.5h31.4c2.5,0,4.5,2,4.5,4.5
	v24.4C240.6,99.6,238.6,101.7,236.1,101.7z"/>
<rect x="27.9" y="89.4" opacity="0.7" fill="#FFFFFF" width="215.6" height="24.6"/>
<path opacity="0.7" fill="#6C96CE" d="M291.7,143.6h-31.4c-2.5,0-4.5-2-4.5-4.5v-24.4c0-2.5,2-4.5,4.5-4.5h31.4c2.5,0,4.5,2,4.5,4.5
	v24.4C296.2,141.6,294.2,143.6,291.7,143.6z"/>
<path opacity="0.7" fill="#6C96CE" d="M334.1,143.6h-31.4c-2.5,0-4.5-2-4.5-4.5v-24.4c0-2.5,2-4.5,4.5-4.5h31.4c2.5,0,4.5,2,4.5,4.5
	v24.4C338.6,141.6,336.6,143.6,334.1,143.6z"/>
<path opacity="0.7" fill="#6C96CE" d="M376.3,143.6h-31.4c-2.5,0-4.5-2-4.5-4.5v-24.4c0-2.5,2-4.5,4.5-4.5h31.4c2.5,0,4.5,2,4.5,4.5
	v24.4C380.8,141.6,378.7,143.6,376.3,143.6z"/>
<path opacity="0.7" fill="#6C96CE" d="M418.4,143.6H387c-2.5,0-4.5-2-4.5-4.5v-24.4c0-2.5,2-4.5,4.5-4.5h31.4c2.5,0,4.5,2,4.5,4.5
	v24.4C422.9,141.6,420.9,143.6,418.4,143.6z"/>
<path opacity="0.7" fill="#6C96CE" d="M460.8,143.6h-31.4c-2.5,0-4.5-2-4.5-4.5v-24.4c0-2.5,2-4.5,4.5-4.5h31.4c2.5,0,4.5,2,4.5,4.5
	v24.4C465.3,141.6,463.3,143.6,460.8,143.6z"/>
<rect x="252.6" y="131.3" opacity="0.7" fill="#FFFFFF" width="215.6" height="24.6"/>
<path opacity="0.7" fill="#6C96CE" d="M290.6,99.9h-31.4c-2.5,0-4.5-2-4.5-4.5V71.1c0-2.5,2-4.5,4.5-4.5h31.4c2.5,0,4.5,2,4.5,4.5
	v24.4C295.1,97.9,293.1,99.9,290.6,99.9z"/>
<path opacity="0.7" fill="#6C96CE" d="M333,99.9h-31.4c-2.5,0-4.5-2-4.5-4.5V71.1c0-2.5,2-4.5,4.5-4.5H333c2.5,0,4.5,2,4.5,4.5v24.4
	C337.5,97.9,335.5,99.9,333,99.9z"/>
<path opacity="0.7" fill="#6C96CE" d="M375.1,99.9h-31.4c-2.5,0-4.5-2-4.5-4.5V71.1c0-2.5,2-4.5,4.5-4.5h31.4c2.5,0,4.5,2,4.5,4.5
	v24.4C379.6,97.9,377.6,99.9,375.1,99.9z"/>
<path opacity="0.7" fill="#6C96CE" d="M417.2,99.9h-31.4c-2.5,0-4.5-2-4.5-4.5V71.1c0-2.5,2-4.5,4.5-4.5h31.4c2.5,0,4.5,2,4.5,4.5
	v24.4C421.7,97.9,419.7,99.9,417.2,99.9z"/>
<path opacity="0.7" fill="#6C96CE" d="M459.6,99.9h-31.4c-2.5,0-4.5-2-4.5-4.5V71.1c0-2.5,2-4.5,4.5-4.5h31.4c2.5,0,4.5,2,4.5,4.5
	v24.4C464.1,97.9,462.1,99.9,459.6,99.9z"/>
<rect x="251.5" y="87.7" opacity="0.7" fill="#FFFFFF" width="215.6" height="24.6"/>
<ellipse transform="matrix(0.9764 0.2158 -0.2158 0.9764 137.149 -191.1165)" opacity="0.7" fill="#E2E2C6" cx="943.9" cy="532.6" rx="6.5" ry="15.6"/>
<path opacity="0.7" fill="#EBD765" d="M911,573.3h-23c-3.7,0-6.6-3-6.6-6.6v-54.5c0-3.7,3-6.6,6.6-6.6h23c3.7,0,6.6,3,6.6,6.6v54.5
	C917.7,570.3,914.7,573.3,911,573.3z"/>
<path opacity="0.7" fill="#231F20" stroke="#231F20" stroke-width="0.5" stroke-miterlimit="10" d="M903.6,505.5h-9.3
	c-3.2,0-5.8-2.6-5.8-5.8v-2.1c0-3.2,2.6-5.8,5.8-5.8h9.3c3.2,0,5.8,2.6,5.8,5.8v2.1C909.4,502.9,906.8,505.5,903.6,505.5z"/>
<circle opacity="0.7" fill="#231F20" stroke="#231F20" stroke-width="0.25" stroke-miterlimit="10" cx="899.5" cy="538.5" r="12.9"/>
<ellipse transform="matrix(0.9764 0.2158 -0.2158 0.9764 136.0552 -182.465)" opacity="0.7" fill="#E2E2C6" cx="903.7" cy="531.9" rx="6.5" ry="15.6"/>
<path opacity="0.7" fill="#EBD765" d="M870.9,575h-23c-3.7,0-6.6-3-6.6-6.6v-54.5c0-3.7,3-6.6,6.6-6.6h23c3.7,0,6.6,3,6.6,6.6v54.5
	C877.5,572,874.6,575,870.9,575z"/>
<path opacity="0.7" fill="#231F20" stroke="#231F20" stroke-width="0.5" stroke-miterlimit="10" d="M863.5,507.3h-9.3
	c-3.2,0-5.8-2.6-5.8-5.8v-2.1c0-3.2,2.6-5.8,5.8-5.8h9.3c3.2,0,5.8,2.6,5.8,5.8v2.1C869.3,504.6,866.7,507.3,863.5,507.3z"/>
<circle opacity="0.7" fill="#231F20" stroke="#231F20" stroke-width="0.25" stroke-miterlimit="10" cx="859.4" cy="540.2" r="12.9"/>
<ellipse transform="matrix(0.9764 0.2158 -0.2158 0.9764 135.4793 -173.7714)" opacity="0.7" fill="#E2E2C6" cx="863.6" cy="533.6" rx="6.5" ry="15.6"/>
<path opacity="0.7" fill="#EBD765" d="M830.7,574.3h-23c-3.7,0-6.6-3-6.6-6.6v-54.5c0-3.7,3-6.6,6.6-6.6h23c3.7,0,6.6,3,6.6,6.6
	v54.5C837.4,571.4,834.4,574.3,830.7,574.3z"/>
<path opacity="0.7" fill="#231F20" stroke="#231F20" stroke-width="0.5" stroke-miterlimit="10" d="M823.3,506.6H814
	c-3.2,0-5.8-2.6-5.8-5.8v-2.1c0-3.2,2.6-5.8,5.8-5.8h9.3c3.2,0,5.8,2.6,5.8,5.8v2.1C829.1,504,826.5,506.6,823.3,506.6z"/>
<circle opacity="0.7" fill="#231F20" stroke="#231F20" stroke-width="0.25" stroke-miterlimit="10" cx="819.3" cy="539.5" r="12.9"/>
<ellipse transform="matrix(0.9764 0.2158 -0.2158 0.9764 134.3855 -165.1198)" opacity="0.7" fill="#E2E2C6" cx="823.4" cy="532.9" rx="6.5" ry="15.6"/>
<path opacity="0.7" fill="#EBD765" d="M791.6,574.7h-23c-3.7,0-6.6-3-6.6-6.6v-54.5c0-3.7,3-6.6,6.6-6.6h23c3.7,0,6.6,3,6.6,6.6V568
	C798.2,571.7,795.3,574.7,791.6,574.7z"/>
<path opacity="0.7" fill="#231F20" stroke="#231F20" stroke-width="0.5" stroke-miterlimit="10" d="M784.2,506.9h-9.3
	c-3.2,0-5.8-2.6-5.8-5.8V499c0-3.2,2.6-5.8,5.8-5.8h9.3c3.2,0,5.8,2.6,5.8,5.8v2.1C790,504.3,787.4,506.9,784.2,506.9z"/>
<circle opacity="0.7" fill="#231F20" stroke="#231F20" stroke-width="0.25" stroke-miterlimit="10" cx="780.1" cy="539.9" r="12.9"/>
<ellipse transform="matrix(0.9764 0.2158 -0.2158 0.9764 133.537 -156.6645)" opacity="0.7" fill="#E2E2C6" cx="784.3" cy="533.2" rx="6.5" ry="15.6"/>
<path opacity="0.7" fill="#EBD765" d="M751.4,574h-23c-3.7,0-6.6-3-6.6-6.6v-54.5c0-3.7,3-6.6,6.6-6.6h23c3.7,0,6.6,3,6.6,6.6v54.5
	C758.1,571,755.1,574,751.4,574z"/>
<path opacity="0.7" fill="#231F20" stroke="#231F20" stroke-width="0.5" stroke-miterlimit="10" d="M744,506.2h-9.3
	c-3.2,0-5.8-2.6-5.8-5.8v-2.1c0-3.2,2.6-5.8,5.8-5.8h9.3c3.2,0,5.8,2.6,5.8,5.8v2.1C749.8,503.6,747.2,506.2,744,506.2z"/>
<circle opacity="0.7" fill="#231F20" stroke="#231F20" stroke-width="0.25" stroke-miterlimit="10" cx="739.9" cy="539.2" r="12.9"/>
<ellipse transform="matrix(0.9764 0.2158 -0.2158 0.9764 132.4432 -148.0129)" opacity="0.7" fill="#E2E2C6" cx="744.1" cy="532.6" rx="6.5" ry="15.6"/>
<rect x="38.9" y="690.8" opacity="0.7" fill="#C78B41" width="28.1" height="22.1"/>
<rect x="106.3" y="690.8" opacity="0.7" fill="#C78B41" width="28.1" height="22.1"/>
<rect x="64.9" y="706.5" opacity="0.7" fill="#C78B41" width="44.3" height="6.4"/>
<path opacity="0.7" fill="#FFFFFF" d="M103.2,686.6H70.1c-1.7,0-3.1-1.4-3.1-3.1v-23.4c0-1.7,1.4-3.1,3.1-3.1h33.1
	c1.7,0,3.1,1.4,3.1,3.1v23.4C106.3,685.2,104.9,686.6,103.2,686.6z"/>
<path opacity="0.7" fill="#7A8E53" d="M142.6,709.7c0.2-12.8,1.7-30.9,7.6-51.1c4-13.8,6.5-22.2,13.1-29.1
	c11.6-12.1,30.8-14.5,43.4-3.6c8,7,10.8,17.1,15.9,35.8c5.3,19.3,7,36,7.6,47L142.6,709.7z"/>
<rect x="138.5" y="690.8" opacity="0.7" fill="#C78B41" width="28.1" height="22.1"/>
<rect x="205.9" y="690.8" opacity="0.7" fill="#C78B41" width="28.1" height="22.1"/>
<rect x="164.5" y="706.5" opacity="0.7" fill="#C78B41" width="44.3" height="6.4"/>
<path opacity="0.7" fill="#FFFFFF" d="M202.8,686.6h-33.1c-1.7,0-3.1-1.4-3.1-3.1v-23.4c0-1.7,1.4-3.1,3.1-3.1h33.1
	c1.7,0,3.1,1.4,3.1,3.1v23.4C205.9,685.2,204.5,686.6,202.8,686.6z"/>
<path opacity="0.7" fill="#7A8E53" d="M242.2,709.7c0.2-12.8,1.7-30.9,7.6-51.1c4-13.8,6.5-22.2,13.1-29.1
	c11.6-12.1,30.8-14.5,43.4-3.6c8,7,10.8,17.1,15.9,35.8c5.3,19.3,7,36,7.6,47L242.2,709.7z"/>
<rect x="238.1" y="690.8" opacity="0.7" fill="#C78B41" width="28.1" height="22.1"/>
<rect x="305.5" y="690.8" opacity="0.7" fill="#C78B41" width="28.1" height="22.1"/>
<rect x="264.1" y="706.5" opacity="0.7" fill="#C78B41" width="44.3" height="6.4"/>
<path opacity="0.7" fill="#FFFFFF" d="M302.5,686.6h-33.1c-1.7,0-3.1-1.4-3.1-3.1v-23.4c0-1.7,1.4-3.1,3.1-3.1h33.1
	c1.7,0,3.1,1.4,3.1,3.1v23.4C305.5,685.2,304.1,686.6,302.5,686.6z"/>
<path opacity="0.7" fill="#7A8E53" d="M351.4,709.7c0.2-12.8,1.7-30.9,7.6-51.1c4-13.8,6.5-22.2,13.1-29.1
	c11.6-12.1,30.8-14.5,43.4-3.6c8,7,10.8,17.1,15.9,35.8c5.3,19.3,7,36,7.6,47L351.4,709.7z"/>
<rect x="347.2" y="690.8" opacity="0.7" fill="#C78B41" width="28.1" height="22.1"/>
<rect x="414.6" y="690.8" opacity="0.7" fill="#C78B41" width="28.1" height="22.1"/>
<rect x="373.2" y="706.5" opacity="0.7" fill="#C78B41" width="44.3" height="6.4"/>
<path opacity="0.7" fill="#FFFFFF" d="M411.6,686.6h-33.1c-1.7,0-3.1-1.4-3.1-3.1v-23.4c0-1.7,1.4-3.1,3.1-3.1h33.1
	c1.7,0,3.1,1.4,3.1,3.1v23.4C414.6,685.2,413.3,686.6,411.6,686.6z"/>
<path opacity="0.7" fill="#231F20" stroke="#231F20" stroke-width="0.5" stroke-miterlimit="10" d="M1122.5,203.3h-35.7
	c-2,0-3.6-1.6-3.6-3.6v-11.4c0-2,1.6-3.6,3.6-3.6h35.7c2,0,3.6,1.6,3.6,3.6v11.4C1126.1,201.7,1124.5,203.3,1122.5,203.3z"/>
<polygon opacity="0.7" fill="#6C5F63" stroke="#6C5F63" stroke-width="0.5" stroke-miterlimit="10" points="1065.2,203.3 
	1145.4,203.3 1159.3,290 1053,290 "/>
<path opacity="0.7" fill="#231F20" stroke="#231F20" stroke-width="0.5" stroke-miterlimit="10" d="M1006.5,203.3h-35.7
	c-2,0-3.6-1.6-3.6-3.6v-11.4c0-2,1.6-3.6,3.6-3.6h35.7c2,0,3.6,1.6,3.6,3.6v11.4C1010.1,201.7,1008.5,203.3,1006.5,203.3z"/>
<polygon opacity="0.7" fill="#6C5F63" stroke="#6C5F63" stroke-width="0.5" stroke-miterlimit="10" points="949.3,203.3 
	1029.4,203.3 1043.4,290 937,290 "/>
<path fill="#231F20" stroke="#231F20" stroke-width="0.5" stroke-miterlimit="10" d="M683.7,349.4l-16.7,6.6
	c-2.9,1.2-6.2-0.3-7.3-3.1l-2.1-5.4c-1.2-2.9,0.3-6.2,3.1-7.3l16.7-6.6c2.9-1.2,6.2,0.3,7.3,3.1l2.1,5.4
	C688,345,686.6,348.3,683.7,349.4z"/>
<path fill="#A03546" d="M723.6,426.8l-32.3,12.9c-5.4,2.2-11.5-0.5-13.7-5.9l-25.3-63.5c-2.2-5.4,0.5-11.5,5.9-13.7l32.3-12.9
	c5.4-2.2,11.5,0.5,13.7,5.9l25.3,63.5C731.6,418.5,729,424.7,723.6,426.8z"/>
<ellipse transform="matrix(0.9291 -0.3699 0.3699 0.9291 -90.8074 280.0748)" fill="#EBD765" cx="685" cy="376.8" rx="20.6" ry="5.1"/>
<path fill="#8BAAD9" d="M499.8,710.2c0,9.1-0.2,18.2,0.1,27.2c0.1,4.1-1.6,5.4-5.3,5.3c-5.6-0.1-11.2,0-16.8,0.1
	c-2.9,0.1-4.4-0.8-4.4-4.1c0-18.9-0.2-37.8-0.3-56.7c0-1.8-0.1-3.9,1.1-5.2c3.3-3.5,3-7.7,2.9-11.9c-0.1-6.1,0.2-12.2,2.7-17.8
	c1.3-2.8-1.5-4.5-1.3-7.1c0.3-3.3,1.1-4.8,4.5-4.4c1.3,0.1,2.7,0,4.1,0c5.6,0,7.3,2.1,5.4,7.4c-0.5,1.5-0.9,2.7-0.3,4.2
	c2.7,6.9,3.2,14.1,3.1,21.4c0,1.6-0.5,3.5,0.7,4.8c4.2,4.5,3.6,10,3.6,15.4c0,7.1,0,14.2,0,21.3
	C499.6,710.2,499.7,710.2,499.8,710.2z M475.1,706.6C475.1,706.6,475.1,706.6,475.1,706.6c0,2.9,0.1,5.7,0,8.6
	c-0.1,2.1,0.6,3.1,2.8,3c5.3-0.1,10.6,0,15.9-0.1c1.4,0,3.2,0,3-1.9c-0.9-8.1,2.8-16.7-3.1-24.3c-2.7-3.5-5.7-4.7-9.7-3.8
	c-4.2,0.9-8.7,6.5-8.8,10.7C475.1,701.4,475.1,704,475.1,706.6z"/>
<path d="M475.1,706.6c0-2.6,0-5.1,0-7.7c0.1-4.2,4.6-9.8,8.8-10.7c4.1-0.9,7,0.4,9.7,3.8c5.9,7.6,2.3,16.2,3.1,24.3
	c0.2,1.9-1.6,1.9-3,1.9c-5.3,0-10.6,0-15.9,0.1c-2.2,0-2.9-1-2.8-3C475.2,712.3,475.1,709.4,475.1,706.6
	C475.1,706.6,475.1,706.6,475.1,706.6z"/>
<path d="M491.7,642.3h-11.8c-1.1,0-2-0.9-2-2v-2.7c0-1.1,0.9-2,2-2h11.8c1.1,0,2,0.9,2,2v2.7C493.7,641.4,492.8,642.3,491.7,642.3z"
	/>
<path fill="#7A8E53" d="M464,739.5h-56.5c-4,0-7.3-3.3-7.3-7.3v-60.7c0-4,3.3-7.3,7.3-7.3H464c4,0,7.3,3.3,7.3,7.3v60.7
	C471.3,736.2,468,739.5,464,739.5z"/>
<line fill="#F6EFF0" stroke="#F6EFF0" stroke-miterlimit="10" x1="400.2" y1="671.5" x2="471.3" y2="671.5"/>
<g>
	<g id="XMLID_24_">
		<g>
			<path fill="#8C6C3E" d="M329.1,665.7c0.9,3.6,1.6,29.8,0.8,63.8h-27.1c-1-32.9,0-56.6,0-61.2c0-0.7-0.5-3.5,0.9-6.5
				c0.7-1.6,1.7-2.7,2.6-3.4c-0.1-9.7,0-11,0-14.1h18.5c0,1.5-0.1,2.4-0.2,4.1s-0.2,4.3-0.2,9.1c0.8,0.7,1.7,1.7,2.6,3
				C326.9,660.6,328.4,662.8,329.1,665.7z"/>
			<path fill="#8C6C3E" d="M324.6,636.3c0.6,1.7,0.1,7.2,0.1,8h-18.5c0-0.8-0.5-6.4,0.1-8c0.6-1.7,1.6-2.1,2.4-3.9
				c0.4-0.9,0.8-2.3,0.6-4.3h12.1c-0.2,2,0.3,3.4,0.6,4.3C323,634.2,324,634.5,324.6,636.3z"/>
		</g>
		<g>
			<path fill="none" stroke="#8C6C3E" stroke-width="0.25" stroke-miterlimit="10" d="M306.2,644.3c0,3.1-0.1,4.4,0,14.1
				c-0.8,0.8-1.9,1.9-2.6,3.4c-1.4,3-0.9,5.8-0.9,6.5c0,4.5-1,28.3,0,61.2h27.1c0.8-34,0-60.2-0.8-63.8c-0.7-2.9-2.2-5.2-2.2-5.2
				c-0.9-1.3-1.8-2.3-2.6-3c0.1-4.8,0.2-7.4,0.2-9.1s0.2-2.6,0.2-4.1c0-0.8,0.5-6.4-0.1-8c-0.6-1.7-1.6-2.1-2.4-3.9
				c-0.4-0.9-0.8-2.3-0.6-4.3h-12.1c0.2,2-0.2,3.4-0.6,4.3c-0.8,1.8-1.8,2.2-2.4,3.9C305.8,638,306.2,643.5,306.2,644.3z"/>
		</g>
	</g>
	<path fill="#231F20" stroke="#231F20" stroke-width="0.5" stroke-miterlimit="10" d="M322.2,628.1h-13.8c-0.8,0-1.5-0.7-1.5-1.5
		v-3.2c0-0.8,0.7-1.5,1.5-1.5h13.8c0.8,0,1.5,0.7,1.5,1.5v3.2C323.7,627.4,323,628.1,322.2,628.1z"/>
	<polyline fill="#E8D52F" points="303.2,678.8 329.4,678.8 329.4,692.7 303.2,692.7 	"/>
	<g id="XMLID_23_">
		<g>
			<path fill="#8C6C3E" d="M359.7,666.7c0.9,3.6,1.6,29.8,0.8,63.8h-27.1c-1-32.9,0-56.6,0-61.2c0-0.7-0.5-3.5,0.9-6.5
				c0.7-1.6,1.7-2.7,2.6-3.4c-0.1-9.7,0-11,0-14.1h18.5c0,1.5-0.1,2.4-0.2,4.1s-0.2,4.3-0.2,9.1c0.8,0.7,1.7,1.7,2.6,3
				C357.5,661.5,359,663.8,359.7,666.7z"/>
			<path fill="#8C6C3E" d="M336.9,637.2c0.6-1.7,1.6-2.1,2.4-3.9c0.4-0.9,0.8-2.3,0.6-4.3h12.1c-0.2,2,0.3,3.4,0.6,4.3
				c0.8,1.8,1.9,2.2,2.4,3.9c0.6,1.7,0.1,7.2,0.1,8h-18.5C336.8,644.5,336.4,638.9,336.9,637.2z"/>
		</g>
		<g>
			<path fill="none" stroke="#8C6C3E" stroke-width="0.25" stroke-miterlimit="10" d="M336.8,645.3c0,3.1-0.1,4.4,0,14.1
				c-0.8,0.8-1.9,1.9-2.6,3.4c-1.4,3-0.9,5.8-0.9,6.5c0,4.5-1,28.3,0,61.2h27.1c0.8-34,0-60.2-0.8-63.8c-0.7-2.9-2.2-5.2-2.2-5.2
				c-0.9-1.3-1.8-2.3-2.6-3c0.1-4.8,0.2-7.4,0.2-9.1s0.2-2.6,0.2-4.1c0-0.8,0.5-6.4-0.1-8c-0.6-1.7-1.6-2.1-2.4-3.9
				c-0.4-0.9-0.8-2.3-0.6-4.3H340c0.2,2-0.2,3.4-0.6,4.3c-0.8,1.8-1.8,2.2-2.4,3.9C336.4,638.9,336.8,644.5,336.8,645.3z"/>
		</g>
	</g>
	<path fill="#231F20" stroke="#231F20" stroke-width="0.5" stroke-miterlimit="10" d="M352.8,629H339c-0.8,0-1.5-0.7-1.5-1.5v-3.2
		c0-0.8,0.7-1.5,1.5-1.5h13.8c0.8,0,1.5,0.7,1.5,1.5v3.2C354.3,628.4,353.6,629,352.8,629z"/>
	<polyline fill="#E8D52F" points="333.8,679.7 360,679.7 360,693.7 333.8,693.7 	"/>
	<g id="XMLID_22_">
		<g>
			<path fill="#8C6C3E" d="M391,666.7c0.9,3.6,1.6,29.8,0.8,63.8h-27.1c-1-32.9,0-56.6,0-61.2c0-0.7-0.5-3.5,0.9-6.5
				c0.7-1.6,1.7-2.7,2.6-3.4c-0.1-9.7,0-11,0-14.1h18.5c0,1.5-0.1,2.4-0.2,4.1s-0.2,4.3-0.2,9.1c0.8,0.7,1.7,1.7,2.6,3
				C388.8,661.5,390.3,663.8,391,666.7z"/>
			<path fill="#8C6C3E" d="M386.5,637.2c0.6,1.7,0.1,7.2,0.1,8h-18.5c0-0.8-0.5-6.4,0.1-8c0.6-1.7,1.6-2.1,2.4-3.9
				c0.4-0.9,0.8-2.3,0.6-4.3h12.1c-0.2,2,0.3,3.4,0.6,4.3C384.8,635.1,385.9,635.5,386.5,637.2z"/>
		</g>
		<g>
			<path fill="none" stroke="#8C6C3E" stroke-width="0.25" stroke-miterlimit="10" d="M368.1,645.3c0,3.1-0.1,4.4,0,14.1
				c-0.8,0.8-1.9,1.9-2.6,3.4c-1.4,3-0.9,5.8-0.9,6.5c0,4.5-1,28.3,0,61.2h27.1c0.8-34,0-60.2-0.8-63.8c-0.7-2.9-2.2-5.2-2.2-5.2
				c-0.9-1.3-1.8-2.3-2.6-3c0.1-4.8,0.2-7.4,0.2-9.1s0.2-2.6,0.2-4.1c0-0.8,0.5-6.4-0.1-8c-0.6-1.7-1.6-2.1-2.4-3.9
				c-0.4-0.9-0.8-2.3-0.6-4.3h-12.1c0.2,2-0.2,3.4-0.6,4.3c-0.8,1.8-1.8,2.2-2.4,3.9C367.6,638.9,368.1,644.5,368.1,645.3z"/>
		</g>
	</g>
	<path fill="#231F20" stroke="#231F20" stroke-width="0.5" stroke-miterlimit="10" d="M384.1,629h-13.8c-0.8,0-1.5-0.7-1.5-1.5v-3.2
		c0-0.8,0.7-1.5,1.5-1.5h13.8c0.8,0,1.5,0.7,1.5,1.5v3.2C385.5,628.4,384.9,629,384.1,629z"/>
	<polyline fill="#E8D52F" points="365.1,679.7 391.2,679.7 391.2,693.7 365.1,693.7 	"/>
	<path fill="#A03546" d="M320.4,694.1c3-0.3,6-0.9,9-0.3c0.6,0.4,1.1,0.4,1.6,0c0.6,0,1.3-0.1,1.9-0.1c0.3,0,0.5,0.1,0.8,0.2
		c0.6,0,1.3,0,1.9,0c0,0,0.4,0.2,0.4,0.2l0.4-0.2c19.2,0.1,38.4,0.2,57.6,0.3c2.7,0,3.2,1.3,3.2,3.7c-0.1,10.6-0.1,21.2,0,31.8
		c0,3-1,3.9-3.9,3.9c-13.2-0.1-26.3-0.1-39.5-0.1c-17.7,0-35.4-0.1-53.1,0.1c-3.3,0-4.6-0.8-4.5-4.3c0.2-10.3,0.2-20.6,0-30.9
		c0-3.2,0.9-4.3,4.2-4.2c5.3,0.2,10.6,0.1,15.9,0.1C317.7,694.2,319.1,694.1,320.4,694.1z M322.3,716.8c5.9,0,10.8-0.1,15.6,0
		c2.6,0.1,4.2-0.3,4.2-3.6c0-3.2-1.5-3.7-4.2-3.6c-9.1,0.1-18.2-0.1-27.3,0.1c-3.5,0.1-4.7-1.1-4.3-4.4c0.1-0.7-0.1-1.5,0-2.3
		c0.2-3-2.1-2.3-3.8-2.6c-2.5-0.5-2.3,1.2-2.3,2.8c0,3.8,0.1,7.6,0,11.4c-0.1,2.5,1.3,3.6,3.4,3
		C310.2,715.8,316.8,717.5,322.3,716.8z"/>
	<path fill="#8B293A" d="M331,693.8c-0.5,0.4-1.1,0.4-1.6,0C329.9,693.9,330.5,693.8,331,693.8z"/>
	<path fill="#8B293A" d="M336.5,693.8l-0.4,0.2c0,0-0.4-0.2-0.4-0.2C336,693.7,336.2,693.7,336.5,693.8z"/>
	<path fill="#8B293A" d="M333.8,693.9c-0.3-0.1-0.5-0.1-0.8-0.2C333.2,693.6,333.5,693.7,333.8,693.9z"/>
	<path fill="#2E1A24" d="M322.3,716.8c-5.5,0.7-12.1-1-18.7,0.8c-2.1,0.5-3.4-0.6-3.4-3c0.1-3.8,0-7.6,0-11.4c0-1.6-0.2-3.2,2.3-2.8
		c1.7,0.3,3.9-0.4,3.8,2.6c0,0.8,0.1,1.5,0,2.3c-0.4,3.3,0.9,4.5,4.3,4.4c9.1-0.2,18.2,0,27.3-0.1c2.7,0,4.2,0.4,4.2,3.6
		c0,3.3-1.6,3.7-4.2,3.6C333.1,716.7,328.2,716.8,322.3,716.8z"/>
</g>
<g>
	<g>
		<path fill="#EC8751" d="M849.6,314.2c0,0-12.5,15-12.6,18c-8,9.8-23.3,31.2-26.1,34.9c-4.9,5.2-12.7,15.3-15.5,18.4l-0.3,0.6
			c-24.1,26.7-53.2,50.7-79.8,75.2l-0.8,0.6c-7.6,2.8-14.8,3.9-17.1,0.2c-4.2-6.9,8.7-17.3,15-23.5c12-12.1,25.4-23.4,36.7-36
			c10.5-11.7,20-19.9,30.3-31.7c3-3.4,8.1-9.3,9.2-12.8c3.6-5.7,35.2-46.8,36.9-48.9C831.8,285.2,849.6,314.2,849.6,314.2z"/>
		<path fill="#8BAAD8" d="M890.9,501.9l-81.6,19.4c-1-4.9-7-14.2-8.2-19.2c-3.3-8.2,0.6-11.6-0.6-20.4l1.5-16.2l-0.3-24
			c-0.5-5.9-12.3-70.8-12.3-70.8c-0.1-2.5-27.3-29.4-11.2-50.5l7.4-16.5c9.2-10.8-0.8-34.8,8.4-38.5c9.7,0,19.4-3.8,29.1-10.1
			c2.9,0,5.8,0.1,8.6,0.2C839.9,259.8,890.9,501.9,890.9,501.9z"/>
		<path fill="#EB8B56" d="M838.3,258.1c-7.2-12.5-21.4-25.6-21.6-41.2c-20.4,6.1-16.9,25.9-31.7,37
			C803,282.2,812.5,287.5,838.3,258.1z"/>
		<polygon fill="#173351" points="847.3,267.8 850.7,264.2 842.4,260.2 831.9,268.8 		"/>
		<path fill="#EE8E59" stroke="#EE8E59" stroke-miterlimit="10" d="M844,618c19.5,59.9,0.4,125.8,0,185.9c-0.2,32.1-5.3,64-6.3,94.4
			l-13.1,0.4c-1.2-31.4-3-60.9-4.6-93.1c-2.7-56.4-3.4-120.5-7-174.7"/>
		<path fill="#EE8E59" stroke="#EE8E59" stroke-miterlimit="10" d="M760.5,792.1c0,35.3-4.5,83.4,6.1,104.1l-25,2.9
			c6.7-16.7-14.8-113.6-1.3-140.8"/>
		<path fill="#272C3A" d="M706.1,905.2c1.2,15.2,47.1,8.9,56.8,6.9c7.7-1.6,12.4-2.8,10.3-12.4c-3-14-7.7-18.5-22-15.7
			C742.4,885.7,702.7,896.1,706.1,905.2z"/>
		<path fill="#D2AF71" d="M892.1,494c1.1-8-7.9-33.8-11.6-34.3l-80.2,12c-3.3-0.4,1.4,26.7,0,33.6l3.9,20c-0.2,1.1-2.9,40.2-3,41.3
			c-4.4,49.2-1.1,36-4.9,60.4c-1.6,9.9,12.7,230.8,18.2,236.4c9.9,10,25.1,5.6,37.9,5.6c8.7,0,6.5-206.7,6.7-209.5
			c16.3-98.9,3-30.1,13.7-92.3C878.9,543.7,891.7,518.7,892.1,494z"/>
		<path fill="#EB8B56" d="M752,231.2c1.9,2.3,14,13.3,21.6,12.2c7.1-1,12.7,21,20.3,19.4c9-1.9,19.4-39,22.7-38.3
			c4.1-11.9-16.2-36.1-17.2-51.6c-0.4-6.2-15.2-18.7-19.8-23c-0.1,5.4-29.3,10.6-35.8,11.9C736,169.7,748.5,226.8,752,231.2z"/>
		<path fill="#EC905C" d="M752.8,194.6c-2.7,9-5.3,18-8,27"/>
		<path fill="#EB8D59" d="M747.2,196.5c-22.2,8.8,7.6,9.9,4.4,14.8c11.4-0.4,9,9.7,14.1,17.4c3.1,4.5,3.6,10.3,12.3,10
			c32.7-1.4,33.2-8.7,22.7-44.7c-3.5-11.9-15-17.1-27.4-18.3c-2.6-0.2-5.3-3.5-8-5.2C767.5,185,761.9,196,747.2,196.5z"/>
		<path fill="#1D2434" d="M789.8,290.8c27.4,18.3,3.4-0.6,38.9-7c11.8-10.1,16.2,7.8,31.6-8.1c-0.3-8.9-15.2-38-16.6-47.1
			c-6.3-41.1-8.8-73.1-37.9-90c-41.1-23.9-82.4,35.4-58.7,29.7c15.8-3.8,19,6.9,24.6,22.3c7.1,19.4,20.6,27.7,15.9,42.7
			C783.2,247.7,776.2,283,789.8,290.8z"/>
		<path fill="#272C3A" d="M788,905.2c1.2,15.2,47.1,8.9,56.8,6.9c7.7-1.6,12.4-2.8,10.3-12.4c-3-14-7.7-18.5-22-15.7
			C824.4,885.7,784.6,896.1,788,905.2z"/>
		<path fill="#173351" d="M789.8,290.8"/>
		<path fill="#D2AF71" d="M881.4,507.9c3.9-7,5.2-34.4,1.9-36.1l-82.7,10c-2.9-1.6,2.7,0.7-1.2,6.6l-11.3,16
			c-0.6,0.9-17.6,36.3-18.1,37.3c-22.4,44.1-24.1,68.5-36.7,89.7c-5.9,9.8-8.2,49.5-3.4,56.2c2,2.8,2.3,185.5,7.9,185.8
			c6.4,0.3,22.1-1.8,29.3-2.5c7.2-0.6,23.2-188.9,24.6-192.8c4-11.5-1.2,2.6,0,0c51.8-85.8,11.5-55.5,44.4-109.2
			C850.8,549.1,872,530.6,881.4,507.9z"/>
		<path fill="#E28956" d="M843.3,328.2L824,377.5c-0.8,4.6-13,12.5-18,14.5l-68.8,31.8c-5.9,0.5-13.2-5.5-13.5-11.4l1.5-3.3
			c-0.2-4.8,7.5-5,12.1-6.2l55.7-27.8c4.4-2.1,13.1-6,15.2-10.9l15-43.6"/>
		<path fill="#8BAAD8" d="M847,341.8c2.5-4.2,4.6-8.6,6.1-13.2c7.1-21.3,2.7-42-9.9-46.2s-28.6,9.6-35.7,30.9
			c-1.5,4.6-2.6,9.3-3.1,14.2L847,341.8z"/>
		<path fill="#E28956" d="M735,404.3c-11.5-1.8-34.8-2.3-27,5.6c-6.4,2.3-20.5,3.6-18,10.4c5.4,16.9,16.9,13.9,31.3,11.3
			c5.7-1,19.4-5.8,22.3-11.5C747.9,411.7,737.1,410.1,735,404.3z"/>
	</g>
</g>
<polygon fill="none" stroke="#A6A6A7" stroke-linecap="round" stroke-linejoin="round" stroke-miterlimit="10" points="209.1,537.4 
	209.1,733.5 641.4,752.6 709.9,474.6 "/>
<line fill="none" stroke="#A6A6A7" stroke-width="0.5" stroke-miterlimit="10" x1="209.1" y1="574.4" x2="691.1" y2="550.9"/>
<line fill="none" stroke="#A6A6A7" stroke-width="0.5" stroke-miterlimit="10" x1="209.1" y1="630.7" x2="674.5" y2="618.5"/>
<line fill="none" stroke="#A6A6A7" stroke-width="0.5" stroke-miterlimit="10" x1="209.1" y1="688.1" x2="656.7" y2="688.1"/>
<line fill="none" stroke="#A6A6A7" stroke-width="0.5" stroke-miterlimit="10" x1="223.2" y1="535.6" x2="223.2" y2="734.2"/>
<line fill="none" stroke="#A6A6A7" stroke-width="0.5" stroke-miterlimit="10" x1="240.9" y1="533.4" x2="240.9" y2="735"/>
<line fill="none" stroke="#A6A6A7" stroke-width="0.5" stroke-miterlimit="10" x1="256.5" y1="531.5" x2="256.5" y2="734.2"/>
<line fill="none" stroke="#A6A6A7" stroke-width="0.5" stroke-miterlimit="10" x1="270.8" y1="529.7" x2="270.8" y2="736.7"/>
<line fill="none" stroke="#A6A6A7" stroke-width="0.5" stroke-miterlimit="10" x1="286.4" y1="529.7" x2="286.4" y2="737.6"/>
<line fill="none" stroke="#A6A6A7" stroke-width="0.5" stroke-miterlimit="10" x1="302" y1="737.6" x2="302" y2="525.2"/>
<line fill="none" stroke="#A6A6A7" stroke-width="0.5" stroke-miterlimit="10" x1="318.7" y1="737.6" x2="318.7" y2="523.5"/>
<line fill="none" stroke="#A6A6A7" stroke-width="0.5" stroke-miterlimit="10" x1="336.6" y1="521.4" x2="336.6" y2="739.7"/>
<line fill="none" stroke="#A6A6A7" stroke-width="0.5" stroke-miterlimit="10" x1="357.1" y1="740.1" x2="357.1" y2="518.8"/>
<line fill="none" stroke="#A6A6A7" stroke-width="0.5" stroke-miterlimit="10" x1="372.6" y1="516.9" x2="372.6" y2="741.3"/>
<line fill="none" stroke="#A6A6A7" stroke-width="0.5" stroke-miterlimit="10" x1="391.7" y1="514.5" x2="391.7" y2="741.7"/>
<line fill="none" stroke="#A6A6A7" stroke-width="0.5" stroke-miterlimit="10" x1="406.1" y1="742.2" x2="406.1" y2="513.1"/>
<line fill="none" stroke="#A6A6A7" stroke-width="0.5" stroke-miterlimit="10" x1="421.6" y1="510.7" x2="421.6" y2="743.4"/>
<line fill="none" stroke="#A6A6A7" stroke-width="0.5" stroke-miterlimit="10" x1="438.4" y1="510.7" x2="438.4" y2="744.2"/>
<line fill="none" stroke="#A6A6A7" stroke-width="0.5" stroke-miterlimit="10" x1="455.5" y1="506.5" x2="455.5" y2="745.2"/>
<line fill="none" stroke="#A6A6A7" stroke-width="0.5" stroke-miterlimit="10" x1="470.7" y1="506.5" x2="470.7" y2="745.2"/>
<line fill="none" stroke="#A6A6A7" stroke-width="0.5" stroke-miterlimit="10" x1="491" y1="502" x2="491" y2="745.7"/>
<line fill="none" stroke="#A6A6A7" stroke-width="0.5" stroke-miterlimit="10" x1="507.8" y1="502" x2="507.8" y2="747.3"/>
<line fill="none" stroke="#A6A6A7" stroke-width="0.5" stroke-miterlimit="10" x1="527.1" y1="497.5" x2="527.1" y2="744.2"/>
<line fill="none" stroke="#A6A6A7" stroke-width="0.5" stroke-miterlimit="10" x1="688.5" y1="477.3" x2="622.7" y2="752.6"/>
<line fill="none" stroke="#A6A6A7" stroke-width="0.5" stroke-miterlimit="10" x1="663.3" y1="480.4" x2="607.1" y2="751.1"/>
<line fill="none" stroke="#A6A6A7" stroke-width="0.5" stroke-miterlimit="10" x1="635.2" y1="483.9" x2="590.4" y2="750.3"/>
<line fill="none" stroke="#A6A6A7" stroke-width="0.5" stroke-miterlimit="10" x1="604.7" y1="487.8" x2="572.4" y2="749.5"/>
<line fill="none" stroke="#A6A6A7" stroke-width="0.5" stroke-miterlimit="10" x1="579.5" y1="490.9" x2="558.1" y2="747.3"/>
<line fill="none" stroke="#A6A6A7" stroke-width="0.5" stroke-miterlimit="10" x1="553.4" y1="494.2" x2="542.5" y2="745.7"/>
<polyline fill="none" stroke="#A6A6A7" stroke-width="2" stroke-linecap="round" stroke-linejoin="round" stroke-miterlimit="10" points="
	406.1,752.6 640,762.9 656.7,807.9 655.6,864.2 240.9,864.2 "/>
<path fill="none" stroke="#A6A6A7" stroke-width="2" stroke-linecap="round" stroke-linejoin="round" stroke-miterlimit="10" d="
	M640,762.8l74.7-305.5c1.1,0.1,20.5-0.9,23.3-2.8c3.5-2.3,5.4-7.3,4.6-9.5c-2.4-6.4-25.1,3.2-65.8,11.2L491,756.3"/>
<path stroke="#000000" stroke-miterlimit="10" d="M264.4,889.1c3,4.7,4.7,10.3,4.7,16.2c0,16.7-13.5,30.2-30.2,30.2
	s-30.2-13.5-30.2-30.2s13.5-30.2,30.2-30.2c2.4,0,4.7,0.3,6.9,0.8"/>
<path fill="#A6A6A7" d="M254.2,901.2c0.4,1.3,0.6,2.7,0.6,4.2c0,8.7-7.1,15.8-15.8,15.8s-15.8-7.1-15.8-15.8s7.1-15.8,15.8-15.8
	c1,0,2,0.1,2.9,0.3"/>
<path fill="none" stroke="#A6A6A7" stroke-miterlimit="10" d="M276.6,872.1h-35.5c-1.1,0-2-0.9-2-2V870c0-1.1,0.9-2,2-2h35.5
	c1.1,0,2,0.9,2,2v0.1C278.6,871.2,277.7,872.1,276.6,872.1z"/>
<path stroke="#000000" stroke-miterlimit="10" d="M645.2,887.8c2.9,4.6,4.6,10.1,4.6,16c0,16.7-13.5,30.2-30.2,30.2
	c-16.7,0-30.2-13.5-30.2-30.2s13.5-30.2,30.2-30.2c2.4,0,4.7,0.3,7,0.8"/>
<path fill="#A6A6A7" d="M634.9,899.8c0.3,1.3,0.5,2.6,0.5,4c0,8.7-7.1,15.8-15.8,15.8c-8.7,0-15.8-7.1-15.8-15.8s7.1-15.8,15.8-15.8
	c1,0,2,0.1,2.9,0.3"/>
<path fill="none" stroke="#A6A6A7" stroke-miterlimit="10" d="M657.3,871.4h-35.5c-1.1,0-2-0.9-2-2v0c0-1.1,0.9-2,2-2h35.5
	c1.1,0,2,0.9,2,2v0C659.3,870.5,658.4,871.4,657.3,871.4z"/>
<path fill="#A6A6A7" d="M626.7,871c-0.6,2.1,0.3,9.6-3.8,16.5c-1.9,3.2-2.9,4.8-4.5,6.4c-1.8,1.9-2.9,2.3-3.8,4.1
	c-0.2,0.5-1.8,4.2,0.3,6.4c1,1.1,2.7,1.3,5,1.1c7.9-0.7,13.9-5.5,15.7-6.9c2.6-2.1,7.1-5.9,9.9-12.8c2.9-6.9,6.4-12.3,6.1-15.2"/>
<line fill="none" stroke="#E8D52F" stroke-width="5" stroke-linecap="round" stroke-miterlimit="10" x1="696.3" y1="453.9" x2="742.6" y2="447"/>
<path fill="#A6A6A7" d="M248.8,869.9c-0.6,2.1,0.3,9.6-3.8,16.5c-1.9,3.2-2.9,4.8-4.5,6.4c-1.8,1.9-2.9,2.3-3.8,4.1
	c-0.2,0.5-1.8,4.2,0.3,6.4c1,1.1,2.7,1.3,5,1.1c7.9-0.7,13.9-5.5,15.7-6.9c2.6-2.1,7.1-5.9,9.9-12.8c2.9-6.9,6.4-12.3,6.1-15.2"/>
</svg>
