<?xml version="1.0" encoding="UTF-8" standalone="no"?><!DOCTYPE svg PUBLIC "-//W3C//DTD SVG 1.1//EN" "http://www.w3.org/Graphics/SVG/1.1/DTD/svg11.dtd"><svg width="100%" height="100%" viewBox="0 0 375 753" version="1.1" xmlns="http://www.w3.org/2000/svg" xmlns:xlink="http://www.w3.org/1999/xlink" xml:space="preserve" style="fill-rule:evenodd;clip-rule:evenodd;stroke-linecap:round;stroke-linejoin:round;stroke-miterlimit:1.5;"><rect id="Artboard1" x="0" y="0" width="375" height="752.869" style="fill:none;"/><g><g><g><path d="M198.761,363.821l-76.952,0c0,0 0,74.034 0,101.238c0,5.472 4.402,9.924 9.873,9.987c24.291,0.278 86.765,0.992 111.352,1.273c2.683,0.03 5.267,-1.014 7.175,-2.901c1.908,-1.886 2.982,-4.458 2.982,-7.142c0,-24.052 0,-82.48 0,-82.48" style="fill:none;stroke:#000;stroke-width:3px;"/><path d="M244.45,363.821l-23.866,0" style="fill:none;stroke:#000;stroke-width:3px;"/><path d="M263.504,359.545l8.456,4.276l-10.181,0" style="fill:none;stroke:#000;stroke-width:3px;"/><path d="M121.809,363.821l-18.769,0c0,0 62.46,-31.581 79.954,-40.427c2.833,-1.432 6.179,-1.432 9.012,0c13.162,6.655 50.629,25.6 50.629,25.6" style="fill:none;stroke:#000;stroke-width:3px;"/></g><g><path d="M209.564,336.841l12.387,30.967l-12.387,30.967l-12.387,-30.967l12.387,-30.967Z" style="fill:none;stroke:#ebd831;stroke-width:3px;"/><path d="M234.338,276.435l12.387,30.967l-12.387,30.968l-12.387,-30.968l12.387,-30.967Z" style="fill:none;stroke:#ebd831;stroke-width:3px;"/><path d="M253.186,322.963l12.387,30.968l-12.387,30.967l-12.387,-30.967l12.387,-30.968Z" style="fill:none;stroke:#89abe3;stroke-width:3px;"/></g></g></g></svg>