<?xml version="1.0" encoding="utf-8"?>
<!-- Generator: Adobe Illustrator 17.1.0, SVG Export Plug-In . SVG Version: 6.00 Build 0)  -->
<!DOCTYPE svg PUBLIC "-//W3C//DTD SVG 1.1//EN" "http://www.w3.org/Graphics/SVG/1.1/DTD/svg11.dtd">
<svg version="1.1" id="Layer_1" xmlns="http://www.w3.org/2000/svg" xmlns:xlink="http://www.w3.org/1999/xlink" x="0px" y="0px"
	 viewBox="0 0 120.1 114.2" enable-background="new 0 0 120.1 114.2" xml:space="preserve">
<g>
	<g>
		<polygon fill="#8CABD9" points="87.2,105.4 6.6,105.4 6.6,48.3 46.9,26.7 87.2,48.3 		"/>
	</g>
	<polygon fill="#8CABD9" points="94.2,46 91.9,37.4 86.5,35.2 91.9,32.9 94.2,24.3 96.5,32.9 101.9,35.2 96.5,37.4 	"/>
	<polygon fill="#8CABD9" points="109.5,38.4 107.3,29.9 101.9,27.6 107.3,25.3 109.5,16.8 111.8,25.3 117.2,27.6 111.8,29.9 	"/>
	<polygon fill="#8CABD9" points="86.5,25.1 84.2,16.5 78.8,14.3 84.2,12 86.5,3.4 88.8,12 94.2,14.3 88.8,16.5 	"/>
</g>
</svg>
