<?xml version="1.0" encoding="utf-8"?>
<!-- Generator: Adobe Illustrator 17.1.0, SVG Export Plug-In . SVG Version: 6.00 Build 0)  -->
<!DOCTYPE svg PUBLIC "-//W3C//DTD SVG 1.1//EN" "http://www.w3.org/Graphics/SVG/1.1/DTD/svg11.dtd">
<svg version="1.1" id="Layer_1" xmlns="http://www.w3.org/2000/svg" xmlns:xlink="http://www.w3.org/1999/xlink" x="0px" y="0px"
	 viewBox="0 0 289.8 135.3" enable-background="new 0 0 289.8 135.3" xml:space="preserve">
<g>
	<g>
		<path fill="#7F4E44" stroke="#7F4E44" stroke-miterlimit="10" d="M283.2,76.3l-91.4,26.9c-9.9-0.6-20.7-12.5-19.7-22.4l3.2-5.1
			c-22.6-4.9,13.8-6.4,21.8-7.4L272,43.8"/>
	</g>
	<path fill="#7F4E44" stroke="#7F4E44" stroke-miterlimit="10" d="M181.9,71.4c-19.5,3.2-40.1-1.1-58.6,7.8
		c0,15.6,15.9,3.6,19.2,14.3c-7.3,5.7-15.2,11.7-23,17.8c-2.4,1.9-1.6,5.6,1.3,6.4c20.9,5.7,28.6,13,48.2,2.4
		c8.7-4.7,33.1-17.2,34.9-27.9C206.5,76.6,188.2,79.6,181.9,71.4z"/>
	<path fill="#EE8F5A" stroke="#EE8F5A" stroke-miterlimit="10" d="M4.9,75.7l97,28.6c9.9-0.6,20.7-12.5,19.7-22.4l-3.2-5.1
		c13.7-5.3-13.8-6.4-21.8-7.4L15.8,42.9"/>
	<path fill="#EE8F5A" stroke="#EE8F5A" stroke-miterlimit="10" d="M111.2,71.5c19.7-1.1,38.9-9.7,58.9-5
		c3.4,15.2-14.8,6.9-15.7,18.1c8.4,4,17.3,8.2,26.3,12.4c2.8,1.3,2.8,5.2,0.1,6.6c-19.2,10-25.1,18.8-46.6,12.7
		c-9.5-2.7-36-9.7-40.1-19.8C88.3,81.9,106.8,80.9,111.2,71.5z"/>
	<path fill="#7F4E44" stroke="#7F4E44" stroke-miterlimit="10" d="M189.1,89.4c-0.3-3.4,10.5-13.1-12.2-17
		c-11.3-2-24.6-1.2-35.4,3.9c0,12.9,11.6,8.7,18.3,10c15.8,3.2,13.2-4.2,13.8-2.4C166.2,89.6,195.4,97.6,189.1,89.4z"/>
	<polygon fill="#EBD932" points="110.1,34.6 97.6,15.6 107.7,11.6 	"/>
	<polygon fill="#EBD932" points="144.3,30.5 141.5,4.6 151.1,6.5 	"/>
	<polygon fill="#EBD932" points="177.9,37.8 188.9,19.6 196.5,24.2 	"/>
</g>
</svg>
