<?xml version="1.0" encoding="UTF-8" standalone="no"?><!DOCTYPE svg PUBLIC "-//W3C//DTD SVG 1.1//EN" "http://www.w3.org/Graphics/SVG/1.1/DTD/svg11.dtd"><svg width="100%" height="100%" viewBox="0 0 375 753" version="1.1" xmlns="http://www.w3.org/2000/svg" xmlns:xlink="http://www.w3.org/1999/xlink" xml:space="preserve" style="fill-rule:evenodd;clip-rule:evenodd;stroke-linecap:round;stroke-linejoin:round;stroke-miterlimit:1.5;"><rect id="Artboard1" x="0" y="0" width="375" height="752.869" style="fill:none;"/><g><path d="M188.94,276.205c-0.96,-0.024 -1.92,-0.024 -2.88,0c-4.126,2.097 -8.041,4.532 -11.746,7.306c-4.595,-0.55 -9.203,-0.701 -13.825,-0.454c-0.843,0.459 -1.674,0.939 -2.493,1.44c-2.525,3.878 -4.698,7.945 -6.52,12.199c-4.254,1.822 -8.321,3.995 -12.2,6.52c-0.501,0.819 -0.981,1.65 -1.439,2.493c-0.248,4.622 -0.096,9.23 0.454,13.826c-2.774,3.704 -5.21,7.62 -7.306,11.746c-0.024,0.959 -0.024,1.919 0,2.879c2.096,4.126 4.532,8.041 7.306,11.746c-0.55,4.595 -0.702,9.203 -0.454,13.825c0.458,0.843 0.938,1.675 1.439,2.493c3.879,2.525 7.946,4.699 12.2,6.52c1.822,4.255 3.995,8.321 6.52,12.2c0.819,0.501 1.65,0.981 2.493,1.439c4.622,0.248 9.23,0.096 13.825,-0.454c3.705,2.774 7.62,5.21 11.746,7.306c0.96,0.025 1.92,0.025 2.88,0c4.126,-2.096 8.041,-4.532 11.746,-7.306c4.595,0.55 9.203,0.702 13.825,0.454c0.843,-0.458 1.674,-0.938 2.493,-1.439c2.525,-3.879 4.698,-7.945 6.52,-12.2c4.254,-1.821 8.321,-3.995 12.2,-6.52c0.501,-0.818 0.981,-1.65 1.439,-2.493c0.248,-4.622 0.096,-9.23 -0.454,-13.825c2.774,-3.705 5.21,-7.62 7.306,-11.746c0.024,-0.96 0.024,-1.92 0,-2.879c-2.096,-4.126 -4.532,-8.042 -7.306,-11.746c0.55,-4.596 0.702,-9.204 0.454,-13.826c-0.458,-0.843 -0.938,-1.674 -1.439,-2.493c-3.879,-2.525 -7.946,-4.698 -12.2,-6.52c-1.822,-4.254 -3.995,-8.321 -6.52,-12.199c-0.819,-0.501 -1.65,-0.981 -2.493,-1.44c-4.622,-0.247 -9.23,-0.096 -13.825,0.454c-3.705,-2.774 -7.62,-5.209 -11.746,-7.306Z" style="fill:none;stroke:#89abe3;stroke-width:3px;"/><g transform="matrix(10.8721,0,0,10.8721,-1309.44,-14234.3)"><text x="134.425px" y="1341.63px" style="font-family:'Raleway-Medium', 'Raleway', sans-serif;font-weight:500;font-size:5px;fill:none;">BA</text><text x="134.425px" y="1341.63px" style="font-family:'Raleway-Medium', 'Raleway', sans-serif;font-weight:500;font-size:5px;fill:#0d0d0d;">BA</text></g><path d="M219.152,378.386l21.048,91.432l-17.797,-9.392l-12.021,16.257l-20.08,-87.224c3.628,-1.932 7.089,-4.131 10.384,-6.598c4.595,0.55 9.203,0.702 13.825,0.454c0.843,-0.458 1.674,-0.938 2.493,-1.439c0.747,-1.147 1.463,-2.31 2.148,-3.49Z" style="fill:none;stroke:#89abe3;stroke-width:3px;"/><path d="M157.654,381.208c0.209,0.331 0.421,0.662 0.635,0.991c0.819,0.501 1.65,0.981 2.493,1.439c4.622,0.248 9.23,0.096 13.826,-0.454c3.704,2.774 7.62,5.209 11.746,7.306c0.158,0.004 0.317,0.007 0.477,0.01l-21.107,76.146l-10.615,-17.419l-18.872,9.245l21.417,-77.264Z" style="fill:none;stroke:#89abe3;stroke-width:3px;"/></g></svg>