<?xml version="1.0" encoding="UTF-8" standalone="no"?><!DOCTYPE svg PUBLIC "-//W3C//DTD SVG 1.1//EN" "http://www.w3.org/Graphics/SVG/1.1/DTD/svg11.dtd"><svg width="100%" height="100%" viewBox="0 0 117 204" version="1.1" xmlns="http://www.w3.org/2000/svg" xmlns:xlink="http://www.w3.org/1999/xlink" xml:space="preserve" style="fill-rule:evenodd;clip-rule:evenodd;stroke-linecap:round;stroke-linejoin:round;stroke-miterlimit:1.5;"><g><path d="M59.473,1.518c-0.96,-0.024 -1.92,-0.024 -2.879,0c-4.126,2.097 -8.042,4.532 -11.746,7.306c-4.596,-0.55 -9.204,-0.701 -13.825,-0.454c-0.844,0.459 -1.675,0.939 -2.494,1.44c-2.525,3.878 -4.698,7.945 -6.519,12.2c-4.255,1.821 -8.322,3.994 -12.2,6.519c-0.501,0.819 -0.981,1.65 -1.44,2.494c-0.247,4.621 -0.096,9.229 0.454,13.825c-2.774,3.704 -5.209,7.62 -7.306,11.746c-0.024,0.959 -0.024,1.919 0,2.879c2.097,4.126 4.532,8.041 7.306,11.746c-0.55,4.595 -0.701,9.204 -0.454,13.825c0.459,0.843 0.939,1.675 1.44,2.494c3.878,2.525 7.945,4.698 12.2,6.519c1.821,4.255 3.994,8.321 6.519,12.2c0.819,0.501 1.65,0.981 2.494,1.44c4.621,0.247 9.229,0.096 13.825,-0.454c3.704,2.774 7.62,5.209 11.746,7.305c0.959,0.025 1.919,0.025 2.879,0c4.126,-2.096 8.041,-4.531 11.746,-7.305c4.595,0.55 9.204,0.701 13.825,0.454c0.843,-0.459 1.675,-0.939 2.494,-1.44c2.525,-3.879 4.698,-7.945 6.519,-12.2c4.255,-1.821 8.321,-3.994 12.2,-6.519c0.501,-0.819 0.981,-1.651 1.44,-2.494c0.247,-4.621 0.096,-9.23 -0.454,-13.825c2.774,-3.705 5.209,-7.62 7.305,-11.746c0.025,-0.96 0.025,-1.92 0,-2.879c-2.096,-4.126 -4.531,-8.042 -7.305,-11.746c0.55,-4.596 0.701,-9.204 0.454,-13.825c-0.459,-0.844 -0.939,-1.675 -1.44,-2.494c-3.879,-2.525 -7.945,-4.698 -12.2,-6.519c-1.821,-4.255 -3.994,-8.322 -6.519,-12.2c-0.819,-0.501 -1.651,-0.981 -2.494,-1.44c-4.621,-0.247 -9.23,-0.096 -13.825,0.454c-3.705,-2.774 -7.62,-5.209 -11.746,-7.306Z" style="fill:none;stroke:#89abe3;stroke-width:3px;"/><g transform="matrix(10.8721,0,0,10.8721,-1438.91,-14509)"><text x="134.425px" y="1341.63px" style="font-family:'Raleway-Medium', 'Raleway', sans-serif;font-weight:500;font-size:5px;fill:none;">BA</text><text x="134.425px" y="1341.63px" style="font-family:'Raleway-Medium', 'Raleway', sans-serif;font-weight:500;font-size:5px;fill:#0d0d0d;">BA</text></g><path d="M89.685,103.699l21.049,91.432l-17.798,-9.392l-12.021,16.257l-20.08,-87.224c3.628,-1.931 7.089,-4.13 10.384,-6.597c4.595,0.55 9.204,0.701 13.825,0.454c0.843,-0.459 1.675,-0.939 2.494,-1.44c0.746,-1.147 1.462,-2.31 2.147,-3.49Z" style="fill:none;stroke:#89abe3;stroke-width:3px;"/><path d="M28.188,106.521c0.209,0.332 0.42,0.662 0.634,0.991c0.819,0.501 1.65,0.981 2.494,1.439c4.621,0.248 9.23,0.096 13.825,-0.454c3.705,2.774 7.62,5.21 11.746,7.306c0.159,0.004 0.318,0.008 0.477,0.01l-21.107,76.146l-10.615,-17.419l-18.872,9.246l21.418,-77.265Z" style="fill:none;stroke:#89abe3;stroke-width:3px;"/></g></svg>