<?xml version="1.0" encoding="UTF-8" standalone="no"?><!DOCTYPE svg PUBLIC "-//W3C//DTD SVG 1.1//EN" "http://www.w3.org/Graphics/SVG/1.1/DTD/svg11.dtd"><svg width="100%" height="100%" viewBox="0 0 130 203" version="1.1" xmlns="http://www.w3.org/2000/svg" xmlns:xlink="http://www.w3.org/1999/xlink" xml:space="preserve" style="fill-rule:evenodd;clip-rule:evenodd;stroke-linecap:round;stroke-linejoin:round;stroke-miterlimit:1.5;"><g><path d="M22.288,43.194c0.433,-23.086 19.31,-41.694 42.498,-41.694c23.189,0 42.065,18.608 42.498,41.694c0,0 10.933,-0.199 16.942,-0.308c1.013,-0.018 1.992,0.372 2.715,1.082c0.724,0.71 1.131,1.682 1.131,2.696c0,17.427 0,88.856 0,106.1c0,2.087 -1.691,3.779 -3.778,3.779c-18.613,0 -100.403,0 -119.016,0c-2.086,0 -3.778,-1.692 -3.778,-3.779c0,-15.637 0,-75.588 0,-99.57c0,-5.523 4.477,-10 10,-10c5.325,0 10.788,0 10.788,0Zm74.351,0c-0.431,-17.211 -14.538,-31.052 -31.853,-31.052c-17.314,0 -31.422,13.841 -31.853,31.052l63.706,0Z" style="fill:none;stroke:#ebd831;stroke-width:3px;"/><g><path d="M97.846,79.021l-66.12,0c0,0 0,29.975 0,46.032c0,5.479 4.408,9.937 9.886,10c12.414,0.142 33.599,0.384 46.12,0.527c2.672,0.03 5.245,-1.01 7.145,-2.888c1.9,-1.879 2.969,-4.439 2.969,-7.111c0,-16.298 0,-46.56 0,-46.56Z" style="fill:none;stroke:#000;stroke-width:3px;"/><path d="M60.274,59.811c2.837,-1.434 6.187,-1.434 9.024,0c10.942,5.532 37.994,19.21 37.994,19.21l-85.011,0c0,0 27.051,-13.678 37.993,-19.21Z" style="fill:none;stroke:#000;stroke-width:3px;"/></g><path d="M55.26,162.13l0,-2.59l18.891,0l0,2.496c5.69,3.257 9.527,9.388 9.527,16.407c0,8.466 -5.581,15.639 -13.261,18.037c-0.322,2.823 -2.722,5.02 -5.631,5.02c-2.909,0 -5.309,-2.197 -5.631,-5.02c-7.68,-2.398 -13.26,-9.571 -13.26,-18.037c0,-6.953 3.764,-13.034 9.365,-16.313Z" style="fill:none;stroke:#89abe3;stroke-width:3px;"/><circle cx="64.786" cy="195.054" r="1.97" style="fill:none;stroke:#89abe3;stroke-width:2px;"/></g></svg>