<?xml version="1.0" encoding="UTF-8" standalone="no"?><!DOCTYPE svg PUBLIC "-//W3C//DTD SVG 1.1//EN" "http://www.w3.org/Graphics/SVG/1.1/DTD/svg11.dtd"><svg width="100%" height="100%" viewBox="0 0 375 753" version="1.1" xmlns="http://www.w3.org/2000/svg" xmlns:xlink="http://www.w3.org/1999/xlink" xml:space="preserve" style="fill-rule:evenodd;clip-rule:evenodd;stroke-linejoin:round;stroke-miterlimit:1.41421;"><rect id="Artboard1" x="0" y="0" width="375" height="752.869" style="fill:none;"/><g><path d="M145.222,244.297l-59.195,0c-6.282,0 -11.382,5.1 -11.382,11.382l0,259.374c0,6.282 5.1,11.382 11.382,11.382l202.946,0c6.282,0 11.382,-5.1 11.382,-11.382l0,-259.374c0,-6.282 -5.1,-11.382 -11.382,-11.382l-58.73,0" style="fill:none;stroke:#ebd831;stroke-width:3px;"/><path d="M145.123,258.404l-56.371,0l0,253.924l197.496,0l0,-253.924l-56.391,0" style="fill:none;stroke:#ccc;stroke-width:1px;"/><g><g><path d="M143.714,327.04l112.859,0" style="fill:#ebd831;stroke:#bfbfbf;stroke-width:2px;stroke-linecap:round;stroke-miterlimit:1.5;"/><path d="M143.714,365.657l112.859,0" style="fill:#ebd831;stroke:#bfbfbf;stroke-width:2px;stroke-linecap:round;stroke-miterlimit:1.5;"/><path d="M143.714,406.052l112.859,0" style="fill:#ebd831;stroke:#bfbfbf;stroke-width:2px;stroke-linecap:round;stroke-miterlimit:1.5;"/><path d="M143.714,444.755l112.859,0" style="fill:#ebd831;stroke:#bfbfbf;stroke-width:2px;stroke-linecap:round;stroke-miterlimit:1.5;"/><rect x="118.427" y="319.233" width="14.066" height="14.012" style="fill:#ebd831;"/><rect x="118.427" y="358.651" width="14.066" height="14.012" style="fill:#ebd831;"/><rect x="118.427" y="398.069" width="14.066" height="14.012" style="fill:#ebd831;"/><rect x="118.427" y="437.487" width="14.066" height="14.012" style="fill:#ebd831;"/></g><path id="Checked-Icon" d="M148.684,420.618l-23.631,23.662l-9.736,-9.768c-1.176,-1.178 -3.083,-1.178 -4.259,0c-1.177,1.179 -1.177,3.09 0,4.269l11.802,11.84c0.605,0.604 1.401,0.894 2.193,0.877c0.792,0.017 1.588,-0.273 2.193,-0.877l25.698,-25.736c1.176,-1.178 1.176,-3.089 0,-4.267c-1.177,-1.18 -3.084,-1.18 -4.26,0Z"/><path id="Checked-Icon1" d="M148.684,381.021l-23.631,23.662l-9.736,-9.768c-1.176,-1.178 -3.083,-1.178 -4.259,0c-1.177,1.179 -1.177,3.09 0,4.269l11.802,11.84c0.605,0.604 1.401,0.894 2.193,0.877c0.792,0.017 1.588,-0.273 2.193,-0.877l25.698,-25.736c1.176,-1.178 1.176,-3.089 0,-4.267c-1.177,-1.18 -3.084,-1.18 -4.26,0Z"/><path id="Checked-Icon2" d="M148.684,341.424l-23.631,23.662l-9.736,-9.768c-1.176,-1.179 -3.083,-1.179 -4.259,0c-1.177,1.179 -1.177,3.09 0,4.269l11.802,11.84c0.605,0.604 1.401,0.894 2.193,0.877c0.792,0.017 1.588,-0.273 2.193,-0.877l25.698,-25.736c1.176,-1.178 1.176,-3.089 0,-4.267c-1.177,-1.18 -3.084,-1.18 -4.26,0Z"/><path id="Checked-Icon3" d="M148.684,301.827l-23.631,23.662l-9.736,-9.768c-1.176,-1.179 -3.083,-1.179 -4.259,0c-1.177,1.179 -1.177,3.089 0,4.269l11.802,11.84c0.605,0.604 1.401,0.894 2.193,0.877c0.792,0.017 1.588,-0.273 2.193,-0.877l25.698,-25.736c1.176,-1.178 1.176,-3.089 0,-4.267c-1.177,-1.18 -3.084,-1.18 -4.26,0Z"/></g><g><path d="M174.868,237.744c0.697,-6.357 6.091,-11.309 12.632,-11.309c6.541,0 11.935,4.952 12.632,11.309l22.635,0c3.893,0 7.054,3.161 7.054,7.054l0,21.16l-84.642,0l0,-21.16c0,-3.893 3.161,-7.054 7.054,-7.054l22.635,0Z" style="fill:none;stroke:#000;stroke-width:2px;"/><circle cx="187.5" cy="238.654" r="5.643" style="fill:none;stroke:#000;stroke-width:1px;"/></g></g></svg>