<?xml version="1.0" encoding="UTF-8" standalone="no"?><!DOCTYPE svg PUBLIC "-//W3C//DTD SVG 1.1//EN" "http://www.w3.org/Graphics/SVG/1.1/DTD/svg11.dtd"><svg width="100%" height="100%" viewBox="0 0 229 303" version="1.1" xmlns="http://www.w3.org/2000/svg" xmlns:xlink="http://www.w3.org/1999/xlink" xml:space="preserve" style="fill-rule:evenodd;clip-rule:evenodd;stroke-linejoin:round;stroke-miterlimit:1.41421;"><g><path d="M72.077,18.862l-59.195,0c-6.282,0 -11.382,5.1 -11.382,11.382l0,259.374c0,6.282 5.1,11.382 11.382,11.382l202.946,0c6.282,0 11.382,-5.1 11.382,-11.382l0,-259.374c0,-6.282 -5.1,-11.382 -11.382,-11.382l-58.73,0" style="fill:none;stroke:#ebd831;stroke-width:3px;"/><path d="M71.978,32.969l-56.371,0l0,253.924l197.496,0l0,-253.924l-56.391,0" style="fill:none;stroke:#ccc;stroke-width:1px;"/><g><g><path d="M70.569,101.605l112.859,0" style="fill:#ebd831;stroke:#bfbfbf;stroke-width:2px;stroke-linecap:round;stroke-miterlimit:1.5;"/><path d="M70.569,140.222l112.859,0" style="fill:#ebd831;stroke:#bfbfbf;stroke-width:2px;stroke-linecap:round;stroke-miterlimit:1.5;"/><path d="M70.569,180.618l112.859,0" style="fill:#ebd831;stroke:#bfbfbf;stroke-width:2px;stroke-linecap:round;stroke-miterlimit:1.5;"/><path d="M70.569,219.32l112.859,0" style="fill:#ebd831;stroke:#bfbfbf;stroke-width:2px;stroke-linecap:round;stroke-miterlimit:1.5;"/><rect x="45.282" y="93.798" width="14.066" height="14.012" style="fill:#ebd831;"/><rect x="45.282" y="133.216" width="14.066" height="14.012" style="fill:#ebd831;"/><rect x="45.282" y="172.634" width="14.066" height="14.012" style="fill:#ebd831;"/><rect x="45.282" y="212.053" width="14.066" height="14.012" style="fill:#ebd831;"/></g><path id="Checked-Icon" d="M75.539,195.183l-23.631,23.662l-9.736,-9.767c-1.176,-1.179 -3.083,-1.179 -4.259,0c-1.177,1.178 -1.177,3.089 0,4.269l11.803,11.839c0.604,0.605 1.4,0.895 2.192,0.877c0.792,0.018 1.589,-0.272 2.193,-0.877l25.698,-25.735c1.176,-1.178 1.176,-3.09 0,-4.268c-1.177,-1.18 -3.084,-1.18 -4.26,0Z"/><path id="Checked-Icon1" d="M75.539,155.586l-23.631,23.662l-9.736,-9.767c-1.176,-1.179 -3.083,-1.179 -4.259,0c-1.177,1.178 -1.177,3.089 0,4.269l11.803,11.839c0.604,0.604 1.4,0.894 2.192,0.877c0.792,0.017 1.589,-0.273 2.193,-0.877l25.698,-25.735c1.176,-1.178 1.176,-3.09 0,-4.268c-1.177,-1.18 -3.084,-1.18 -4.26,0Z"/><path id="Checked-Icon2" d="M75.539,115.989l-23.631,23.662l-9.736,-9.768c-1.176,-1.178 -3.083,-1.178 -4.259,0c-1.177,1.179 -1.177,3.09 0,4.27l11.803,11.839c0.604,0.604 1.4,0.894 2.192,0.877c0.792,0.017 1.589,-0.273 2.193,-0.877l25.698,-25.735c1.176,-1.178 1.176,-3.09 0,-4.268c-1.177,-1.18 -3.084,-1.18 -4.26,0Z"/><path id="Checked-Icon3" d="M75.539,76.392l-23.631,23.662l-9.736,-9.768c-1.176,-1.178 -3.083,-1.178 -4.259,0c-1.177,1.179 -1.177,3.09 0,4.27l11.803,11.839c0.604,0.604 1.4,0.894 2.192,0.877c0.792,0.017 1.589,-0.273 2.193,-0.877l25.698,-25.735c1.176,-1.179 1.176,-3.09 0,-4.268c-1.177,-1.18 -3.084,-1.18 -4.26,0Z"/></g><g><path d="M101.723,12.309c0.697,-6.356 6.091,-11.309 12.632,-11.309c6.541,0 11.935,4.953 12.632,11.309l22.635,0c3.893,0.001 7.054,3.161 7.054,7.054l0,21.16l-84.642,0l0,-21.16c0,-3.893 3.161,-7.053 7.054,-7.054l22.635,0Z" style="fill:none;stroke:#000;stroke-width:2px;"/><circle cx="114.355" cy="13.22" r="5.643" style="fill:none;stroke:#000;stroke-width:1px;"/></g></g></svg>