<?xml version="1.0" encoding="UTF-8" standalone="no"?><!DOCTYPE svg PUBLIC "-//W3C//DTD SVG 1.1//EN" "http://www.w3.org/Graphics/SVG/1.1/DTD/svg11.dtd"><svg width="100%" height="100%" viewBox="0 0 427 302" version="1.1" xmlns="http://www.w3.org/2000/svg" xmlns:xlink="http://www.w3.org/1999/xlink" xml:space="preserve" style="fill-rule:evenodd;clip-rule:evenodd;stroke-linecap:round;stroke-linejoin:round;stroke-miterlimit:1.5;"><g><path d="M311.068,268.505l80.524,0l0,-175.317l-348.359,0l0,66.232" style="fill:none;stroke:#ccc;stroke-width:2px;"/><path d="M217.413,1l207.712,92.188l-415.425,0l207.713,-92.188Z" style="fill:none;stroke:#ccc;stroke-width:2px;"/><g><path d="M76.897,277.409l154.728,0" style="fill:none;stroke:#ebd831;stroke-width:3px;"/><path d="M280.259,277.409c11.355,0 20.161,0 24.583,0c14.216,0 8.66,-67.934 -46.994,-69.185c-31.625,-0.711 -31.567,-48.73 -54.935,-48.79c-1.222,-0.003 -171.919,0 -171.919,0c-16.278,0 -29.494,13.216 -29.494,29.494l0,76.747l11.735,11.734l14.93,0" style="fill:none;stroke:#ebd831;stroke-width:3px;"/><path d="M230.052,199.609c0,0 -19.038,-35.472 -30.515,-35.472c-2.221,0 -10.682,0 -10.682,0c-2.947,0 -5.34,1.95 -5.34,4.352l0,31.12l46.537,0Z" style="fill:none;stroke:#ccc;stroke-width:2px;"/><circle cx="255.893" cy="277.409" r="23.591" style="fill:none;stroke:#000;stroke-width:2px;"/><circle cx="52.531" cy="277.409" r="23.591" style="fill:none;stroke:#000;stroke-width:2px;"/><g transform="matrix(0.4719,0,0,0.4719,-766.991,-775.088)"><text x="1674.04px" y="2093.67px" style="font-family:'JosefinSlab', 'Josefin Slab';font-size:72px;">BONJOUR</text><text x="1746.73px" y="2165.67px" style="font-family:'JosefinSlab', 'Josefin Slab';font-size:72px;">ANA</text></g></g></g></svg>