<?xml version="1.0" encoding="UTF-8" standalone="no"?><!DOCTYPE svg PUBLIC "-//W3C//DTD SVG 1.1//EN" "http://www.w3.org/Graphics/SVG/1.1/DTD/svg11.dtd"><svg width="100%" height="100%" viewBox="0 0 453 753" version="1.1" xmlns="http://www.w3.org/2000/svg" xmlns:xlink="http://www.w3.org/1999/xlink" xml:space="preserve" style="fill-rule:evenodd;clip-rule:evenodd;stroke-linecap:round;stroke-linejoin:round;stroke-miterlimit:1.5;"><rect id="Artboard1" x="0" y="0" width="452.5" height="752.869" style="fill:none;"/><g><rect x="56.17" y="318.623" width="348.359" height="175.317" style="fill:#f2f2f2;"/><g><rect x="319.73" y="358.931" width="15.013" height="15.013" style="fill:#fff;"/><rect x="299.667" y="358.931" width="15.013" height="15.013" style="fill:#fff;"/><rect x="299.667" y="378.925" width="15.013" height="15.013" style="fill:#fff;"/><rect x="319.73" y="378.925" width="15.013" height="15.013" style="fill:#fff;"/></g><g><rect x="155.609" y="358.931" width="15.013" height="15.013" style="fill:#fff;"/><rect x="135.546" y="358.931" width="15.013" height="15.013" style="fill:#fff;"/><rect x="135.546" y="378.925" width="15.013" height="15.013" style="fill:#fff;"/><rect x="155.609" y="378.925" width="15.013" height="15.013" style="fill:#fff;"/></g><path d="M230.35,226.435l207.713,92.188l-415.426,0l207.713,-92.188Z" style="fill:#f2f2f2;"/><g><path d="M89.834,502.844l154.728,0" style="fill:none;stroke:#ebd831;stroke-width:3px;"/><path d="M293.196,502.844c11.356,0 20.162,0 24.583,0c14.217,0 8.661,-67.935 -46.994,-69.185c-31.625,-0.711 -31.567,-48.73 -54.935,-48.79c-1.221,-0.003 -171.919,0 -171.919,0c-16.278,0 -29.494,13.216 -29.494,29.494l0,76.746l11.735,11.735l14.93,0" style="fill:none;stroke:#ebd831;stroke-width:3px;"/><path d="M242.989,425.044c0,0 -19.038,-35.472 -30.515,-35.472c-2.221,0 -10.681,0 -10.681,0c-2.948,0 -5.341,1.95 -5.341,4.352l0,31.12l46.537,0Z" style="fill:#f2f2f2;"/><circle cx="268.83" cy="502.844" r="23.591" style="fill:none;stroke:#000;stroke-width:2px;"/><circle cx="65.468" cy="502.844" r="23.591" style="fill:none;stroke:#000;stroke-width:2px;"/><g transform="matrix(0.4719,0,0,0.4719,-754.054,-549.653)"><text x="1674.04px" y="2093.67px" style="font-family:'JosefinSlab', 'Josefin Slab';font-size:72px;">BONJOUR</text><text x="1746.73px" y="2165.67px" style="font-family:'JosefinSlab', 'Josefin Slab';font-size:72px;">ANA</text></g></g></g></svg>