<?xml version="1.0" encoding="UTF-8" standalone="no"?><!DOCTYPE svg PUBLIC "-//W3C//DTD SVG 1.1//EN" "http://www.w3.org/Graphics/SVG/1.1/DTD/svg11.dtd"><svg width="100%" height="100%" viewBox="0 0 644 628" version="1.1" xmlns="http://www.w3.org/2000/svg" xmlns:xlink="http://www.w3.org/1999/xlink" xml:space="preserve" style="fill-rule:evenodd;clip-rule:evenodd;stroke-linejoin:round;stroke-miterlimit:1.41421;"><g><clipPath id="_clip1"><rect x="-2.491" y="-1.444" width="574.836" height="559.193"/></clipPath><g clip-path="url(#_clip1)"><g><path d="M321.638,17.636c0,-8.906 -7.231,-16.136 -16.137,-16.136l-287.865,0c-8.906,0 -16.136,7.23 -16.136,16.136l0,520.693c0,8.906 7.23,16.136 16.136,16.136l287.865,0c8.906,0 16.137,-7.23 16.137,-16.136l0,-520.693Z" style="fill:none;stroke:#ebd831;stroke-width:3px;"/><circle cx="161.569" cy="529.644" r="14.552" style="fill:none;stroke:#000;stroke-width:3px;"/><path d="M188.853,32.394c0,-1.004 -0.815,-1.819 -1.819,-1.819l-50.931,0c-1.004,0 -1.819,0.815 -1.819,1.819c0,1.004 0.815,1.819 1.819,1.819l50.931,0c1.004,0 1.819,-0.815 1.819,-1.819Z"/></g><g><clipPath id="_clip2"><rect x="16.052" y="60.721" width="291.034" height="435.288"/></clipPath><g clip-path="url(#_clip2)"><rect x="16.052" y="60.721" width="291.034" height="434.522" style="fill:none;stroke:#0d0d0d;stroke-width:1px;stroke-linecap:round;stroke-miterlimit:1.5;"/><rect x="16.097" y="206.392" width="181.896" height="145.517" style="fill:none;stroke:#000;stroke-width:1px;"/><rect x="16.143" y="60.875" width="181.896" height="145.517" style="fill:none;stroke:#0d0d0d;stroke-width:1px;"/><rect x="16.143" y="115.864" width="25.465" height="90.067" style="fill:none;stroke:#000;stroke-width:1px;"/><rect x="16.052" y="351.909" width="181.896" height="143.334" style="fill:none;stroke:#0d0d0d;stroke-width:1px;stroke-linecap:round;stroke-miterlimit:1.5;"/><path d="M31.033,440.983c-0.764,-0.305 -1.744,-0.639 -2.357,-0.639c-0.581,0 -1.447,0.307 -2.14,0.6l0,10.645l-1.125,0l0,-11.245c0.003,-0.001 2.197,-1.124 3.294,-1.124c1.125,0 3.453,1.124 3.453,1.124l0,1.124l-1.125,0l0,-0.485Z"/><path d="M16.143,351.755c60.602,0.052 121.203,0.103 181.805,0.154" style="fill:none;stroke:#000;stroke-width:1px;stroke-linecap:round;stroke-miterlimit:1.5;"/><path d="M16.052,206.085c60.601,0.051 121.203,0.102 181.805,0.153" style="fill:none;stroke:#000;stroke-width:1px;stroke-linecap:round;stroke-miterlimit:1.5;"/><g><path d="M192.397,337.583c-0.317,-2.02 -0.507,-4.592 -0.507,-7.392c0,-6.485 1.018,-11.751 2.273,-11.751c1.254,0 2.272,5.266 2.272,11.751c0,4.958 -0.595,9.204 -1.436,10.928c-0.753,3.137 -5.978,10.636 -12.303,10.636c-6.842,0 -12.396,-8.774 -12.396,-11.311c0,-2.537 5.554,-4.597 12.396,-4.597c3.926,0 7.429,0.678 9.701,1.736Z" style="fill:none;stroke:#000;stroke-width:1px;"/><ellipse cx="182.132" cy="338.992" rx="9.095" ry="1.819" style="fill:none;stroke:#bfbfbf;stroke-width:1px;"/></g><g><path d="M87.495,334.126l-70.516,0l0,13.222c0,2.433 1.974,4.407 4.407,4.407l61.702,0c2.432,0 4.407,-1.974 4.407,-4.407l0,-13.222Z" style="fill:none;stroke:#000;stroke-width:1px;"/><g><path d="M87.586,254.092l-70.516,0c0,0 -1.959,64.654 0,77.585c0.714,4.715 7.092,-2.388 10.518,0c4.205,2.931 8.475,-1.7 12.178,0c10.642,4.887 10.577,-2.511 13.784,0c3.611,2.828 8.222,3.676 12.628,0c3.155,-2.633 7.842,2.62 11.361,0c2.882,-2.146 9.523,4.049 10.047,0c1.675,-12.931 0,-77.585 0,-77.585Z" style="fill:#f2f2f2;"/><path d="M25.884,331.123c-2.892,0.619 -7.341,2.899 -8.285,1.773c-2.932,-3.496 -0.529,-78.804 -0.529,-78.804l7.052,0c0,0 2.127,76.953 1.762,77.031Z" style="fill:#ebd831;"/><path d="M52.265,331.123c-0.778,0.354 -1.173,0.562 -3.768,1.805c-1.689,0.81 -4.651,0.28 -5.59,-0.063c-1.075,-0.393 -1.761,-0.354 -3.729,-1.329c-3.76,-1.861 -0.471,-77.444 -0.471,-77.444l11.937,0c0,0 1.968,76.873 1.621,77.031Z" style="fill:#ebd831;"/><path d="M78.771,331.218c-1.285,0.275 -1.731,1.131 -3.323,1.209c-1.553,0.076 -3.361,-0.679 -4.332,-0.96c-1.023,-0.296 -1.38,-0.403 -2.027,-0.506c-4.008,-0.635 -0.476,-76.869 -0.476,-76.869l8.748,0c0,0 1.774,77.049 1.41,77.126Z" style="fill:#ebd831;"/></g></g><g><path d="M182.662,299.447c1.482,1.643 0.969,4.525 -1.144,6.431c-2.114,1.905 -5.033,2.117 -6.515,0.473c-1.482,-1.643 -0.969,-4.525 1.144,-6.431c2.114,-1.905 5.033,-2.117 6.515,-0.473Z" style="fill:#ccc;"/><g id="_.28.Group.29."><path d="M168.996,313.557c1.321,-0.481 3.569,2.361 5.019,6.343c1.449,3.981 1.553,7.604 0.232,8.085c-1.321,0.48 -3.569,-2.362 -5.018,-6.343c-1.45,-3.982 -1.554,-7.604 -0.233,-8.085Z" style="fill:#a6a6a6;"/><path d="M173.858,328.253c0.691,-0.728 3.114,0.449 5.406,2.627c2.293,2.178 3.593,4.537 2.901,5.264c-0.691,0.728 -3.114,-0.449 -5.406,-2.626c-2.293,-2.178 -3.593,-4.537 -2.901,-5.265Z" style="fill:#a6a6a6;"/></g><path d="M174.252,307.068c2.331,1.633 0.189,8.72 -4.78,15.817c-4.969,7.096 -10.896,11.533 -13.227,9.901c-2.331,-1.632 -0.19,-8.719 4.78,-15.816c4.969,-7.097 10.896,-11.534 13.227,-9.902Z" style="fill:#bfbfbf;"/><g><path d="M155.598,333.244c2.001,0.175 3.325,3.744 2.955,7.965c-0.369,4.22 -2.293,7.505 -4.293,7.33c-2,-0.175 -3.324,-3.744 -2.955,-7.965c0.369,-4.22 2.293,-7.505 4.293,-7.33Z" style="fill:#a6a6a6;"/><path d="M154.926,347.871c0.123,1.4 -3.203,2.839 -7.424,3.212c-4.22,0.372 -7.747,-0.463 -7.87,-1.863c-0.124,-1.4 3.202,-2.839 7.423,-3.211c4.221,-0.372 7.747,0.462 7.871,1.862Z" style="fill:#a6a6a6;"/></g><g><path d="M166.545,313.714c-1.405,-0.039 -2.64,3.356 -2.757,7.576c-0.118,4.22 0.928,7.678 2.333,7.717c1.405,0.039 2.641,-3.356 2.758,-7.576c0.117,-4.22 -0.929,-7.678 -2.334,-7.717Z" style="fill:#ccc;"/><path d="M166.531,328.482c0.707,-0.713 3.106,0.52 5.352,2.751c2.247,2.231 3.497,4.621 2.789,5.333c-0.707,0.713 -3.106,-0.52 -5.352,-2.751c-2.247,-2.231 -3.496,-4.621 -2.789,-5.333Z" style="fill:#ccc;"/></g><g><path d="M155.021,331.581c0.543,-1.933 4.295,-2.572 8.374,-1.426c4.08,1.146 6.951,3.645 6.408,5.578c-0.543,1.933 -4.296,2.572 -8.375,1.427c-4.079,-1.146 -6.95,-3.646 -6.407,-5.579Z" style="fill:#ccc;"/><path d="M168.834,336.402c1.405,-0.001 2.548,3.438 2.55,7.675c0.002,4.237 -1.137,7.678 -2.543,7.678c-1.405,0.001 -2.548,-3.438 -2.55,-7.675c-0.002,-4.237 1.137,-7.678 2.543,-7.678Z" style="fill:#ccc;"/></g></g><g><path d="M125.022,142.163c1.482,1.644 0.97,4.525 -1.144,6.431c-2.114,1.905 -5.033,2.118 -6.515,0.474c-1.482,-1.644 -0.969,-4.526 1.145,-6.431c2.113,-1.906 5.032,-2.118 6.514,-0.474Z" style="fill:#ccc;"/><g id="_.28.Group.29.1"><path d="M111.356,156.273c1.321,-0.481 3.57,2.362 5.019,6.343c1.449,3.982 1.553,7.604 0.232,8.085c-1.32,0.481 -3.569,-2.362 -5.018,-6.343c-1.449,-3.981 -1.554,-7.604 -0.233,-8.085Z" style="fill:#a6a6a6;"/><path d="M116.218,170.969c0.691,-0.728 3.114,0.449 5.406,2.627c2.293,2.178 3.593,4.537 2.901,5.265c-0.691,0.728 -3.114,-0.45 -5.406,-2.627c-2.293,-2.178 -3.592,-4.537 -2.901,-5.265Z" style="fill:#a6a6a6;"/></g><path d="M116.612,149.785c2.331,1.632 0.19,8.719 -4.78,15.816c-4.969,7.097 -10.896,11.533 -13.227,9.901c-2.331,-1.632 -0.189,-8.719 4.78,-15.816c4.969,-7.097 10.896,-11.534 13.227,-9.901Z" style="fill:#bfbfbf;"/><g><path d="M97.959,175.96c2,0.175 3.324,3.744 2.955,7.965c-0.37,4.221 -2.293,7.505 -4.294,7.33c-2,-0.175 -3.324,-3.744 -2.955,-7.964c0.37,-4.221 2.293,-7.506 4.294,-7.331Z" style="fill:#a6a6a6;"/><path d="M96.287,190.278c1.406,0.025 2.486,3.484 2.412,7.72c-0.073,4.237 -1.274,7.656 -2.68,7.632c-1.405,-0.025 -2.486,-3.484 -2.412,-7.721c0.074,-4.236 1.275,-7.655 2.68,-7.631Z" style="fill:#a6a6a6;"/></g><g><path d="M108.906,156.43c-1.405,-0.039 -2.641,3.356 -2.758,7.576c-0.117,4.22 0.928,7.678 2.333,7.717c1.405,0.039 2.641,-3.355 2.758,-7.576c0.117,-4.22 -0.928,-7.678 -2.333,-7.717Z" style="fill:#ccc;"/><path d="M108.891,171.198c0.708,-0.713 3.106,0.52 5.352,2.751c2.247,2.232 3.497,4.621 2.789,5.333c-0.707,0.713 -3.105,-0.52 -5.352,-2.751c-2.247,-2.231 -3.496,-4.621 -2.789,-5.333Z" style="fill:#ccc;"/></g><g><ellipse cx="98.27" cy="182.9" rx="3.638" ry="7.677" style="fill:#ccc;"/><path d="M98.266,190.577c1.406,-0.001 2.548,3.439 2.55,7.676c0.003,4.237 -1.137,7.677 -2.542,7.678c-1.406,0 -2.549,-3.439 -2.551,-7.676c-0.002,-4.237 1.138,-7.677 2.543,-7.678Z" style="fill:#ccc;"/></g></g><rect x="16.052" y="451.589" width="25.465" height="43.655" style="fill:none;stroke:#000;stroke-width:1px;"/><rect x="172.528" y="451.589" width="25.465" height="43.655" style="fill:none;stroke:#000;stroke-width:1px;"/><g><g id="_.28.Group.29.2"><path d="M49.56,492.252c-1.015,0.972 -4.218,-0.724 -7.148,-3.784c-2.931,-3.061 -4.485,-6.335 -3.47,-7.306c1.015,-0.972 4.218,0.723 7.148,3.784c2.931,3.06 4.485,6.334 3.47,7.306Z" style="fill:#a6a6a6;"/><path d="M39.19,480.759c-0.339,0.945 -3.031,0.843 -6.006,-0.227c-2.976,-1.069 -5.116,-2.705 -4.776,-3.649c0.34,-0.945 3.031,-0.844 6.007,0.226c2.975,1.07 5.115,2.705 4.775,3.65Z" style="fill:#a6a6a6;"/></g><path d="M28.854,482.832c0.664,-2.111 3.408,-3.131 6.122,-2.277c2.714,0.855 4.378,3.263 3.714,5.374c-0.665,2.112 -3.409,3.132 -6.123,2.277c-2.714,-0.855 -4.378,-3.263 -3.713,-5.374Z" style="fill:#ccc;"/><path d="M38.861,486.208c0.487,-2.804 7.812,-3.879 16.348,-2.398c8.536,1.48 15.072,4.958 14.586,7.762c-0.487,2.804 -7.812,3.879 -16.348,2.398c-8.536,-1.48 -15.072,-4.958 -14.586,-7.762Z" style="fill:#bfbfbf;"/><g><path d="M69.352,488.67c-0.16,-2.002 3.139,-3.901 7.363,-4.238c4.223,-0.337 7.782,1.014 7.942,3.016c0.16,2.001 -3.14,3.9 -7.363,4.237c-4.224,0.337 -7.782,-1.014 -7.942,-3.015Z" style="fill:#a6a6a6;"/><path d="M84.327,486.243c0.762,-1.182 4.271,-0.278 7.833,2.017c3.562,2.295 5.835,5.117 5.074,6.299c-0.761,1.181 -4.271,0.277 -7.833,-2.018c-3.561,-2.295 -5.835,-5.117 -5.074,-6.298Z" style="fill:#a6a6a6;"/></g><g><path d="M46.178,488.745c1.185,-0.757 0.302,-4.259 -1.971,-7.818c-2.272,-3.558 -5.078,-5.832 -6.263,-5.076c-1.185,0.756 -0.301,4.259 1.971,7.818c2.272,3.558 5.078,5.832 6.263,5.076Z" style="fill:#ccc;"/><path d="M38.137,475.965c-0.329,0.949 -3.025,0.876 -6.016,-0.162c-2.991,-1.038 -5.153,-2.65 -4.824,-3.599c0.329,-0.948 3.025,-0.876 6.016,0.162c2.992,1.038 5.153,2.651 4.824,3.599Z" style="fill:#ccc;"/></g><g><path d="M69.052,489.657c-0.62,-1.91 2.148,-4.523 6.178,-5.832c4.029,-1.309 7.804,-0.822 8.425,1.088c0.62,1.909 -2.148,4.523 -6.178,5.832c-4.029,1.309 -7.804,0.821 -8.425,-1.088Z" style="fill:#ccc;"/><path d="M82.139,483.982c1.005,-0.983 4.226,0.679 7.188,3.709c2.962,3.03 4.55,6.288 3.545,7.27c-1.005,0.983 -4.226,-0.68 -7.187,-3.709c-2.962,-3.03 -4.551,-6.288 -3.546,-7.27Z" style="fill:#ccc;"/></g></g><g><path d="M104.32,279.266c-2.133,-0.591 -4.482,1.155 -5.242,3.897c-0.761,2.743 0.354,5.449 2.487,6.04c2.133,0.592 4.481,-1.155 5.242,-3.897c0.76,-2.742 -0.355,-5.449 -2.487,-6.04Z" style="fill:#ccc;"/><g id="_.28.Group.29.3"><path d="M102.175,301.565c1.055,-0.928 -0.359,-4.265 -3.156,-7.447c-2.798,-3.183 -5.926,-5.013 -6.982,-4.085c-1.055,0.928 0.359,4.265 3.156,7.447c2.798,3.182 5.926,5.013 6.982,4.085Z" style="fill:#a6a6a6;"/><path d="M92.224,290.048c0.936,-0.364 0.765,-3.052 -0.382,-5.999c-1.146,-2.947 -2.837,-5.044 -3.772,-4.68c-0.936,0.364 -0.765,3.052 0.382,5.999c1.146,2.947 2.836,5.044 3.772,4.68Z" style="fill:#a6a6a6;"/></g><ellipse cx="101.533" cy="305.736" rx="5.156" ry="15.698" style="fill:#bfbfbf;"/><g><path d="M101.855,321.44c-2,0.175 -3.324,3.744 -2.955,7.965c0.37,4.221 2.293,7.506 4.294,7.331c2,-0.175 3.324,-3.744 2.955,-7.965c-0.37,-4.221 -2.293,-7.506 -4.294,-7.331Z" style="fill:#a6a6a6;"/><path d="M102.523,336.749c-1.394,0.179 -2.087,3.737 -1.547,7.939c0.539,4.203 2.109,7.469 3.503,7.29c1.394,-0.179 2.088,-3.736 1.548,-7.939c-0.54,-4.202 -2.11,-7.469 -3.504,-7.29Z" style="fill:#a6a6a6;"/></g><g><path d="M102.394,300.696c-0.722,1.205 -4.249,0.423 -7.871,-1.746c-3.621,-2.169 -5.976,-4.909 -5.253,-6.115c0.722,-1.206 4.249,-0.424 7.87,1.746c3.622,2.169 5.976,4.909 5.254,6.115Z" style="fill:#ccc;"/><path d="M89.272,292.954c0.934,-0.369 0.748,-3.059 -0.416,-6.004c-1.163,-2.945 -2.866,-5.036 -3.799,-4.667c-0.934,0.369 -0.748,3.059 0.416,6.004c1.163,2.944 2.866,5.036 3.799,4.667Z" style="fill:#ccc;"/></g><g><ellipse cx="101.412" cy="329.111" rx="3.638" ry="7.677" style="fill:#ccc;"/><path d="M101.416,336.787c-1.405,0 -2.548,3.439 -2.55,7.676c-0.002,4.237 1.137,7.678 2.543,7.678c1.405,0.001 2.548,-3.438 2.55,-7.675c0.002,-4.237 -1.137,-7.678 -2.543,-7.679Z" style="fill:#ccc;"/></g></g><g><path d="M61.375,133.055c-2.133,-0.591 -4.482,1.155 -5.242,3.898c-0.761,2.742 0.354,5.448 2.487,6.04c2.133,0.591 4.481,-1.155 5.242,-3.898c0.76,-2.742 -0.355,-5.448 -2.487,-6.04Z" style="fill:#ccc;"/><g id="_.28.Group.29.4"><path d="M59.23,155.354c1.055,-0.928 -0.359,-4.265 -3.156,-7.447c-2.798,-3.182 -5.926,-5.012 -6.982,-4.084c-1.055,0.928 0.359,4.265 3.157,7.447c2.797,3.182 5.925,5.012 6.981,4.084Z" style="fill:#a6a6a6;"/><path d="M49.279,143.837c0.936,-0.364 0.765,-3.052 -0.382,-5.999c-1.146,-2.946 -2.837,-5.043 -3.772,-4.679c-0.936,0.364 -0.765,3.051 0.382,5.998c1.146,2.947 2.837,5.044 3.772,4.68Z" style="fill:#a6a6a6;"/></g><ellipse cx="58.588" cy="159.526" rx="5.156" ry="15.698" style="fill:#bfbfbf;"/><g><path d="M58.91,175.23c-2,0.175 -3.324,3.744 -2.955,7.965c0.37,4.22 2.293,7.505 4.294,7.33c2,-0.175 3.324,-3.744 2.955,-7.965c-0.37,-4.22 -2.293,-7.505 -4.294,-7.33Z" style="fill:#a6a6a6;"/><path d="M59.578,190.539c-1.394,0.179 -2.087,3.736 -1.547,7.939c0.539,4.202 2.109,7.469 3.503,7.29c1.394,-0.18 2.088,-3.737 1.548,-7.939c-0.54,-4.203 -2.11,-7.469 -3.504,-7.29Z" style="fill:#a6a6a6;"/></g><g><path d="M59.449,154.485c-0.722,1.206 -4.249,0.424 -7.871,-1.746c-3.621,-2.169 -5.976,-4.909 -5.253,-6.115c0.722,-1.205 4.249,-0.423 7.87,1.746c3.622,2.169 5.976,4.909 5.254,6.115Z" style="fill:#ccc;"/><path d="M46.327,146.743c0.934,-0.369 0.748,-3.059 -0.416,-6.004c-1.163,-2.944 -2.866,-5.036 -3.799,-4.667c-0.934,0.369 -0.748,3.059 0.416,6.004c1.163,2.945 2.866,5.036 3.799,4.667Z" style="fill:#ccc;"/></g><g><ellipse cx="58.467" cy="182.9" rx="3.638" ry="7.677" style="fill:#ccc;"/><path d="M58.471,190.577c-1.405,-0.001 -2.548,3.439 -2.55,7.676c-0.002,4.237 1.137,7.677 2.543,7.678c1.405,0 2.548,-3.439 2.55,-7.676c0.002,-4.237 -1.137,-7.677 -2.543,-7.678Z" style="fill:#ccc;"/></g></g><g><path d="M291.007,423.257c-2.145,0.543 -3.32,3.224 -2.621,5.983c0.699,2.758 3.008,4.557 5.153,4.013c2.146,-0.543 3.321,-3.224 2.622,-5.983c-0.699,-2.759 -3.008,-4.557 -5.154,-4.013Z" style="fill:#ccc;"/><g id="_.28.Group.29.5"><path d="M292.748,438.315c-1.253,-0.635 -3.826,1.918 -5.741,5.697c-1.916,3.779 -2.453,7.364 -1.199,7.999c1.254,0.635 3.826,-1.917 5.742,-5.697c1.915,-3.779 2.452,-7.363 1.198,-7.999Z" style="fill:#a6a6a6;"/><path d="M285.752,451.832c-0.686,-0.733 -3.118,0.424 -5.428,2.583c-2.31,2.159 -3.629,4.508 -2.943,5.241c0.685,0.734 3.117,-0.424 5.427,-2.583c2.311,-2.159 3.629,-4.507 2.944,-5.241Z" style="fill:#a6a6a6;"/></g><ellipse cx="293.34" cy="449.047" rx="5.156" ry="15.698" style="fill:#bfbfbf;"/><g><path d="M293.465,464.859c-1.982,0.316 -3.051,3.97 -2.384,8.154c0.667,4.184 2.818,7.324 4.801,7.008c1.983,-0.316 3.051,-3.969 2.384,-8.153c-0.667,-4.185 -2.818,-7.325 -4.801,-7.009Z" style="fill:#a6a6a6;"/><path d="M295.214,480.082c-1.378,0.278 -1.818,3.875 -0.982,8.029c0.835,4.154 2.632,7.301 4.01,7.024c1.378,-0.278 1.818,-3.875 0.983,-8.029c-0.836,-4.153 -2.633,-7.301 -4.011,-7.024Z" style="fill:#a6a6a6;"/></g><g><path d="M292.921,440.988c1.172,0.776 0.232,4.264 -2.098,7.785c-2.329,3.52 -5.172,5.749 -6.344,4.974c-1.173,-0.776 -0.233,-4.264 2.097,-7.785c2.33,-3.521 5.173,-5.749 6.345,-4.974Z" style="fill:#ccc;"/><path d="M284.334,453.169c-0.765,-0.65 -3.051,0.779 -5.103,3.191c-2.051,2.411 -3.096,4.897 -2.332,5.548c0.765,0.65 3.051,-0.779 5.103,-3.191c2.052,-2.411 3.097,-4.897 2.332,-5.548Z" style="fill:#ccc;"/></g><g><path d="M292.241,464.773c-1.976,-0.356 -4.189,2.741 -4.939,6.912c-0.75,4.17 0.246,7.844 2.222,8.199c1.976,0.355 4.189,-2.742 4.939,-6.912c0.75,-4.17 -0.246,-7.844 -2.222,-8.199Z" style="fill:#ccc;"/><path d="M289.196,479.913c-1.403,0.08 -2.347,3.579 -2.106,7.809c0.24,4.231 1.575,7.6 2.978,7.52c1.403,-0.08 2.347,-3.579 2.107,-7.809c-0.241,-4.23 -1.576,-7.6 -2.979,-7.52Z" style="fill:#ccc;"/></g></g><g><g><g><path d="M149.157,423.257c2.145,0.543 3.32,3.224 2.621,5.983c-0.699,2.758 -3.008,4.557 -5.153,4.013c-2.146,-0.543 -3.321,-3.224 -2.622,-5.983c0.699,-2.759 3.008,-4.557 5.154,-4.013Z" style="fill:#ccc;"/><g id="_.28.Group.29.6"><path d="M146.115,439.644c1.326,-0.465 3.541,2.405 4.941,6.403c1.401,3.999 1.462,7.623 0.135,8.087c-1.326,0.465 -3.54,-2.404 -4.941,-6.403c-1.401,-3.998 -1.462,-7.622 -0.135,-8.087Z" style="fill:#a6a6a6;"/><path d="M151.27,453.965c0.777,-0.637 3.035,0.83 5.041,3.275c2.005,2.444 3.004,4.946 2.227,5.583c-0.776,0.636 -3.034,-0.831 -5.04,-3.276c-2.005,-2.444 -3.004,-4.946 -2.228,-5.582Z" style="fill:#a6a6a6;"/></g><ellipse cx="146.442" cy="449.047" rx="5.156" ry="15.698" style="fill:#bfbfbf;"/><g><path d="M146.317,464.859c1.983,0.316 3.051,3.97 2.384,8.154c-0.666,4.184 -2.818,7.324 -4.8,7.008c-1.983,-0.316 -3.052,-3.969 -2.385,-8.153c0.667,-4.185 2.818,-7.325 4.801,-7.009Z" style="fill:#a6a6a6;"/><path d="M144.568,480.082c1.378,0.278 1.818,3.875 0.983,8.029c-0.836,4.154 -2.633,7.301 -4.011,7.024c-1.378,-0.278 -1.818,-3.875 -0.982,-8.029c0.835,-4.153 2.632,-7.301 4.01,-7.024Z" style="fill:#a6a6a6;"/></g><g><path d="M146.357,441.421c-1.36,0.356 -1.598,3.96 -0.531,8.045c1.066,4.085 3.037,7.113 4.396,6.758c1.36,-0.355 1.598,-3.96 0.531,-8.045c-1.066,-4.085 -3.037,-7.113 -4.396,-6.758Z" style="fill:#ccc;"/><path d="M149.987,455.437c-0.26,-0.97 2.012,-2.422 5.07,-3.242c3.058,-0.82 5.752,-0.698 6.012,0.271c0.26,0.97 -2.012,2.423 -5.07,3.243c-3.058,0.819 -5.752,0.698 -6.012,-0.272Z" style="fill:#ccc;"/></g><g><path d="M147.541,464.773c1.976,-0.356 4.19,2.741 4.939,6.912c0.75,4.17 -0.245,7.844 -2.221,8.199c-1.977,0.355 -4.19,-2.742 -4.94,-6.912c-0.749,-4.17 0.246,-7.844 2.222,-8.199Z" style="fill:#ccc;"/><path d="M150.586,479.913c1.403,0.08 2.347,3.579 2.107,7.809c-0.241,4.231 -1.575,7.6 -2.979,7.52c-1.403,-0.08 -2.347,-3.579 -2.106,-7.809c0.24,-4.23 1.575,-7.6 2.978,-7.52Z" style="fill:#ccc;"/></g></g></g><path d="M162.989,464.685c0.001,0.008 1.586,9.163 0,10.995c-1.587,1.832 -7.936,1.832 -9.523,0c-1.586,-1.832 -0.001,-10.987 0,-10.995l9.523,0Zm-1.124,0c0.002,-0.965 -0.38,-1.891 -1.062,-2.574c-1.418,-1.421 -3.723,-1.424 -5.145,-0.006c-0.683,0.681 -1.067,1.606 -1.068,2.571l1.819,0.002c0,-0.482 0.192,-0.945 0.534,-1.286c0.711,-0.708 1.863,-0.707 2.572,0.004c0.341,0.341 0.532,0.804 0.531,1.287l1.819,0.002Z" style="fill:#ebd831;"/><path d="M160.078,439.947c0.002,0.008 1.587,9.163 0,10.995c-1.587,1.832 -7.935,1.832 -9.522,0c-1.586,-1.832 -0.001,-10.987 0,-10.995l9.522,0Zm-1.123,0c0.001,-0.965 -0.381,-1.89 -1.062,-2.574c-1.418,-1.421 -3.723,-1.424 -5.145,-0.006c-0.683,0.681 -1.068,1.606 -1.069,2.571l1.819,0.002c0.001,-0.482 0.193,-0.945 0.535,-1.285c0.71,-0.709 1.863,-0.708 2.572,0.003c0.341,0.341 0.532,0.804 0.531,1.287l1.819,0.002Z" style="fill:#89abe3;"/></g><g><path d="M213.509,226.246c-2.179,-0.39 -4.354,1.568 -4.855,4.37c-0.5,2.801 0.862,5.391 3.041,5.781c2.179,0.389 4.354,-1.569 4.855,-4.37c0.5,-2.801 -0.862,-5.392 -3.041,-5.781Z" style="fill:#ccc;"/><g id="_.28.Group.29.7"><path d="M215.976,241.187c-1.253,-0.635 -3.826,1.917 -5.741,5.697c-1.916,3.779 -2.453,7.363 -1.199,7.999c1.254,0.635 3.826,-1.918 5.742,-5.697c1.915,-3.779 2.452,-7.364 1.198,-7.999Z" style="fill:#a6a6a6;"/><path d="M208.98,254.704c-0.686,-0.734 -3.118,0.424 -5.428,2.583c-2.31,2.159 -3.629,4.507 -2.943,5.241c0.685,0.733 3.117,-0.424 5.427,-2.583c2.31,-2.159 3.629,-4.508 2.944,-5.241Z" style="fill:#a6a6a6;"/></g><path d="M212.543,236.474c-2.8,0.509 -3.816,7.842 -2.268,16.366c1.548,8.525 5.078,15.032 7.878,14.524c2.8,-0.509 3.816,-7.842 2.268,-16.366c-1.548,-8.525 -5.078,-15.032 -7.878,-14.524Z" style="fill:#bfbfbf;"/><g><path d="M217.919,267.894c-1.948,-0.487 -4.364,2.455 -5.391,6.565c-1.028,4.111 -0.281,7.843 1.667,8.33c1.948,0.487 4.363,-2.454 5.391,-6.565c1.028,-4.11 0.281,-7.843 -1.667,-8.33Z" style="fill:#a6a6a6;"/><path d="M214.644,282.859c-1.378,-0.275 -3.17,2.875 -3.998,7.031c-0.828,4.155 -0.382,7.751 0.996,8.026c1.379,0.275 3.17,-2.875 3.999,-7.031c0.828,-4.155 0.381,-7.752 -0.997,-8.026Z" style="fill:#a6a6a6;"/></g><g><path d="M214.79,247.217c-1.054,0.93 -4.178,-0.884 -6.972,-4.049c-2.794,-3.165 -4.207,-6.489 -3.154,-7.419c1.054,-0.931 4.178,0.884 6.972,4.048c2.794,3.165 4.207,6.49 3.154,7.42Z" style="fill:#ccc;"/><path d="M205.259,235.759c0.827,-0.569 0.041,-3.149 -1.754,-5.757c-1.796,-2.608 -3.924,-4.263 -4.751,-3.694c-0.827,0.57 -0.041,3.149 1.754,5.757c1.795,2.608 3.924,4.263 4.751,3.694Z" style="fill:#ccc;"/></g><g><path d="M219.978,267.126c-0.556,-1.93 -4.313,-2.542 -8.384,-1.368c-4.071,1.174 -6.925,3.694 -6.368,5.623c0.556,1.929 4.313,2.542 8.384,1.368c4.071,-1.175 6.925,-3.694 6.368,-5.623Z" style="fill:#ccc;"/><path d="M206.844,269.261c-1.392,0.191 -2.056,3.754 -1.48,7.952c0.576,4.198 2.173,7.451 3.566,7.26c1.392,-0.191 2.055,-3.754 1.48,-7.952c-0.576,-4.198 -2.173,-7.451 -3.566,-7.26Z" style="fill:#ccc;"/></g></g><path d="M202.181,238.939l-4.233,0.747l44.821,254.048l8.864,1.51l-49.452,-256.305Z" style="fill:none;stroke:#0d0d0d;stroke-width:1px;"/><g><path d="M265.222,489.449c0,0 -3.601,4.214 -11.051,4.214c-7.451,0 -18.241,2.238 -18.241,-2.305c0,-4.543 10.527,-10.733 17.977,-10.733c3.401,0 6.509,0.768 8.884,2.035l12.504,-20.731l1.354,0.816l-12.512,20.742c0.708,0.502 1.071,0.977 1.243,1.471l8.612,-4.252l1.185,8.611l-9.955,0.132Z" style="fill:#fff;stroke:#0d0d0d;stroke-width:1px;"/><circle cx="242.739" cy="491.727" r="3.517" style="fill:#fff;stroke:#0d0d0d;stroke-width:1px;"/><circle cx="260.717" cy="490.607" r="4.636" style="fill:#fff;stroke:#0d0d0d;stroke-width:1px;"/></g><g><path d="M222.192,483.352l-1.455,-7.199l0.728,7.199l0,7.276l0.727,0l0,-7.276Z" style="fill:#a6a6a6;"/><path d="M219.733,483.388l-3.126,-6.646l2.42,6.819l1.731,7.067l0.707,-0.173l-1.732,-7.067Z" style="fill:#a6a6a6;"/><path d="M223.227,484.74l2.456,-5.441l-1.74,5.57l-1.034,5.759l-0.717,-0.129l1.035,-5.759Z" style="fill:#a6a6a6;"/></g><g><path d="M228.309,487.968l1.455,-7.199l-0.727,7.199l0,7.276l-0.728,0l0,-7.276Z" style="fill:#a6a6a6;"/><path d="M230.768,488.004l3.127,-6.646l-2.42,6.819l-1.732,7.067l-0.706,-0.173l1.731,-7.067Z" style="fill:#a6a6a6;"/><path d="M227.275,489.356l-2.456,-5.442l1.739,5.57l1.035,5.76l0.716,-0.129l-1.034,-5.759Z" style="fill:#a6a6a6;"/></g><g><path d="M210.319,487.968l1.455,-7.199l-0.728,7.199l0,7.276l-0.727,0l0,-7.276Z" style="fill:#a6a6a6;"/><path d="M212.778,488.004l3.126,-6.646l-2.42,6.819l-1.731,7.067l-0.707,-0.173l1.732,-7.067Z" style="fill:#a6a6a6;"/><path d="M209.284,489.356l-2.456,-5.442l1.74,5.57l1.034,5.76l0.717,-0.129l-1.035,-5.759Z" style="fill:#a6a6a6;"/></g><path d="M195.73,439.22c0.001,0.008 1.586,9.163 0,10.994c-1.587,1.833 -7.935,1.833 -9.522,0c-1.587,-1.831 -0.002,-10.986 0,-10.994l9.522,0Zm-1.123,0c0.001,-0.965 -0.381,-1.891 -1.062,-2.574c-1.418,-1.422 -3.724,-1.425 -5.145,-0.007c-0.683,0.681 -1.068,1.606 -1.069,2.571l1.819,0.002c0,-0.482 0.193,-0.944 0.534,-1.285c0.711,-0.709 1.864,-0.707 2.573,0.003c0.34,0.342 0.531,0.805 0.531,1.287l1.819,0.003Z" style="fill:#ebd831;"/><path d="M32.786,133.126l-8.731,0l-2.183,13.968l13.097,0l-2.183,-13.968Z" style="fill:#8c8c8c;"/><path d="M28.421,126.6c0,0 1.185,-0.411 1.478,-0.955c0.439,-0.816 0.133,-1.835 -0.683,-2.274c-0.816,-0.438 -1.835,-0.132 -2.274,0.684c-0.211,0.392 -0.257,0.852 -0.129,1.278l-0.78,0.235c-0.191,-0.634 -0.122,-1.317 0.191,-1.899c0.652,-1.212 2.166,-1.667 3.378,-1.015c1.212,0.652 1.667,2.165 1.015,3.377c-0.276,0.512 -0.716,0.902 -1.235,1.119l11.408,6.53l0,0.901l-24.738,0l0,-0.901l12.369,-7.08Zm-10.735,7.08l21.492,0l-10.757,-6.164l0,0l-10.735,6.164Z" style="fill:#89abe3;"/><path d="M32.786,133.126l-8.731,0l1.455,32.013l5.821,0l1.455,-32.013Z" style="fill:#b3b3b3;"/><rect x="103.362" y="179.108" width="94.586" height="26.921" style="fill:none;"/><clipPath id="_clip3"><rect x="103.362" y="179.108" width="94.586" height="26.921"/></clipPath><g clip-path="url(#_clip3)"><path d="M164.479,171.468c4.417,0 8.004,3.423 8.004,7.64c0,4.216 -3.594,7.392 -8.004,7.639c-52.453,2.942 -61.117,-3.423 -61.117,-7.639c0,-4.217 56.7,-7.64 61.117,-7.64Z" style="fill:#89abe3;"/></g><rect x="103.362" y="179.108" width="94.586" height="26.921" style="fill:none;stroke:#0d0d0d;stroke-width:1px;"/><path d="M194.31,174.197c0,-0.904 -0.733,-1.637 -1.637,-1.637l-17.826,0c-0.903,0 -1.637,0.733 -1.637,1.637l0,3.274c0,0.903 0.734,1.637 1.637,1.637l17.826,0c0.904,0 1.637,-0.734 1.637,-1.637l0,-3.274Z" style="fill:#ebd831;"/></g></g><g><path d="M323.585,515.753c8.586,-16.355 43.141,-15.152 77.117,2.685c33.976,17.837 54.589,45.596 46.003,61.951c-8.587,16.356 -43.142,15.153 -77.118,-2.684c-33.975,-17.837 -54.588,-45.597 -46.002,-61.952Z" style="fill:#e6e6e6;"/><path d="M510.98,333.293l0.03,0l0.12,0.001l0.024,0c0.444,0.004 0.885,0.022 1.322,0.055l0.026,0.001l0.034,0.003l0.02,0.001l0.013,0.002c16.123,1.227 34.03,21.729 49.511,48.403c18.786,32.365 14.795,67.298 -1.95,75.096c-13.675,6.368 -33.733,-6.461 -49.162,-29.706c-15.43,23.245 -35.487,36.074 -49.162,29.706c-16.746,-7.798 -17.62,-41.447 -1.951,-75.096c13.011,-27.941 33.364,-47.152 49.482,-48.401c0.541,-0.044 1.089,-0.066 1.643,-0.065Z" style="fill:url(#_Linear4);"/><path d="M455.122,327.642l0.03,0l0.12,0l0.024,0.001c0.444,0.003 0.885,0.021 1.321,0.054l0.027,0.002l0.034,0.003l0.02,0.001l0.013,0.001c16.122,1.228 36.492,20.445 49.511,48.404c15.669,33.649 14.795,67.298 -1.95,75.096c-13.675,6.368 -33.733,-6.462 -49.162,-29.706c-15.43,23.244 -35.488,36.074 -49.163,29.706c-16.745,-7.798 -17.619,-41.447 -1.95,-75.096c13.011,-27.941 33.363,-47.152 49.481,-48.401c0.542,-0.045 1.09,-0.066 1.644,-0.065Z" style="fill:url(#_Linear5);"/><path d="M404.092,333.314c15.928,-0.644 38.548,13.307 56.484,36.382c22.78,29.306 29.433,62.303 14.849,73.639c-14.584,11.336 -44.919,-3.253 -67.699,-32.559c-1.688,-2.172 -3.288,-4.364 -4.797,-6.566c-1.64,2.136 -3.371,4.257 -5.192,6.352c-24.347,28.018 -55.433,40.929 -69.376,28.813c-13.944,-12.116 -5.498,-44.7 18.849,-72.718c18.573,-21.374 41.067,-33.956 56.882,-33.343Z" style="fill:url(#_Linear6);"/><path d="M321.787,386.071c-13.788,-6.484 -23.159,-13.868 -38.339,-28.505c-32.276,-31.123 -53.954,-55.37 -46.897,-73.231c6.788,-17.18 44.615,-1.555 79.523,23.957c18.124,13.246 34.776,25.833 49.634,40.309c14.561,14.186 23.563,24.406 40.245,45.821c3.276,4.206 6.29,8.461 9.029,12.716c6.854,-11.45 22.386,-13.382 33.67,-21.067c15.558,-10.595 32.155,-22.113 53.585,-17.422c28.145,6.161 35.896,-12.779 54.082,5.268c16.105,15.983 43.869,36.483 58.208,57.54c43.83,64.361 37.786,144.962 -13.488,179.879c-51.273,34.917 -128.485,11.012 -172.315,-53.349c-16.663,-24.469 -31.848,-56.78 -43.579,-82.282c-14.019,-13.485 -20.269,-15.618 -36.59,-36.57c-14.125,-18.132 -23.379,-37.205 -26.768,-53.064Z" style="fill:url(#_Linear7);"/></g><path d="M408.063,342.427c-6.169,-0.83 -10.916,-3.443 -10.595,-5.831c0.322,-2.388 5.591,-3.652 11.76,-2.822c6.168,0.83 10.915,3.443 10.594,5.831c-0.321,2.388 -5.59,3.652 -11.759,2.822Z" style="fill:url(#_Linear8);"/><path d="M514.359,340.707c-4.508,-0.826 -7.887,-3.037 -7.539,-4.934c0.348,-1.898 4.29,-2.768 8.799,-1.942c4.508,0.826 7.886,3.037 7.539,4.935c-0.348,1.897 -4.29,2.767 -8.799,1.941Z" style="fill:url(#_Linear9);"/><path d="M458.434,336.877c-6.073,-1.361 -10.577,-4.375 -10.05,-6.726c0.527,-2.351 6.236,-3.14 11.96,-1.872c5.268,1.167 10.576,4.454 10.049,6.805c-0.527,2.351 -5.885,3.154 -11.959,1.793Z" style="fill:url(#_Linear10);"/></g></g><defs><linearGradient id="_Linear4" x1="0" y1="0" x2="1" y2="0" gradientUnits="userSpaceOnUse" gradientTransform="matrix(-56.7517,-13.8241,13.8241,-56.7517,533.927,368.761)"><stop offset="0" style="stop-color:#f2f2f2;stop-opacity:1"/><stop offset="0.51" style="stop-color:#e3e3e3;stop-opacity:1"/><stop offset="1" style="stop-color:#b3b3b3;stop-opacity:1"/></linearGradient><linearGradient id="_Linear5" x1="0" y1="0" x2="1" y2="0" gradientUnits="userSpaceOnUse" gradientTransform="matrix(-56.7517,-13.8241,13.8241,-56.7517,478.068,363.11)"><stop offset="0" style="stop-color:#f2f2f2;stop-opacity:1"/><stop offset="0.51" style="stop-color:#e3e3e3;stop-opacity:1"/><stop offset="1" style="stop-color:#b3b3b3;stop-opacity:1"/></linearGradient><linearGradient id="_Linear6" x1="0" y1="0" x2="1" y2="0" gradientUnits="userSpaceOnUse" gradientTransform="matrix(-52.384,-26.3985,26.3985,-52.384,402.397,390.236)"><stop offset="0" style="stop-color:#f2f2f2;stop-opacity:1"/><stop offset="1" style="stop-color:#ccc;stop-opacity:1"/></linearGradient><linearGradient id="_Linear7" x1="0" y1="0" x2="1" y2="0" gradientUnits="userSpaceOnUse" gradientTransform="matrix(51.6586,-42.8936,42.8936,51.6586,343.465,431.503)"><stop offset="0" style="stop-color:#e6e6e6;stop-opacity:1"/><stop offset="0.47" style="stop-color:#efefef;stop-opacity:1"/><stop offset="1" style="stop-color:#f2f2f2;stop-opacity:1"/></linearGradient><linearGradient id="_Linear8" x1="0" y1="0" x2="1" y2="0" gradientUnits="userSpaceOnUse" gradientTransform="matrix(-8.73103,7.03567,-7.03567,-8.73103,410.393,333.707)"><stop offset="0" style="stop-color:#f2f2f2;stop-opacity:1"/><stop offset="1" style="stop-color:#e2e2e2;stop-opacity:1"/></linearGradient><linearGradient id="_Linear9" x1="0" y1="0" x2="1" y2="0" gradientUnits="userSpaceOnUse" gradientTransform="matrix(10.1862,-3.36644,3.36644,10.1862,508.627,338.453)"><stop offset="0" style="stop-color:#dfdfdf;stop-opacity:1"/><stop offset="1" style="stop-color:#f2f2f2;stop-opacity:1"/></linearGradient><linearGradient id="_Linear10" x1="0" y1="0" x2="1" y2="0" gradientUnits="userSpaceOnUse" gradientTransform="matrix(-9.45861,5.2259,-5.2259,-9.45861,459.786,328.279)"><stop offset="0" style="stop-color:#f2f2f2;stop-opacity:1"/><stop offset="1" style="stop-color:#ddd;stop-opacity:1"/></linearGradient></defs></svg>