<?xml version="1.0" encoding="UTF-8" standalone="no"?><!DOCTYPE svg PUBLIC "-//W3C//DTD SVG 1.1//EN" "http://www.w3.org/Graphics/SVG/1.1/DTD/svg11.dtd"><svg width="100%" height="100%" viewBox="0 0 1280 753" version="1.1" xmlns="http://www.w3.org/2000/svg" xmlns:xlink="http://www.w3.org/1999/xlink" xml:space="preserve" style="fill-rule:evenodd;clip-rule:evenodd;stroke-linejoin:round;stroke-miterlimit:1.41421;"><rect id="Artboard1" x="0" y="0" width="1280" height="752.869" style="fill:none;"/><g><clipPath id="_clip1"><rect x="314.847" y="60.541" width="574.836" height="559.193"/></clipPath><g clip-path="url(#_clip1)"><g><path d="M638.976,79.622c0,-8.906 -7.23,-16.137 -16.136,-16.137l-287.865,0c-8.906,0 -16.136,7.231 -16.136,16.137l0,520.692c0,8.906 7.23,16.136 16.136,16.136l287.865,0c8.906,0 16.136,-7.23 16.136,-16.136l0,-520.692Z" style="fill:none;stroke:#ebd831;stroke-width:3px;"/><circle cx="478.908" cy="591.63" r="14.552" style="fill:none;stroke:#000;stroke-width:3px;"/><path d="M506.192,94.38c0,-1.004 -0.815,-1.819 -1.819,-1.819l-50.931,0c-1.004,0 -1.819,0.815 -1.819,1.819c0,1.004 0.815,1.819 1.819,1.819l50.931,0c1.004,0 1.819,-0.815 1.819,-1.819Z"/></g><g><clipPath id="_clip2"><rect x="333.39" y="122.707" width="291.034" height="435.288"/></clipPath><g clip-path="url(#_clip2)"><rect x="333.39" y="122.707" width="291.034" height="434.522" style="fill:none;stroke:#0d0d0d;stroke-width:1px;stroke-linecap:round;stroke-miterlimit:1.5;"/><rect x="333.436" y="268.378" width="181.896" height="145.517" style="fill:none;stroke:#000;stroke-width:1px;"/><rect x="333.482" y="122.861" width="181.896" height="145.517" style="fill:none;stroke:#0d0d0d;stroke-width:1px;"/><rect x="333.482" y="177.849" width="25.465" height="90.067" style="fill:none;stroke:#000;stroke-width:1px;"/><rect x="333.39" y="413.895" width="181.896" height="143.334" style="fill:none;stroke:#0d0d0d;stroke-width:1px;stroke-linecap:round;stroke-miterlimit:1.5;"/><path d="M348.372,502.968c-0.764,-0.304 -1.744,-0.638 -2.357,-0.638c-0.581,0 -1.447,0.307 -2.141,0.6l0,10.644l-1.124,0l0,-11.244c0.002,-0.002 2.197,-1.125 3.294,-1.125c1.125,0 3.453,1.125 3.453,1.125l0,1.124l-1.125,0l0,-0.486Z"/><path d="M333.482,413.741c60.601,0.051 121.203,0.103 181.805,0.154" style="fill:none;stroke:#000;stroke-width:1px;stroke-linecap:round;stroke-miterlimit:1.5;"/><path d="M333.39,268.07c60.602,0.051 121.204,0.103 181.805,0.154" style="fill:none;stroke:#000;stroke-width:1px;stroke-linecap:round;stroke-miterlimit:1.5;"/><g><path d="M509.735,399.568c-0.316,-2.019 -0.506,-4.592 -0.506,-7.391c0,-6.486 1.018,-11.751 2.272,-11.751c1.255,0 2.273,5.265 2.273,11.751c0,4.958 -0.595,9.203 -1.436,10.927c-0.753,3.138 -5.978,10.637 -12.303,10.637c-6.842,0 -12.396,-8.775 -12.396,-11.312c0,-2.537 5.554,-4.597 12.396,-4.597c3.926,0 7.428,0.679 9.7,1.736Z" style="fill:none;stroke:#000;stroke-width:1px;"/><ellipse cx="499.47" cy="400.977" rx="9.095" ry="1.819" style="fill:none;stroke:#bfbfbf;stroke-width:1px;"/></g><g><path d="M404.834,396.112l-70.517,0l0,13.222c0,2.432 1.975,4.407 4.408,4.407l61.701,0c2.433,0 4.408,-1.975 4.408,-4.407l0,-13.222Z" style="fill:none;stroke:#000;stroke-width:1px;"/><g><path d="M404.925,316.077l-70.516,0c0,0 -1.959,64.655 0,77.585c0.714,4.716 7.091,-2.388 10.518,0c4.205,2.931 8.475,-1.7 12.177,0c10.642,4.888 10.578,-2.511 13.784,0c3.612,2.829 8.222,3.676 12.629,0c3.155,-2.632 7.842,2.621 11.361,0c2.882,-2.146 9.523,4.05 10.047,0c1.674,-12.93 0,-77.585 0,-77.585Z" style="fill:#f2f2f2;"/><path d="M343.223,393.108c-2.892,0.619 -7.341,2.899 -8.285,1.774c-2.932,-3.497 -0.529,-78.805 -0.529,-78.805l7.051,0c0,0 2.127,76.953 1.763,77.031Z" style="fill:#ebd831;"/><path d="M369.604,393.108c-0.778,0.354 -1.173,0.562 -3.768,1.806c-1.689,0.809 -4.651,0.28 -5.591,-0.064c-1.075,-0.392 -1.76,-0.354 -3.729,-1.328c-3.759,-1.861 -0.47,-77.445 -0.47,-77.445l11.937,0c0,0 1.968,76.873 1.621,77.031Z" style="fill:#ebd831;"/><path d="M396.11,393.204c-1.285,0.275 -1.731,1.131 -3.323,1.208c-1.553,0.076 -3.362,-0.678 -4.333,-0.959c-1.022,-0.296 -1.379,-0.404 -2.026,-0.506c-4.009,-0.636 -0.476,-76.87 -0.476,-76.87l8.748,0c0,0 1.774,77.049 1.41,77.127Z" style="fill:#ebd831;"/></g></g><g><path d="M500.001,361.432c1.482,1.644 0.969,4.526 -1.144,6.431c-2.114,1.906 -5.033,2.118 -6.515,0.474c-1.482,-1.644 -0.97,-4.526 1.144,-6.431c2.114,-1.906 5.033,-2.118 6.515,-0.474Z" style="fill:#ccc;"/><g id="_.28.Group.29."><path d="M486.335,375.542c1.32,-0.48 3.569,2.362 5.018,6.343c1.449,3.982 1.554,7.604 0.233,8.085c-1.321,0.481 -3.57,-2.361 -5.019,-6.343c-1.449,-3.981 -1.553,-7.604 -0.232,-8.085Z" style="fill:#a6a6a6;"/><path d="M491.197,390.239c0.691,-0.728 3.113,0.449 5.406,2.626c2.292,2.178 3.592,4.537 2.901,5.265c-0.691,0.728 -3.114,-0.449 -5.407,-2.627c-2.292,-2.178 -3.592,-4.537 -2.9,-5.264Z" style="fill:#a6a6a6;"/></g><path d="M491.591,369.054c2.331,1.632 0.189,8.719 -4.78,15.816c-4.97,7.097 -10.896,11.533 -13.228,9.901c-2.331,-1.632 -0.189,-8.719 4.781,-15.816c4.969,-7.097 10.896,-11.533 13.227,-9.901Z" style="fill:#bfbfbf;"/><g><path d="M472.937,395.229c2,0.175 3.324,3.744 2.955,7.965c-0.369,4.221 -2.293,7.506 -4.293,7.331c-2,-0.175 -3.324,-3.744 -2.955,-7.965c0.369,-4.221 2.293,-7.506 4.293,-7.331Z" style="fill:#a6a6a6;"/><path d="M472.265,409.857c0.123,1.4 -3.203,2.839 -7.424,3.211c-4.22,0.372 -7.747,-0.462 -7.871,-1.862c-0.123,-1.4 3.203,-2.839 7.424,-3.211c4.22,-0.373 7.747,0.462 7.871,1.862Z" style="fill:#a6a6a6;"/></g><g><path d="M483.884,375.7c-1.405,-0.039 -2.641,3.355 -2.758,7.575c-0.117,4.22 0.929,7.678 2.334,7.717c1.405,0.039 2.64,-3.355 2.757,-7.575c0.118,-4.221 -0.928,-7.678 -2.333,-7.717Z" style="fill:#ccc;"/><path d="M483.87,390.467c0.707,-0.712 3.105,0.521 5.352,2.752c2.247,2.231 3.496,4.62 2.789,5.333c-0.708,0.712 -3.106,-0.521 -5.352,-2.752c-2.247,-2.231 -3.497,-4.621 -2.789,-5.333Z" style="fill:#ccc;"/></g><g><path d="M472.36,393.567c0.543,-1.933 4.295,-2.572 8.374,-1.427c4.079,1.146 6.95,3.646 6.407,5.579c-0.543,1.933 -4.295,2.572 -8.374,1.426c-4.079,-1.146 -6.95,-3.645 -6.407,-5.578Z" style="fill:#ccc;"/><path d="M486.172,398.387c1.406,-0.001 2.549,3.439 2.551,7.676c0.002,4.237 -1.138,7.677 -2.543,7.678c-1.405,0.001 -2.548,-3.439 -2.55,-7.676c-0.002,-4.237 1.137,-7.677 2.542,-7.678Z" style="fill:#ccc;"/></g></g><g><path d="M442.361,204.148c1.482,1.644 0.969,4.526 -1.144,6.431c-2.114,1.906 -5.033,2.118 -6.515,0.474c-1.482,-1.644 -0.969,-4.525 1.144,-6.431c2.114,-1.905 5.033,-2.118 6.515,-0.474Z" style="fill:#ccc;"/><g id="_.28.Group.29.1"><path d="M428.695,218.259c1.321,-0.481 3.569,2.361 5.018,6.343c1.45,3.981 1.554,7.604 0.233,8.084c-1.321,0.481 -3.569,-2.361 -5.018,-6.343c-1.45,-3.981 -1.554,-7.604 -0.233,-8.084Z" style="fill:#a6a6a6;"/><path d="M433.557,232.955c0.691,-0.728 3.114,0.449 5.406,2.627c2.293,2.177 3.593,4.536 2.901,5.264c-0.691,0.728 -3.114,-0.449 -5.406,-2.627c-2.293,-2.177 -3.593,-4.536 -2.901,-5.264Z" style="fill:#a6a6a6;"/></g><path d="M433.951,211.77c2.331,1.632 0.189,8.719 -4.78,15.816c-4.969,7.097 -10.896,11.534 -13.227,9.901c-2.331,-1.632 -0.19,-8.719 4.78,-15.816c4.969,-7.097 10.896,-11.533 13.227,-9.901Z" style="fill:#bfbfbf;"/><g><path d="M415.297,237.945c2,0.175 3.325,3.744 2.955,7.965c-0.369,4.221 -2.293,7.506 -4.293,7.331c-2,-0.175 -3.324,-3.744 -2.955,-7.965c0.369,-4.221 2.293,-7.505 4.293,-7.331Z" style="fill:#a6a6a6;"/><path d="M413.626,252.264c1.405,0.024 2.486,3.483 2.412,7.72c-0.074,4.236 -1.275,7.656 -2.68,7.631c-1.405,-0.025 -2.486,-3.484 -2.412,-7.72c0.074,-4.236 1.275,-7.656 2.68,-7.631Z" style="fill:#a6a6a6;"/></g><g><path d="M426.244,218.416c-1.405,-0.039 -2.64,3.355 -2.757,7.576c-0.118,4.22 0.928,7.678 2.333,7.717c1.405,0.039 2.641,-3.356 2.758,-7.576c0.117,-4.22 -0.929,-7.678 -2.334,-7.717Z" style="fill:#ccc;"/><path d="M426.23,233.183c0.707,-0.712 3.106,0.521 5.352,2.752c2.247,2.231 3.496,4.621 2.789,5.333c-0.707,0.712 -3.106,-0.521 -5.352,-2.752c-2.247,-2.231 -3.496,-4.62 -2.789,-5.333Z" style="fill:#ccc;"/></g><g><ellipse cx="415.609" cy="244.885" rx="3.638" ry="7.677" style="fill:#ccc;"/><path d="M415.605,252.562c1.405,0 2.548,3.439 2.55,7.676c0.002,4.237 -1.137,7.677 -2.543,7.678c-1.405,0.001 -2.548,-3.438 -2.55,-7.675c-0.002,-4.237 1.137,-7.678 2.543,-7.679Z" style="fill:#ccc;"/></g></g><rect x="333.39" y="513.574" width="25.465" height="43.655" style="fill:none;stroke:#000;stroke-width:1px;"/><rect x="489.867" y="513.574" width="25.465" height="43.655" style="fill:none;stroke:#000;stroke-width:1px;"/><g><g id="_.28.Group.29.2"><path d="M366.899,554.237c-1.015,0.972 -4.218,-0.723 -7.149,-3.784c-2.93,-3.06 -4.484,-6.334 -3.469,-7.306c1.015,-0.972 4.218,0.724 7.148,3.784c2.93,3.06 4.485,6.334 3.47,7.306Z" style="fill:#a6a6a6;"/><path d="M356.529,542.744c-0.34,0.945 -3.031,0.844 -6.007,-0.226c-2.975,-1.07 -5.115,-2.705 -4.775,-3.65c0.339,-0.945 3.031,-0.843 6.006,0.227c2.976,1.069 5.116,2.705 4.776,3.649Z" style="fill:#a6a6a6;"/></g><path d="M346.192,544.817c0.665,-2.111 3.409,-3.131 6.123,-2.276c2.714,0.855 4.378,3.263 3.713,5.374c-0.665,2.111 -3.408,3.131 -6.122,2.276c-2.715,-0.855 -4.379,-3.263 -3.714,-5.374Z" style="fill:#ccc;"/><path d="M356.2,548.193c0.486,-2.803 7.811,-3.878 16.348,-2.398c8.536,1.481 15.072,4.959 14.585,7.763c-0.486,2.804 -7.811,3.878 -16.347,2.398c-8.537,-1.48 -15.072,-4.959 -14.586,-7.763Z" style="fill:#bfbfbf;"/><g><path d="M386.691,550.655c-0.16,-2.001 3.139,-3.9 7.362,-4.237c4.224,-0.338 7.783,1.014 7.943,3.015c0.159,2.001 -3.14,3.9 -7.363,4.237c-4.224,0.338 -7.783,-1.013 -7.942,-3.015Z" style="fill:#a6a6a6;"/><path d="M401.666,548.228c0.761,-1.181 4.271,-0.277 7.833,2.018c3.561,2.294 5.835,5.117 5.074,6.298c-0.762,1.182 -4.271,0.278 -7.833,-2.017c-3.562,-2.295 -5.835,-5.118 -5.074,-6.299Z" style="fill:#a6a6a6;"/></g><g><path d="M363.517,550.73c1.184,-0.756 0.301,-4.259 -1.971,-7.817c-2.272,-3.558 -5.079,-5.833 -6.263,-5.077c-1.185,0.757 -0.302,4.26 1.971,7.818c2.272,3.558 5.078,5.833 6.263,5.076Z" style="fill:#ccc;"/><path d="M355.476,537.951c-0.329,0.948 -3.025,0.876 -6.016,-0.162c-2.992,-1.038 -5.153,-2.651 -4.824,-3.599c0.329,-0.949 3.025,-0.876 6.016,0.162c2.991,1.038 5.153,2.65 4.824,3.599Z" style="fill:#ccc;"/></g><g><path d="M386.391,551.642c-0.62,-1.91 2.148,-4.523 6.177,-5.832c4.03,-1.309 7.805,-0.821 8.426,1.088c0.62,1.91 -2.148,4.523 -6.178,5.832c-4.029,1.309 -7.805,0.822 -8.425,-1.088Z" style="fill:#ccc;"/><path d="M399.478,545.967c1.005,-0.982 4.226,0.68 7.188,3.71c2.961,3.03 4.55,6.287 3.545,7.27c-1.005,0.982 -4.226,-0.68 -7.188,-3.71c-2.961,-3.03 -4.55,-6.287 -3.545,-7.27Z" style="fill:#ccc;"/></g></g><g><path d="M421.658,341.251c-2.133,-0.591 -4.482,1.155 -5.242,3.898c-0.76,2.742 0.355,5.449 2.487,6.04c2.133,0.591 4.482,-1.155 5.242,-3.898c0.761,-2.742 -0.354,-5.448 -2.487,-6.04Z" style="fill:#ccc;"/><g id="_.28.Group.29.3"><path d="M419.513,363.55c1.056,-0.928 -0.358,-4.265 -3.156,-7.447c-2.797,-3.182 -5.925,-5.012 -6.981,-4.084c-1.055,0.928 0.359,4.265 3.156,7.447c2.798,3.182 5.926,5.012 6.981,4.084Z" style="fill:#a6a6a6;"/><path d="M409.563,352.033c0.935,-0.364 0.764,-3.052 -0.382,-5.999c-1.146,-2.946 -2.837,-5.043 -3.772,-4.679c-0.936,0.364 -0.765,3.052 0.382,5.998c1.146,2.947 2.836,5.044 3.772,4.68Z" style="fill:#a6a6a6;"/></g><ellipse cx="418.872" cy="367.722" rx="5.156" ry="15.698" style="fill:#bfbfbf;"/><g><path d="M419.194,383.426c-2,0.175 -3.324,3.744 -2.955,7.965c0.369,4.22 2.293,7.505 4.293,7.33c2.001,-0.175 3.325,-3.744 2.955,-7.965c-0.369,-4.22 -2.293,-7.505 -4.293,-7.33Z" style="fill:#a6a6a6;"/><path d="M419.862,398.735c-1.394,0.179 -2.087,3.736 -1.548,7.939c0.54,4.202 2.11,7.469 3.504,7.29c1.394,-0.179 2.088,-3.737 1.548,-7.939c-0.54,-4.203 -2.11,-7.469 -3.504,-7.29Z" style="fill:#a6a6a6;"/></g><g><path d="M419.733,362.681c-0.722,1.206 -4.249,0.424 -7.871,-1.746c-3.622,-2.169 -5.976,-4.909 -5.254,-6.115c0.723,-1.205 4.249,-0.423 7.871,1.746c3.622,2.169 5.976,4.909 5.254,6.115Z" style="fill:#ccc;"/><path d="M406.611,354.939c0.934,-0.369 0.747,-3.059 -0.416,-6.004c-1.163,-2.944 -2.866,-5.036 -3.8,-4.667c-0.933,0.369 -0.747,3.059 0.417,6.004c1.163,2.945 2.866,5.036 3.799,4.667Z" style="fill:#ccc;"/></g><g><ellipse cx="418.751" cy="391.096" rx="3.638" ry="7.677" style="fill:#ccc;"/><path d="M418.755,398.773c-1.406,-0.001 -2.548,3.439 -2.55,7.676c-0.003,4.237 1.137,7.677 2.542,7.678c1.406,0 2.549,-3.439 2.551,-7.676c0.002,-4.237 -1.138,-7.677 -2.543,-7.678Z" style="fill:#ccc;"/></g></g><g><path d="M378.713,195.041c-2.133,-0.592 -4.481,1.155 -5.242,3.897c-0.76,2.742 0.355,5.449 2.487,6.04c2.133,0.591 4.482,-1.155 5.242,-3.897c0.761,-2.743 -0.354,-5.449 -2.487,-6.04Z" style="fill:#ccc;"/><g id="_.28.Group.29.4"><path d="M376.569,217.34c1.055,-0.928 -0.359,-4.265 -3.157,-7.448c-2.797,-3.182 -5.925,-5.012 -6.981,-4.084c-1.055,0.928 0.359,4.265 3.156,7.447c2.798,3.182 5.926,5.013 6.982,4.085Z" style="fill:#a6a6a6;"/><path d="M366.618,205.822c0.935,-0.363 0.764,-3.051 -0.382,-5.998c-1.146,-2.947 -2.837,-5.044 -3.772,-4.68c-0.936,0.364 -0.765,3.052 0.382,5.999c1.146,2.947 2.836,5.043 3.772,4.679Z" style="fill:#a6a6a6;"/></g><ellipse cx="375.927" cy="221.511" rx="5.156" ry="15.698" style="fill:#bfbfbf;"/><g><path d="M376.249,237.215c-2,0.175 -3.324,3.744 -2.955,7.965c0.369,4.221 2.293,7.506 4.293,7.331c2.001,-0.175 3.325,-3.744 2.955,-7.965c-0.369,-4.221 -2.293,-7.506 -4.293,-7.331Z" style="fill:#a6a6a6;"/><path d="M376.917,252.524c-1.394,0.179 -2.087,3.737 -1.548,7.939c0.54,4.203 2.11,7.469 3.504,7.29c1.394,-0.179 2.088,-3.736 1.548,-7.939c-0.54,-4.202 -2.11,-7.469 -3.504,-7.29Z" style="fill:#a6a6a6;"/></g><g><path d="M376.788,216.471c-0.722,1.205 -4.249,0.423 -7.871,-1.746c-3.622,-2.169 -5.976,-4.909 -5.254,-6.115c0.723,-1.206 4.249,-0.424 7.871,1.746c3.622,2.169 5.976,4.909 5.254,6.115Z" style="fill:#ccc;"/><path d="M363.666,208.729c0.934,-0.369 0.747,-3.059 -0.416,-6.004c-1.163,-2.945 -2.866,-5.036 -3.8,-4.667c-0.933,0.369 -0.747,3.059 0.417,6.004c1.163,2.944 2.866,5.036 3.799,4.667Z" style="fill:#ccc;"/></g><g><ellipse cx="375.806" cy="244.885" rx="3.638" ry="7.677" style="fill:#ccc;"/><path d="M375.81,252.562c-1.406,0 -2.548,3.439 -2.55,7.676c-0.002,4.237 1.137,7.677 2.542,7.678c1.406,0.001 2.549,-3.438 2.551,-7.675c0.002,-4.237 -1.138,-7.678 -2.543,-7.679Z" style="fill:#ccc;"/></g></g><g><path d="M608.346,485.242c-2.145,0.543 -3.32,3.224 -2.621,5.983c0.698,2.759 3.008,4.557 5.153,4.014c2.146,-0.544 3.32,-3.225 2.622,-5.983c-0.699,-2.759 -3.008,-4.557 -5.154,-4.014Z" style="fill:#ccc;"/><g id="_.28.Group.29.5"><path d="M610.087,500.301c-1.254,-0.635 -3.826,1.917 -5.742,5.697c-1.915,3.779 -2.452,7.363 -1.198,7.998c1.253,0.636 3.826,-1.917 5.741,-5.696c1.916,-3.78 2.453,-7.364 1.199,-7.999Z" style="fill:#a6a6a6;"/><path d="M603.091,513.818c-0.686,-0.734 -3.118,0.424 -5.428,2.583c-2.31,2.159 -3.629,4.507 -2.943,5.241c0.685,0.733 3.117,-0.424 5.427,-2.583c2.31,-2.159 3.629,-4.508 2.944,-5.241Z" style="fill:#a6a6a6;"/></g><ellipse cx="610.679" cy="511.033" rx="5.156" ry="15.698" style="fill:#bfbfbf;"/><g><path d="M610.804,526.844c-1.983,0.316 -3.051,3.97 -2.384,8.154c0.667,4.184 2.818,7.325 4.801,7.009c1.982,-0.316 3.051,-3.97 2.384,-8.154c-0.667,-4.184 -2.818,-7.325 -4.801,-7.009Z" style="fill:#a6a6a6;"/><path d="M612.553,542.068c-1.378,0.277 -1.818,3.874 -0.983,8.028c0.836,4.154 2.633,7.301 4.011,7.024c1.378,-0.277 1.818,-3.874 0.983,-8.028c-0.836,-4.154 -2.633,-7.301 -4.011,-7.024Z" style="fill:#a6a6a6;"/></g><g><path d="M610.26,502.974c1.172,0.775 0.232,4.263 -2.098,7.784c-2.33,3.521 -5.173,5.75 -6.345,4.974c-1.172,-0.776 -0.232,-4.264 2.098,-7.784c2.33,-3.521 5.173,-5.75 6.345,-4.974Z" style="fill:#ccc;"/><path d="M601.673,515.155c-0.765,-0.651 -3.051,0.779 -5.103,3.19c-2.052,2.412 -3.097,4.898 -2.332,5.548c0.765,0.651 3.051,-0.779 5.103,-3.19c2.052,-2.412 3.096,-4.898 2.332,-5.548Z" style="fill:#ccc;"/></g><g><path d="M609.58,526.758c-1.976,-0.355 -4.189,2.742 -4.939,6.912c-0.75,4.17 0.246,7.844 2.222,8.2c1.976,0.355 4.189,-2.742 4.939,-6.912c0.75,-4.17 -0.246,-7.844 -2.222,-8.2Z" style="fill:#ccc;"/><path d="M606.535,541.899c-1.403,0.08 -2.347,3.579 -2.107,7.809c0.241,4.23 1.576,7.6 2.979,7.52c1.403,-0.08 2.347,-3.579 2.106,-7.809c-0.24,-4.23 -1.575,-7.6 -2.978,-7.52Z" style="fill:#ccc;"/></g></g><g><g><g><path d="M466.495,485.242c2.146,0.543 3.321,3.224 2.622,5.983c-0.699,2.759 -3.008,4.557 -5.154,4.014c-2.145,-0.544 -3.32,-3.225 -2.621,-5.983c0.699,-2.759 3.008,-4.557 5.153,-4.014Z" style="fill:#ccc;"/><g id="_.28.Group.29.6"><path d="M463.454,501.63c1.326,-0.465 3.54,2.404 4.941,6.403c1.401,3.998 1.462,7.622 0.135,8.087c-1.326,0.465 -3.541,-2.405 -4.941,-6.403c-1.401,-3.999 -1.462,-7.623 -0.135,-8.087Z" style="fill:#a6a6a6;"/><path d="M468.609,515.95c0.776,-0.637 3.035,0.831 5.04,3.275c2.006,2.445 3.004,4.946 2.228,5.583c-0.776,0.637 -3.034,-0.831 -5.04,-3.275c-2.006,-2.444 -3.004,-4.946 -2.228,-5.583Z" style="fill:#a6a6a6;"/></g><ellipse cx="463.781" cy="511.033" rx="5.156" ry="15.698" style="fill:#bfbfbf;"/><g><path d="M463.656,526.844c1.983,0.316 3.051,3.97 2.384,8.154c-0.667,4.184 -2.818,7.325 -4.801,7.009c-1.982,-0.316 -3.051,-3.97 -2.384,-8.154c0.667,-4.184 2.818,-7.325 4.801,-7.009Z" style="fill:#a6a6a6;"/><path d="M461.907,542.068c1.378,0.277 1.818,3.874 0.983,8.028c-0.836,4.154 -2.633,7.301 -4.011,7.024c-1.378,-0.277 -1.818,-3.874 -0.983,-8.028c0.836,-4.154 2.633,-7.301 4.011,-7.024Z" style="fill:#a6a6a6;"/></g><g><path d="M463.695,503.407c-1.36,0.355 -1.597,3.96 -0.531,8.045c1.067,4.084 3.037,7.112 4.397,6.757c1.36,-0.355 1.598,-3.96 0.531,-8.044c-1.067,-4.085 -3.037,-7.113 -4.397,-6.758Z" style="fill:#ccc;"/><path d="M467.326,517.423c-0.26,-0.97 2.011,-2.423 5.07,-3.243c3.058,-0.819 5.752,-0.698 6.012,0.272c0.26,0.97 -2.012,2.422 -5.07,3.242c-3.059,0.82 -5.753,0.698 -6.012,-0.271Z" style="fill:#ccc;"/></g><g><path d="M464.88,526.758c1.976,-0.355 4.189,2.742 4.939,6.912c0.75,4.17 -0.246,7.844 -2.222,8.2c-1.976,0.355 -4.189,-2.742 -4.939,-6.912c-0.75,-4.17 0.246,-7.844 2.222,-8.2Z" style="fill:#ccc;"/><path d="M467.925,541.899c1.403,0.08 2.347,3.579 2.107,7.809c-0.241,4.23 -1.576,7.6 -2.979,7.52c-1.403,-0.08 -2.347,-3.579 -2.106,-7.809c0.24,-4.23 1.575,-7.6 2.978,-7.52Z" style="fill:#ccc;"/></g></g></g><path d="M480.327,526.671c0.002,0.008 1.587,9.163 0,10.994c-1.587,1.833 -7.935,1.833 -9.522,0c-1.586,-1.831 -0.001,-10.986 0,-10.994l9.522,0Zm-1.123,0c0.001,-0.965 -0.381,-1.891 -1.062,-2.574c-1.418,-1.422 -3.723,-1.425 -5.145,-0.007c-0.683,0.681 -1.067,1.606 -1.069,2.571l1.819,0.002c0.001,-0.482 0.193,-0.944 0.535,-1.285c0.711,-0.709 1.863,-0.708 2.572,0.003c0.341,0.342 0.532,0.805 0.531,1.287l1.819,0.003Z" style="fill:#ebd831;"/><path d="M477.417,501.933c0.002,0.008 1.586,9.163 0,10.994c-1.587,1.833 -7.935,1.833 -9.522,0c-1.587,-1.831 -0.002,-10.986 0,-10.994l9.522,0Zm-1.123,0c0.001,-0.965 -0.381,-1.891 -1.062,-2.574c-1.418,-1.422 -3.724,-1.425 -5.145,-0.007c-0.683,0.681 -1.068,1.606 -1.069,2.571l1.819,0.003c0.001,-0.483 0.193,-0.945 0.534,-1.286c0.711,-0.709 1.864,-0.707 2.573,0.003c0.34,0.342 0.531,0.805 0.531,1.287l1.819,0.003Z" style="fill:#89abe3;"/></g><g><path d="M530.848,288.231c-2.179,-0.389 -4.354,1.569 -4.855,4.37c-0.501,2.801 0.862,5.392 3.041,5.781c2.178,0.39 4.354,-1.568 4.855,-4.37c0.5,-2.801 -0.862,-5.391 -3.041,-5.781Z" style="fill:#ccc;"/><g id="_.28.Group.29.7"><path d="M533.315,303.172c-1.254,-0.635 -3.826,1.918 -5.742,5.697c-1.915,3.78 -2.452,7.364 -1.198,7.999c1.253,0.635 3.826,-1.917 5.741,-5.697c1.916,-3.779 2.453,-7.363 1.199,-7.999Z" style="fill:#a6a6a6;"/><path d="M526.319,316.689c-0.686,-0.733 -3.118,0.424 -5.428,2.583c-2.31,2.159 -3.629,4.508 -2.943,5.241c0.685,0.734 3.117,-0.424 5.427,-2.583c2.31,-2.159 3.629,-4.507 2.944,-5.241Z" style="fill:#a6a6a6;"/></g><path d="M529.882,298.46c-2.8,0.508 -3.817,7.842 -2.269,16.366c1.548,8.524 5.078,15.032 7.878,14.523c2.8,-0.508 3.817,-7.841 2.269,-16.366c-1.548,-8.524 -5.078,-15.032 -7.878,-14.523Z" style="fill:#bfbfbf;"/><g><path d="M535.258,329.88c-1.948,-0.487 -4.364,2.454 -5.392,6.565c-1.027,4.11 -0.28,7.843 1.668,8.33c1.947,0.487 4.363,-2.455 5.391,-6.565c1.028,-4.111 0.281,-7.843 -1.667,-8.33Z" style="fill:#a6a6a6;"/><path d="M531.983,344.844c-1.379,-0.275 -3.17,2.876 -3.998,7.031c-0.829,4.155 -0.382,7.752 0.996,8.027c1.379,0.274 3.17,-2.876 3.998,-7.031c0.829,-4.155 0.382,-7.752 -0.996,-8.027Z" style="fill:#a6a6a6;"/></g><g><path d="M532.128,309.203c-1.053,0.93 -4.177,-0.884 -6.971,-4.049c-2.794,-3.165 -4.208,-6.49 -3.154,-7.42c1.054,-0.93 4.178,0.884 6.972,4.049c2.794,3.165 4.207,6.489 3.153,7.42Z" style="fill:#ccc;"/><path d="M522.598,297.745c0.827,-0.57 0.041,-3.149 -1.754,-5.757c-1.796,-2.608 -3.925,-4.263 -4.752,-3.694c-0.827,0.569 -0.04,3.149 1.755,5.757c1.795,2.608 3.924,4.263 4.751,3.694Z" style="fill:#ccc;"/></g><g><path d="M537.317,329.111c-0.557,-1.929 -4.314,-2.542 -8.385,-1.368c-4.071,1.175 -6.924,3.695 -6.367,5.624c0.556,1.929 4.313,2.542 8.384,1.367c4.071,-1.174 6.924,-3.694 6.368,-5.623Z" style="fill:#ccc;"/><path d="M524.183,331.247c-1.393,0.191 -2.056,3.754 -1.48,7.952c0.575,4.197 2.173,7.45 3.566,7.259c1.392,-0.191 2.055,-3.754 1.48,-7.951c-0.576,-4.198 -2.174,-7.451 -3.566,-7.26Z" style="fill:#ccc;"/></g></g><path d="M519.52,300.925l-4.233,0.746l44.821,254.049l8.864,1.509l-49.452,-256.304Z" style="fill:none;stroke:#0d0d0d;stroke-width:1px;"/><g><path d="M582.56,551.434c0,0 -3.6,4.215 -11.051,4.215c-7.45,0 -18.24,2.238 -18.24,-2.305c0,-4.543 10.526,-10.734 17.977,-10.734c3.4,0 6.509,0.768 8.883,2.035l12.505,-20.731l1.354,0.816l-12.512,20.743c0.708,0.501 1.071,0.977 1.243,1.47l8.612,-4.252l1.185,8.612l-9.956,0.131Z" style="fill:#fff;stroke:#0d0d0d;stroke-width:1px;"/><circle cx="560.078" cy="553.712" r="3.517" style="fill:#fff;stroke:#0d0d0d;stroke-width:1px;"/><circle cx="578.056" cy="552.593" r="4.636" style="fill:#fff;stroke:#0d0d0d;stroke-width:1px;"/></g><g><path d="M539.531,545.338l-1.455,-7.199l0.728,7.199l0,7.276l0.727,0l0,-7.276Z" style="fill:#a6a6a6;"/><path d="M537.072,545.374l-3.127,-6.646l2.42,6.819l1.732,7.067l0.707,-0.174l-1.732,-7.066Z" style="fill:#a6a6a6;"/><path d="M540.566,546.726l2.456,-5.442l-1.74,5.57l-1.035,5.76l-0.716,-0.129l1.035,-5.759Z" style="fill:#a6a6a6;"/></g><g><path d="M545.648,549.953l1.455,-7.199l-0.727,7.199l0,7.276l-0.728,0l0,-7.276Z" style="fill:#a6a6a6;"/><path d="M548.107,549.989l3.127,-6.646l-2.42,6.819l-1.732,7.067l-0.706,-0.173l1.731,-7.067Z" style="fill:#a6a6a6;"/><path d="M544.613,551.341l-2.456,-5.441l1.74,5.57l1.035,5.759l0.716,-0.128l-1.035,-5.76Z" style="fill:#a6a6a6;"/></g><g><path d="M527.657,549.953l1.455,-7.199l-0.727,7.199l0,7.276l-0.728,0l0,-7.276Z" style="fill:#a6a6a6;"/><path d="M530.117,549.989l3.126,-6.646l-2.42,6.819l-1.731,7.067l-0.707,-0.173l1.732,-7.067Z" style="fill:#a6a6a6;"/><path d="M526.623,551.341l-2.456,-5.441l1.74,5.57l1.034,5.759l0.716,-0.128l-1.034,-5.76Z" style="fill:#a6a6a6;"/></g><path d="M513.069,501.205c0.001,0.008 1.586,9.163 0,10.995c-1.587,1.832 -7.936,1.832 -9.523,0c-1.586,-1.832 -0.001,-10.987 0,-10.995l9.523,0Zm-1.123,0c0.001,-0.965 -0.381,-1.891 -1.063,-2.574c-1.418,-1.421 -3.723,-1.424 -5.144,-0.006c-0.684,0.681 -1.068,1.606 -1.069,2.571l1.819,0.002c0,-0.482 0.192,-0.945 0.534,-1.286c0.711,-0.709 1.864,-0.707 2.572,0.004c0.341,0.341 0.532,0.804 0.532,1.287l1.819,0.002Z" style="fill:#ebd831;"/><path d="M350.125,195.111l-8.731,0l-2.183,13.969l13.097,0l-2.183,-13.969Z" style="fill:#8c8c8c;"/><path d="M345.759,188.585c0,0 1.186,-0.41 1.479,-0.955c0.439,-0.816 0.132,-1.834 -0.684,-2.273c-0.816,-0.439 -1.834,-0.133 -2.273,0.683c-0.211,0.392 -0.258,0.852 -0.129,1.279l-0.781,0.234c-0.19,-0.633 -0.121,-1.316 0.192,-1.899c0.652,-1.212 2.165,-1.667 3.377,-1.015c1.212,0.652 1.667,2.165 1.015,3.377c-0.275,0.513 -0.715,0.903 -1.234,1.12l11.407,6.529l0,0.901l-24.738,0l0,-0.901l12.369,-7.08Zm-10.734,7.08l21.492,0l-10.758,-6.163l0,0l-10.734,6.163Z" style="fill:#89abe3;"/><path d="M350.125,195.111l-8.731,0l1.455,32.014l5.821,0l1.455,-32.014Z" style="fill:#b3b3b3;"/><rect x="420.701" y="241.093" width="94.586" height="26.921" style="fill:none;"/><clipPath id="_clip3"><rect x="420.701" y="241.093" width="94.586" height="26.921"/></clipPath><g clip-path="url(#_clip3)"><path d="M481.818,233.454c4.417,0 8.003,3.423 8.003,7.639c0,4.217 -3.593,7.393 -8.003,7.64c-52.453,2.941 -61.117,-3.423 -61.117,-7.64c0,-4.216 56.7,-7.639 61.117,-7.639Z" style="fill:#89abe3;"/></g><rect x="420.701" y="241.093" width="94.586" height="26.921" style="fill:none;stroke:#0d0d0d;stroke-width:1px;"/><path d="M511.649,236.182c0,-0.903 -0.734,-1.637 -1.637,-1.637l-17.826,0c-0.904,0 -1.637,0.734 -1.637,1.637l0,3.274c0,0.904 0.733,1.637 1.637,1.637l17.826,0c0.903,0 1.637,-0.733 1.637,-1.637l0,-3.274Z" style="fill:#ebd831;"/></g></g><g><path d="M640.924,577.738c8.586,-16.355 43.141,-15.152 77.117,2.685c33.976,17.837 54.589,45.597 46.002,61.952c-8.586,16.355 -43.141,15.152 -77.117,-2.685c-33.976,-17.837 -54.589,-45.597 -46.002,-61.952Z" style="fill:#e6e6e6;"/><path d="M828.319,395.279l0.03,-0.001l0.12,0.001l0.024,0c0.444,0.004 0.885,0.022 1.321,0.055l0.027,0.002l0.034,0.002l0.02,0.002l0.013,0.001c16.122,1.227 34.029,21.73 49.511,48.403c18.786,32.366 14.795,67.299 -1.95,75.096c-13.675,6.368 -33.733,-6.461 -49.162,-29.705c-15.43,23.244 -35.488,36.073 -49.163,29.706c-16.745,-7.798 -17.619,-41.448 -1.95,-75.097c13.011,-27.94 33.363,-47.152 49.481,-48.4c0.542,-0.045 1.09,-0.066 1.644,-0.065Z" style="fill:url(#_Linear4);"/><path d="M772.46,389.627l0.03,0l0.12,0.001l0.024,0c0.445,0.004 0.885,0.022 1.322,0.055l0.026,0.002l0.034,0.002l0.021,0.002l0.013,0.001c16.122,1.227 36.492,20.445 49.511,48.403c15.669,33.649 14.795,67.298 -1.951,75.096c-13.675,6.368 -33.732,-6.461 -49.162,-29.706c-15.429,23.245 -35.487,36.074 -49.162,29.706c-16.745,-7.797 -17.619,-41.447 -1.95,-75.096c13.011,-27.941 33.363,-47.152 49.481,-48.401c0.542,-0.044 1.09,-0.066 1.643,-0.065Z" style="fill:url(#_Linear5);"/><path d="M721.431,395.3c15.928,-0.644 38.548,13.307 56.484,36.381c22.779,29.307 29.433,62.303 14.849,73.64c-14.584,11.336 -44.919,-3.253 -67.699,-32.559c-1.688,-2.172 -3.288,-4.364 -4.797,-6.566c-1.64,2.136 -3.372,4.256 -5.192,6.352c-24.347,28.018 -55.433,40.928 -69.377,28.812c-13.943,-12.116 -5.497,-44.7 18.85,-72.718c18.572,-21.374 41.067,-33.956 56.882,-33.342Z" style="fill:url(#_Linear6);"/><path d="M639.126,448.057c-13.789,-6.485 -23.16,-13.868 -38.339,-28.505c-32.276,-31.124 -53.954,-55.371 -46.897,-73.232c6.788,-17.179 44.614,-1.555 79.523,23.957c18.124,13.246 34.775,25.833 49.634,40.31c14.561,14.186 23.563,24.406 40.245,45.821c3.276,4.205 6.29,8.461 9.029,12.715c6.853,-11.449 22.386,-13.382 33.67,-21.066c15.558,-10.595 32.154,-22.113 53.584,-17.422c28.145,6.16 35.897,-12.78 54.083,5.268c16.105,15.983 43.869,36.483 58.208,57.539c43.83,64.361 37.786,144.963 -13.488,179.88c-51.274,34.917 -128.485,11.012 -172.315,-53.349c-16.663,-24.47 -31.848,-56.781 -43.579,-82.282c-14.02,-13.485 -20.269,-15.618 -36.59,-36.57c-14.125,-18.133 -23.379,-37.205 -26.768,-53.064Z" style="fill:url(#_Linear7);"/></g><path d="M725.402,404.413c-6.169,-0.831 -10.916,-3.443 -10.595,-5.831c0.322,-2.388 5.591,-3.653 11.759,-2.822c6.169,0.83 10.916,3.443 10.595,5.83c-0.322,2.388 -5.591,3.653 -11.759,2.823Z" style="fill:url(#_Linear8);"/><path d="M831.698,402.693c-4.509,-0.826 -7.887,-3.037 -7.539,-4.935c0.347,-1.897 4.29,-2.767 8.798,-1.941c4.509,0.826 7.887,3.037 7.54,4.934c-0.348,1.898 -4.291,2.768 -8.799,1.942Z" style="fill:url(#_Linear9);"/><path d="M775.773,398.863c-6.074,-1.362 -10.577,-4.376 -10.05,-6.727c0.527,-2.351 6.236,-3.139 11.959,-1.871c5.268,1.167 10.577,4.453 10.05,6.804c-0.527,2.351 -5.886,3.155 -11.959,1.794Z" style="fill:url(#_Linear10);"/></g></g><defs><linearGradient id="_Linear4" x1="0" y1="0" x2="1" y2="0" gradientUnits="userSpaceOnUse" gradientTransform="matrix(-56.7517,-13.8241,13.8241,-56.7517,851.265,430.747)"><stop offset="0" style="stop-color:#f2f2f2;stop-opacity:1"/><stop offset="0.51" style="stop-color:#e3e3e3;stop-opacity:1"/><stop offset="1" style="stop-color:#b3b3b3;stop-opacity:1"/></linearGradient><linearGradient id="_Linear5" x1="0" y1="0" x2="1" y2="0" gradientUnits="userSpaceOnUse" gradientTransform="matrix(-56.7517,-13.8241,13.8241,-56.7517,795.407,425.095)"><stop offset="0" style="stop-color:#f2f2f2;stop-opacity:1"/><stop offset="0.51" style="stop-color:#e3e3e3;stop-opacity:1"/><stop offset="1" style="stop-color:#b3b3b3;stop-opacity:1"/></linearGradient><linearGradient id="_Linear6" x1="0" y1="0" x2="1" y2="0" gradientUnits="userSpaceOnUse" gradientTransform="matrix(-52.384,-26.3985,26.3985,-52.384,719.736,452.222)"><stop offset="0" style="stop-color:#f2f2f2;stop-opacity:1"/><stop offset="1" style="stop-color:#ccc;stop-opacity:1"/></linearGradient><linearGradient id="_Linear7" x1="0" y1="0" x2="1" y2="0" gradientUnits="userSpaceOnUse" gradientTransform="matrix(51.6586,-42.8936,42.8936,51.6586,660.804,493.489)"><stop offset="0" style="stop-color:#e6e6e6;stop-opacity:1"/><stop offset="0.47" style="stop-color:#efefef;stop-opacity:1"/><stop offset="1" style="stop-color:#f2f2f2;stop-opacity:1"/></linearGradient><linearGradient id="_Linear8" x1="0" y1="0" x2="1" y2="0" gradientUnits="userSpaceOnUse" gradientTransform="matrix(-8.73103,7.03567,-7.03567,-8.73103,727.732,395.693)"><stop offset="0" style="stop-color:#f2f2f2;stop-opacity:1"/><stop offset="1" style="stop-color:#e2e2e2;stop-opacity:1"/></linearGradient><linearGradient id="_Linear9" x1="0" y1="0" x2="1" y2="0" gradientUnits="userSpaceOnUse" gradientTransform="matrix(10.1862,-3.36644,3.36644,10.1862,825.966,400.438)"><stop offset="0" style="stop-color:#dfdfdf;stop-opacity:1"/><stop offset="1" style="stop-color:#f2f2f2;stop-opacity:1"/></linearGradient><linearGradient id="_Linear10" x1="0" y1="0" x2="1" y2="0" gradientUnits="userSpaceOnUse" gradientTransform="matrix(-9.45861,5.2259,-5.2259,-9.45861,777.125,390.265)"><stop offset="0" style="stop-color:#f2f2f2;stop-opacity:1"/><stop offset="1" style="stop-color:#ddd;stop-opacity:1"/></linearGradient></defs></svg>