<?xml version="1.0" encoding="UTF-8" standalone="no"?><!DOCTYPE svg PUBLIC "-//W3C//DTD SVG 1.1//EN" "http://www.w3.org/Graphics/SVG/1.1/DTD/svg11.dtd"><svg width="100%" height="100%" viewBox="0 0 573 556" version="1.1" xmlns="http://www.w3.org/2000/svg" xmlns:xlink="http://www.w3.org/1999/xlink" xml:space="preserve" style="fill-rule:evenodd;clip-rule:evenodd;stroke-linejoin:round;stroke-miterlimit:1.41421;"><g><g><path d="M322.14,17.654c0,-8.906 -7.231,-16.136 -16.137,-16.136l-287.865,0c-8.906,0 -16.136,7.23 -16.136,16.136l0,520.692c0,8.906 7.23,16.136 16.136,16.136l287.865,0c8.906,0 16.137,-7.23 16.137,-16.136l0,-520.692Z" style="fill:none;stroke:#000;stroke-width:3px;"/><circle cx="162.071" cy="529.662" r="14.552" style="fill:none;stroke:#000;stroke-width:3px;"/><path d="M189.355,32.412c0,-1.004 -0.815,-1.819 -1.819,-1.819l-50.931,0c-1.004,0 -1.819,0.815 -1.819,1.819c0,1.004 0.815,1.819 1.819,1.819l50.931,0c1.004,0 1.819,-0.815 1.819,-1.819Z" style="stroke:#000;stroke-width:3px;"/></g><g><rect x="16.554" y="60.739" width="291.034" height="434.522" style="fill:none;stroke:#0d0d0d;stroke-width:3px;stroke-linecap:round;stroke-miterlimit:1.5;"/><rect x="16.599" y="206.41" width="181.896" height="145.517" style="fill:none;stroke:#000;stroke-width:1px;"/><rect x="16.645" y="60.893" width="181.896" height="145.517" style="fill:none;stroke:#0d0d0d;stroke-width:1px;"/><rect x="16.645" y="115.881" width="25.465" height="90.067" style="fill:none;stroke:#000;stroke-width:1px;"/><rect x="16.554" y="351.927" width="181.896" height="143.334" style="fill:none;stroke:#0d0d0d;stroke-width:1px;stroke-linecap:round;stroke-miterlimit:1.5;"/><path d="M31.535,441c-0.764,-0.304 -1.744,-0.638 -2.357,-0.638c-0.581,0 -1.447,0.307 -2.14,0.6l0,10.644l-1.125,0l0,-11.244c0.003,-0.002 2.197,-1.125 3.294,-1.125c1.125,0 3.453,1.125 3.453,1.125l0,1.124l-1.125,0l0,-0.486Z"/><path d="M16.645,351.773c60.602,0.051 121.203,0.103 181.805,0.154" style="fill:none;stroke:#000;stroke-width:1px;stroke-linecap:round;stroke-miterlimit:1.5;"/><path d="M16.554,206.102c60.601,0.051 121.203,0.103 181.805,0.154" style="fill:none;stroke:#000;stroke-width:1px;stroke-linecap:round;stroke-miterlimit:1.5;"/><g><path d="M192.898,337.6c-0.316,-2.019 -0.506,-4.592 -0.506,-7.391c0,-6.486 1.018,-11.751 2.273,-11.751c1.254,0 2.272,5.265 2.272,11.751c0,4.958 -0.595,9.203 -1.436,10.927c-0.753,3.138 -5.978,10.637 -12.303,10.637c-6.842,0 -12.396,-8.774 -12.396,-11.312c0,-2.537 5.554,-4.597 12.396,-4.597c3.926,0 7.429,0.679 9.7,1.736Z" style="fill:none;stroke:#000;stroke-width:1px;"/><ellipse cx="182.634" cy="339.009" rx="9.095" ry="1.819" style="fill:none;stroke:#bfbfbf;stroke-width:1px;"/></g><g><path d="M87.997,334.144l-70.516,0l0,13.222c0,2.432 1.974,4.407 4.407,4.407l61.702,0c2.432,0 4.407,-1.975 4.407,-4.407l0,-13.222Z" style="fill:none;stroke:#000;stroke-width:1px;"/><g><path d="M88.088,254.11l-70.516,0c0,0 -1.959,64.654 0,77.584c0.714,4.716 7.092,-2.388 10.518,0c4.205,2.931 8.475,-1.7 12.178,0c10.642,4.888 10.577,-2.511 13.784,0c3.611,2.829 8.222,3.677 12.628,0c3.155,-2.632 7.842,2.621 11.361,0c2.882,-2.146 9.523,4.05 10.047,0c1.675,-12.93 0,-77.584 0,-77.584Z" style="fill:#f2f2f2;"/><path d="M26.386,331.14c-2.892,0.619 -7.341,2.899 -8.285,1.774c-2.932,-3.497 -0.529,-78.804 -0.529,-78.804l7.052,0c0,0 2.126,76.952 1.762,77.03Z" style="fill:#ebd831;"/><path d="M52.767,331.14c-0.778,0.354 -1.173,0.562 -3.768,1.806c-1.689,0.809 -4.651,0.28 -5.59,-0.063c-1.075,-0.393 -1.761,-0.355 -3.729,-1.329c-3.76,-1.861 -0.471,-77.444 -0.471,-77.444l11.937,0c0,0 1.968,76.872 1.621,77.03Z" style="fill:#ebd831;"/><path d="M79.273,331.236c-1.285,0.275 -1.731,1.131 -3.323,1.208c-1.553,0.076 -3.361,-0.678 -4.332,-0.959c-1.023,-0.296 -1.38,-0.404 -2.027,-0.506c-4.008,-0.636 -0.476,-76.869 -0.476,-76.869l8.748,0c0,0 1.774,77.048 1.41,77.126Z" style="fill:#ebd831;"/></g></g><g><path d="M183.164,299.464c1.482,1.644 0.969,4.526 -1.144,6.431c-2.114,1.906 -5.033,2.118 -6.515,0.474c-1.482,-1.644 -0.969,-4.526 1.144,-6.431c2.114,-1.906 5.033,-2.118 6.515,-0.474Z" style="fill:#ccc;"/><g id="_.28.Group.29."><path d="M169.498,313.574c1.321,-0.48 3.569,2.362 5.019,6.343c1.449,3.982 1.553,7.605 0.232,8.085c-1.321,0.481 -3.569,-2.361 -5.018,-6.343c-1.45,-3.981 -1.554,-7.604 -0.233,-8.085Z" style="fill:#a6a6a6;"/><path d="M174.36,328.271c0.691,-0.728 3.114,0.449 5.406,2.626c2.293,2.178 3.593,4.537 2.901,5.265c-0.691,0.728 -3.114,-0.449 -5.406,-2.627c-2.293,-2.178 -3.593,-4.537 -2.901,-5.264Z" style="fill:#a6a6a6;"/></g><path d="M174.754,307.086c2.331,1.632 0.189,8.719 -4.78,15.816c-4.969,7.097 -10.896,11.534 -13.227,9.901c-2.331,-1.632 -0.19,-8.719 4.78,-15.816c4.969,-7.097 10.896,-11.533 13.227,-9.901Z" style="fill:#bfbfbf;"/><g><path d="M156.1,333.261c2.001,0.175 3.325,3.744 2.955,7.965c-0.369,4.221 -2.293,7.506 -4.293,7.331c-2,-0.175 -3.324,-3.744 -2.955,-7.965c0.369,-4.221 2.293,-7.506 4.293,-7.331Z" style="fill:#a6a6a6;"/><path d="M155.428,347.889c0.123,1.4 -3.203,2.839 -7.424,3.211c-4.22,0.372 -7.747,-0.462 -7.87,-1.862c-0.124,-1.4 3.202,-2.839 7.423,-3.211c4.221,-0.373 7.747,0.462 7.871,1.862Z" style="fill:#a6a6a6;"/></g><g><path d="M167.047,313.732c-1.405,-0.039 -2.64,3.355 -2.757,7.575c-0.118,4.221 0.928,7.678 2.333,7.717c1.405,0.039 2.641,-3.355 2.758,-7.575c0.117,-4.221 -0.929,-7.678 -2.334,-7.717Z" style="fill:#ccc;"/><path d="M167.033,328.499c0.707,-0.712 3.106,0.521 5.352,2.752c2.247,2.231 3.497,4.62 2.789,5.333c-0.707,0.712 -3.106,-0.521 -5.352,-2.752c-2.247,-2.231 -3.496,-4.621 -2.789,-5.333Z" style="fill:#ccc;"/></g><g><path d="M155.523,331.599c0.543,-1.933 4.295,-2.572 8.374,-1.427c4.08,1.146 6.951,3.646 6.408,5.579c-0.543,1.933 -4.296,2.572 -8.375,1.426c-4.079,-1.146 -6.95,-3.645 -6.407,-5.578Z" style="fill:#ccc;"/><path d="M169.336,336.419c1.405,0 2.548,3.439 2.55,7.676c0.002,4.237 -1.137,7.677 -2.543,7.678c-1.405,0.001 -2.548,-3.439 -2.55,-7.676c-0.002,-4.237 1.137,-7.677 2.543,-7.678Z" style="fill:#ccc;"/></g></g><g><path d="M125.524,142.18c1.482,1.644 0.97,4.526 -1.144,6.431c-2.114,1.906 -5.033,2.118 -6.515,0.474c-1.482,-1.644 -0.969,-4.525 1.145,-6.431c2.113,-1.905 5.032,-2.118 6.514,-0.474Z" style="fill:#ccc;"/><g id="_.28.Group.29.1"><path d="M111.858,156.291c1.321,-0.481 3.57,2.361 5.019,6.343c1.449,3.981 1.553,7.604 0.232,8.084c-1.32,0.481 -3.569,-2.361 -5.018,-6.343c-1.449,-3.981 -1.554,-7.604 -0.233,-8.084Z" style="fill:#a6a6a6;"/><path d="M116.72,170.987c0.691,-0.728 3.114,0.449 5.406,2.627c2.293,2.177 3.593,4.536 2.901,5.264c-0.691,0.728 -3.114,-0.449 -5.406,-2.627c-2.293,-2.177 -3.592,-4.536 -2.901,-5.264Z" style="fill:#a6a6a6;"/></g><path d="M117.114,149.802c2.331,1.632 0.19,8.719 -4.78,15.816c-4.969,7.097 -10.896,11.534 -13.227,9.901c-2.331,-1.632 -0.189,-8.719 4.78,-15.816c4.969,-7.096 10.896,-11.533 13.227,-9.901Z" style="fill:#bfbfbf;"/><g><path d="M98.461,175.978c2,0.175 3.324,3.743 2.955,7.964c-0.37,4.221 -2.293,7.506 -4.294,7.331c-2,-0.175 -3.324,-3.744 -2.955,-7.965c0.37,-4.221 2.293,-7.505 4.294,-7.33Z" style="fill:#a6a6a6;"/><path d="M96.789,190.296c1.406,0.024 2.486,3.483 2.412,7.72c-0.073,4.236 -1.274,7.656 -2.68,7.631c-1.405,-0.024 -2.486,-3.484 -2.412,-7.72c0.074,-4.236 1.275,-7.656 2.68,-7.631Z" style="fill:#a6a6a6;"/></g><g><path d="M109.408,156.448c-1.405,-0.039 -2.641,3.355 -2.758,7.576c-0.117,4.22 0.928,7.678 2.333,7.717c1.405,0.039 2.641,-3.356 2.758,-7.576c0.117,-4.22 -0.928,-7.678 -2.333,-7.717Z" style="fill:#ccc;"/><path d="M109.393,171.215c0.708,-0.712 3.106,0.521 5.352,2.752c2.247,2.231 3.497,4.621 2.789,5.333c-0.707,0.712 -3.105,-0.521 -5.352,-2.752c-2.247,-2.231 -3.496,-4.62 -2.789,-5.333Z" style="fill:#ccc;"/></g><g><ellipse cx="98.772" cy="182.918" rx="3.638" ry="7.677" style="fill:#ccc;"/><path d="M98.768,190.594c1.406,0 2.548,3.439 2.55,7.676c0.003,4.237 -1.137,7.677 -2.542,7.678c-1.406,0.001 -2.549,-3.438 -2.551,-7.675c-0.002,-4.237 1.138,-7.678 2.543,-7.679Z" style="fill:#ccc;"/></g></g><rect x="16.554" y="451.606" width="25.465" height="43.655" style="fill:none;stroke:#000;stroke-width:1px;"/><rect x="173.03" y="451.606" width="25.465" height="43.655" style="fill:none;stroke:#000;stroke-width:1px;"/><g><g id="_.28.Group.29.2"><path d="M50.062,492.269c-1.015,0.972 -4.218,-0.723 -7.148,-3.784c-2.931,-3.06 -4.485,-6.334 -3.47,-7.306c1.015,-0.972 4.218,0.724 7.148,3.784c2.931,3.06 4.485,6.334 3.47,7.306Z" style="fill:#a6a6a6;"/><path d="M39.692,480.777c-0.339,0.944 -3.031,0.843 -6.006,-0.227c-2.976,-1.07 -5.116,-2.705 -4.776,-3.65c0.34,-0.945 3.031,-0.843 6.007,0.227c2.975,1.069 5.115,2.705 4.775,3.65Z" style="fill:#a6a6a6;"/></g><path d="M29.356,482.849c0.664,-2.111 3.408,-3.131 6.122,-2.276c2.714,0.855 4.378,3.263 3.714,5.374c-0.665,2.111 -3.409,3.131 -6.123,2.276c-2.714,-0.855 -4.378,-3.263 -3.713,-5.374Z" style="fill:#ccc;"/><path d="M39.363,486.225c0.487,-2.803 7.812,-3.878 16.348,-2.398c8.536,1.481 15.072,4.959 14.586,7.763c-0.487,2.804 -7.812,3.878 -16.348,2.398c-8.536,-1.48 -15.072,-4.959 -14.586,-7.763Z" style="fill:#bfbfbf;"/><g><path d="M69.854,488.687c-0.16,-2.001 3.139,-3.9 7.363,-4.237c4.223,-0.338 7.782,1.014 7.942,3.015c0.16,2.001 -3.14,3.9 -7.363,4.237c-4.224,0.338 -7.782,-1.013 -7.942,-3.015Z" style="fill:#a6a6a6;"/><path d="M84.829,486.26c0.762,-1.181 4.271,-0.277 7.833,2.018c3.562,2.295 5.835,5.117 5.074,6.298c-0.761,1.182 -4.271,0.278 -7.833,-2.017c-3.561,-2.295 -5.835,-5.118 -5.074,-6.299Z" style="fill:#a6a6a6;"/></g><g><path d="M46.68,488.762c1.185,-0.756 0.302,-4.259 -1.971,-7.817c-2.272,-3.558 -5.078,-5.833 -6.263,-5.076c-1.185,0.756 -0.301,4.259 1.971,7.817c2.272,3.558 5.078,5.833 6.263,5.076Z" style="fill:#ccc;"/><path d="M38.639,475.983c-0.329,0.948 -3.025,0.876 -6.016,-0.162c-2.991,-1.038 -5.153,-2.651 -4.824,-3.599c0.329,-0.949 3.025,-0.876 6.016,0.162c2.992,1.038 5.153,2.65 4.824,3.599Z" style="fill:#ccc;"/></g><g><path d="M69.554,489.674c-0.62,-1.91 2.148,-4.523 6.178,-5.832c4.029,-1.309 7.804,-0.821 8.425,1.088c0.62,1.91 -2.148,4.523 -6.178,5.832c-4.029,1.309 -7.804,0.822 -8.425,-1.088Z" style="fill:#ccc;"/><path d="M82.641,483.999c1.005,-0.982 4.226,0.68 7.188,3.71c2.962,3.03 4.55,6.287 3.545,7.27c-1.005,0.982 -4.226,-0.68 -7.187,-3.71c-2.962,-3.03 -4.551,-6.287 -3.546,-7.27Z" style="fill:#ccc;"/></g></g><g><path d="M104.822,279.283c-2.133,-0.591 -4.482,1.155 -5.242,3.898c-0.761,2.742 0.354,5.449 2.487,6.04c2.133,0.591 4.481,-1.155 5.242,-3.898c0.76,-2.742 -0.355,-5.448 -2.487,-6.04Z" style="fill:#ccc;"/><g id="_.28.Group.29.3"><path d="M102.677,301.582c1.055,-0.928 -0.359,-4.265 -3.156,-7.447c-2.798,-3.182 -5.926,-5.012 -6.982,-4.084c-1.055,0.928 0.359,4.265 3.156,7.447c2.798,3.182 5.926,5.012 6.982,4.084Z" style="fill:#a6a6a6;"/><path d="M92.726,290.065c0.936,-0.364 0.765,-3.052 -0.382,-5.999c-1.146,-2.946 -2.837,-5.043 -3.772,-4.679c-0.936,0.364 -0.765,3.052 0.382,5.998c1.146,2.947 2.836,5.044 3.772,4.68Z" style="fill:#a6a6a6;"/></g><ellipse cx="102.035" cy="305.754" rx="5.156" ry="15.698" style="fill:#bfbfbf;"/><g><path d="M102.357,321.458c-2,0.175 -3.324,3.744 -2.955,7.965c0.37,4.221 2.293,7.505 4.294,7.33c2,-0.175 3.324,-3.744 2.955,-7.964c-0.37,-4.221 -2.293,-7.506 -4.294,-7.331Z" style="fill:#a6a6a6;"/><path d="M103.025,336.767c-1.394,0.179 -2.087,3.736 -1.547,7.939c0.539,4.202 2.109,7.469 3.503,7.29c1.394,-0.179 2.088,-3.737 1.548,-7.939c-0.54,-4.203 -2.11,-7.469 -3.504,-7.29Z" style="fill:#a6a6a6;"/></g><g><path d="M102.896,300.713c-0.722,1.206 -4.249,0.424 -7.871,-1.746c-3.621,-2.169 -5.976,-4.909 -5.253,-6.115c0.722,-1.205 4.249,-0.423 7.87,1.746c3.622,2.169 5.976,4.909 5.254,6.115Z" style="fill:#ccc;"/><path d="M89.774,292.971c0.934,-0.369 0.748,-3.059 -0.416,-6.004c-1.163,-2.944 -2.866,-5.036 -3.799,-4.667c-0.934,0.369 -0.748,3.059 0.416,6.004c1.163,2.945 2.866,5.036 3.799,4.667Z" style="fill:#ccc;"/></g><g><ellipse cx="101.914" cy="329.128" rx="3.638" ry="7.677" style="fill:#ccc;"/><path d="M101.918,336.805c-1.405,-0.001 -2.548,3.439 -2.55,7.676c-0.002,4.237 1.137,7.677 2.543,7.678c1.405,0 2.548,-3.439 2.55,-7.676c0.002,-4.237 -1.137,-7.677 -2.543,-7.678Z" style="fill:#ccc;"/></g></g><g><path d="M61.877,133.073c-2.133,-0.592 -4.482,1.155 -5.242,3.897c-0.761,2.743 0.354,5.449 2.487,6.04c2.133,0.592 4.481,-1.155 5.242,-3.897c0.76,-2.743 -0.355,-5.449 -2.487,-6.04Z" style="fill:#ccc;"/><g id="_.28.Group.29.4"><path d="M59.732,155.372c1.055,-0.928 -0.359,-4.265 -3.156,-7.447c-2.798,-3.183 -5.926,-5.013 -6.982,-4.085c-1.055,0.928 0.359,4.265 3.157,7.447c2.797,3.182 5.925,5.013 6.981,4.085Z" style="fill:#a6a6a6;"/><path d="M49.781,143.855c0.936,-0.364 0.765,-3.052 -0.382,-5.999c-1.146,-2.947 -2.837,-5.044 -3.772,-4.68c-0.936,0.364 -0.765,3.052 0.382,5.999c1.146,2.947 2.837,5.044 3.772,4.68Z" style="fill:#a6a6a6;"/></g><ellipse cx="59.09" cy="159.543" rx="5.156" ry="15.698" style="fill:#bfbfbf;"/><g><path d="M59.412,175.247c-2,0.175 -3.324,3.744 -2.955,7.965c0.37,4.221 2.293,7.506 4.294,7.331c2,-0.175 3.324,-3.744 2.955,-7.965c-0.37,-4.221 -2.293,-7.506 -4.294,-7.331Z" style="fill:#a6a6a6;"/><path d="M60.08,190.556c-1.394,0.179 -2.087,3.737 -1.547,7.939c0.539,4.203 2.109,7.469 3.503,7.29c1.394,-0.179 2.088,-3.736 1.548,-7.939c-0.54,-4.202 -2.11,-7.469 -3.504,-7.29Z" style="fill:#a6a6a6;"/></g><g><path d="M59.951,154.503c-0.722,1.205 -4.249,0.423 -7.871,-1.746c-3.621,-2.169 -5.976,-4.909 -5.253,-6.115c0.722,-1.206 4.249,-0.424 7.87,1.746c3.622,2.169 5.976,4.909 5.254,6.115Z" style="fill:#ccc;"/><path d="M46.829,146.761c0.934,-0.369 0.748,-3.059 -0.416,-6.004c-1.163,-2.945 -2.866,-5.036 -3.799,-4.667c-0.934,0.369 -0.748,3.059 0.416,6.004c1.163,2.944 2.866,5.036 3.799,4.667Z" style="fill:#ccc;"/></g><g><ellipse cx="58.969" cy="182.918" rx="3.638" ry="7.677" style="fill:#ccc;"/><path d="M58.973,190.594c-1.405,0 -2.548,3.439 -2.55,7.676c-0.002,4.237 1.137,7.677 2.543,7.678c1.405,0.001 2.548,-3.438 2.55,-7.675c0.002,-4.237 -1.137,-7.678 -2.543,-7.679Z" style="fill:#ccc;"/></g></g><g><path d="M291.509,423.274c-2.145,0.544 -3.32,3.224 -2.621,5.983c0.699,2.759 3.008,4.557 5.153,4.014c2.146,-0.544 3.321,-3.225 2.622,-5.983c-0.699,-2.759 -3.008,-4.557 -5.154,-4.014Z" style="fill:#ccc;"/><g id="_.28.Group.29.5"><path d="M293.25,438.333c-1.253,-0.635 -3.826,1.917 -5.741,5.697c-1.916,3.779 -2.453,7.363 -1.199,7.999c1.254,0.635 3.826,-1.918 5.742,-5.697c1.915,-3.78 2.452,-7.364 1.198,-7.999Z" style="fill:#a6a6a6;"/><path d="M286.254,451.85c-0.686,-0.734 -3.118,0.424 -5.428,2.583c-2.31,2.159 -3.629,4.507 -2.943,5.241c0.685,0.733 3.117,-0.424 5.427,-2.583c2.311,-2.159 3.629,-4.508 2.944,-5.241Z" style="fill:#a6a6a6;"/></g><ellipse cx="293.842" cy="449.065" rx="5.156" ry="15.698" style="fill:#bfbfbf;"/><g><path d="M293.967,464.876c-1.982,0.316 -3.051,3.97 -2.384,8.154c0.667,4.184 2.818,7.325 4.801,7.009c1.983,-0.316 3.051,-3.97 2.384,-8.154c-0.667,-4.184 -2.818,-7.325 -4.801,-7.009Z" style="fill:#a6a6a6;"/><path d="M295.716,480.1c-1.378,0.277 -1.818,3.875 -0.982,8.028c0.835,4.154 2.632,7.301 4.01,7.024c1.378,-0.277 1.818,-3.874 0.983,-8.028c-0.836,-4.154 -2.633,-7.301 -4.011,-7.024Z" style="fill:#a6a6a6;"/></g><g><path d="M293.423,441.006c1.172,0.775 0.232,4.263 -2.098,7.784c-2.329,3.521 -5.172,5.75 -6.344,4.974c-1.173,-0.775 -0.233,-4.264 2.097,-7.784c2.33,-3.521 5.173,-5.75 6.345,-4.974Z" style="fill:#ccc;"/><path d="M284.836,453.187c-0.765,-0.651 -3.051,0.779 -5.103,3.19c-2.051,2.412 -3.096,4.898 -2.332,5.548c0.765,0.651 3.051,-0.779 5.103,-3.19c2.052,-2.412 3.097,-4.898 2.332,-5.548Z" style="fill:#ccc;"/></g><g><path d="M292.743,464.79c-1.976,-0.355 -4.189,2.742 -4.939,6.912c-0.75,4.17 0.246,7.844 2.222,8.2c1.976,0.355 4.189,-2.742 4.939,-6.912c0.75,-4.17 -0.246,-7.844 -2.222,-8.2Z" style="fill:#ccc;"/><path d="M289.698,479.931c-1.403,0.08 -2.347,3.579 -2.106,7.809c0.24,4.23 1.575,7.6 2.978,7.52c1.403,-0.08 2.347,-3.579 2.107,-7.809c-0.241,-4.23 -1.576,-7.6 -2.979,-7.52Z" style="fill:#ccc;"/></g></g><g><g><g><path d="M149.659,423.274c2.145,0.544 3.32,3.224 2.621,5.983c-0.699,2.759 -3.008,4.557 -5.153,4.014c-2.146,-0.544 -3.321,-3.225 -2.622,-5.983c0.699,-2.759 3.008,-4.557 5.154,-4.014Z" style="fill:#ccc;"/><g id="_.28.Group.29.6"><path d="M146.617,439.662c1.326,-0.465 3.541,2.404 4.941,6.403c1.401,3.999 1.462,7.622 0.135,8.087c-1.326,0.465 -3.54,-2.405 -4.941,-6.403c-1.401,-3.999 -1.462,-7.623 -0.135,-8.087Z" style="fill:#a6a6a6;"/><path d="M151.772,453.982c0.777,-0.637 3.035,0.831 5.041,3.275c2.005,2.445 3.004,4.946 2.227,5.583c-0.776,0.637 -3.034,-0.831 -5.04,-3.275c-2.005,-2.444 -3.004,-4.946 -2.228,-5.583Z" style="fill:#a6a6a6;"/></g><ellipse cx="146.944" cy="449.065" rx="5.156" ry="15.698" style="fill:#bfbfbf;"/><g><path d="M146.819,464.876c1.983,0.316 3.051,3.97 2.384,8.154c-0.666,4.184 -2.818,7.325 -4.8,7.009c-1.983,-0.316 -3.052,-3.97 -2.385,-8.154c0.667,-4.184 2.818,-7.325 4.801,-7.009Z" style="fill:#a6a6a6;"/><path d="M145.07,480.1c1.378,0.277 1.818,3.875 0.983,8.028c-0.836,4.154 -2.633,7.301 -4.011,7.024c-1.378,-0.277 -1.818,-3.874 -0.982,-8.028c0.835,-4.154 2.632,-7.301 4.01,-7.024Z" style="fill:#a6a6a6;"/></g><g><path d="M146.859,441.439c-1.36,0.355 -1.598,3.96 -0.531,8.045c1.066,4.084 3.037,7.112 4.396,6.757c1.36,-0.355 1.598,-3.96 0.531,-8.044c-1.066,-4.085 -3.037,-7.113 -4.396,-6.758Z" style="fill:#ccc;"/><path d="M150.489,455.455c-0.26,-0.97 2.012,-2.423 5.07,-3.243c3.058,-0.819 5.752,-0.698 6.012,0.272c0.26,0.97 -2.012,2.422 -5.07,3.242c-3.058,0.82 -5.752,0.698 -6.012,-0.271Z" style="fill:#ccc;"/></g><g><path d="M148.043,464.79c1.976,-0.355 4.19,2.742 4.939,6.912c0.75,4.17 -0.245,7.844 -2.221,8.2c-1.977,0.355 -4.19,-2.742 -4.94,-6.912c-0.749,-4.17 0.246,-7.844 2.222,-8.2Z" style="fill:#ccc;"/><path d="M151.088,479.931c1.403,0.08 2.347,3.579 2.107,7.809c-0.241,4.23 -1.575,7.6 -2.979,7.52c-1.403,-0.08 -2.347,-3.579 -2.106,-7.809c0.24,-4.23 1.575,-7.6 2.978,-7.52Z" style="fill:#ccc;"/></g></g></g><path d="M163.491,464.703c0.001,0.008 1.586,9.163 0,10.994c-1.587,1.833 -7.936,1.833 -9.523,0c-1.586,-1.831 -0.001,-10.986 0,-10.994l9.523,0Zm-1.124,0c0.002,-0.965 -0.38,-1.891 -1.062,-2.574c-1.418,-1.422 -3.723,-1.425 -5.145,-0.007c-0.683,0.681 -1.067,1.606 -1.068,2.571l1.819,0.002c0,-0.482 0.192,-0.944 0.534,-1.285c0.711,-0.709 1.863,-0.707 2.572,0.003c0.341,0.342 0.532,0.805 0.531,1.287l1.819,0.003Z" style="fill:#ebd831;"/><path d="M160.58,439.965c0.002,0.008 1.587,9.163 0,10.994c-1.587,1.833 -7.935,1.833 -9.522,0c-1.586,-1.831 -0.001,-10.986 0,-10.994l9.522,0Zm-1.123,0c0.001,-0.965 -0.381,-1.891 -1.062,-2.574c-1.418,-1.422 -3.723,-1.425 -5.145,-0.007c-0.683,0.682 -1.068,1.606 -1.069,2.571l1.819,0.003c0.001,-0.483 0.193,-0.945 0.535,-1.286c0.71,-0.709 1.863,-0.707 2.572,0.003c0.341,0.342 0.532,0.805 0.531,1.287l1.819,0.003Z" style="fill:#89abe3;"/></g><g><path d="M214.011,226.263c-2.179,-0.389 -4.354,1.569 -4.855,4.37c-0.5,2.801 0.862,5.392 3.041,5.781c2.179,0.39 4.354,-1.568 4.855,-4.37c0.5,-2.801 -0.862,-5.391 -3.041,-5.781Z" style="fill:#ccc;"/><g id="_.28.Group.29.7"><path d="M216.478,241.205c-1.253,-0.636 -3.826,1.917 -5.741,5.696c-1.916,3.78 -2.453,7.364 -1.199,7.999c1.254,0.635 3.826,-1.917 5.742,-5.697c1.915,-3.779 2.452,-7.363 1.198,-7.998Z" style="fill:#a6a6a6;"/><path d="M209.482,254.721c-0.686,-0.733 -3.118,0.424 -5.428,2.583c-2.31,2.16 -3.629,4.508 -2.943,5.241c0.685,0.734 3.117,-0.424 5.427,-2.583c2.31,-2.159 3.629,-4.507 2.944,-5.241Z" style="fill:#a6a6a6;"/></g><path d="M213.045,236.492c-2.8,0.508 -3.816,7.842 -2.268,16.366c1.548,8.524 5.078,15.032 7.878,14.523c2.8,-0.508 3.816,-7.841 2.268,-16.366c-1.548,-8.524 -5.078,-15.032 -7.878,-14.523Z" style="fill:#bfbfbf;"/><g><path d="M218.421,267.912c-1.948,-0.487 -4.364,2.454 -5.391,6.565c-1.028,4.11 -0.281,7.843 1.667,8.33c1.948,0.487 4.363,-2.455 5.391,-6.565c1.028,-4.111 0.281,-7.843 -1.667,-8.33Z" style="fill:#a6a6a6;"/><path d="M215.146,282.876c-1.378,-0.275 -3.17,2.876 -3.998,7.031c-0.828,4.155 -0.382,7.752 0.996,8.027c1.379,0.275 3.17,-2.876 3.999,-7.031c0.828,-4.155 0.381,-7.752 -0.997,-8.027Z" style="fill:#a6a6a6;"/></g><g><path d="M215.292,247.235c-1.054,0.93 -4.178,-0.884 -6.972,-4.049c-2.794,-3.165 -4.207,-6.49 -3.154,-7.42c1.054,-0.93 4.178,0.884 6.972,4.049c2.794,3.165 4.207,6.489 3.154,7.42Z" style="fill:#ccc;"/><path d="M205.761,235.777c0.827,-0.57 0.041,-3.149 -1.754,-5.757c-1.796,-2.608 -3.924,-4.263 -4.751,-3.694c-0.827,0.569 -0.041,3.149 1.754,5.757c1.795,2.608 3.924,4.263 4.751,3.694Z" style="fill:#ccc;"/></g><g><path d="M220.48,267.143c-0.556,-1.929 -4.313,-2.542 -8.384,-1.367c-4.071,1.174 -6.925,3.694 -6.368,5.623c0.556,1.929 4.313,2.542 8.384,1.367c4.071,-1.174 6.925,-3.694 6.368,-5.623Z" style="fill:#ccc;"/><path d="M207.346,269.279c-1.392,0.191 -2.056,3.754 -1.48,7.952c0.576,4.197 2.173,7.45 3.566,7.259c1.392,-0.191 2.055,-3.754 1.48,-7.951c-0.576,-4.198 -2.173,-7.451 -3.566,-7.26Z" style="fill:#ccc;"/></g></g><path d="M245.924,494.203l6.211,1.058l-0.292,-1.516" style="fill:none;stroke:#0d0d0d;stroke-width:1px;"/><path d="M249.452,481.354l-46.769,-242.397l-4.233,0.747l43.259,245.193" style="fill:none;stroke:#0d0d0d;stroke-width:1px;"/><g><path d="M240.628,494.131c-2.402,-0.252 -4.196,-1.002 -4.196,-2.755c0,-4.543 10.527,-10.734 17.977,-10.734c3.401,0 6.509,0.768 8.884,2.035l12.504,-20.731l1.354,0.816l-12.512,20.743c0.708,0.501 1.071,0.977 1.243,1.47l8.612,-4.252l1.185,8.612l-9.955,0.131" style="fill:none;stroke:#0d0d0d;stroke-width:1px;"/><path d="M257.431,493.479c-0.853,0.128 -1.772,0.202 -2.758,0.202c-2.688,0 -5.81,0.291 -8.703,0.45" style="fill:none;stroke:#0d0d0d;stroke-width:1px;"/><circle cx="243.241" cy="491.744" r="3.517" style="fill:none;stroke:#0d0d0d;stroke-width:1px;"/><circle cx="261.219" cy="490.625" r="4.636" style="fill:none;stroke:#0d0d0d;stroke-width:1px;"/></g><g><path d="M222.694,483.37l-1.455,-7.199l0.728,7.199l0,7.276l0.727,0l0,-7.276Z" style="fill:#a6a6a6;"/><path d="M220.235,483.406l-3.126,-6.646l2.42,6.819l1.731,7.067l0.707,-0.173l-1.732,-7.067Z" style="fill:#a6a6a6;"/><path d="M223.729,484.758l2.456,-5.442l-1.74,5.57l-1.034,5.76l-0.717,-0.129l1.035,-5.759Z" style="fill:#a6a6a6;"/></g><g><path d="M228.811,487.985l1.455,-7.199l-0.727,7.199l0,7.276l-0.728,0l0,-7.276Z" style="fill:#a6a6a6;"/><path d="M231.27,488.021l3.127,-6.646l-2.42,6.819l-1.732,7.067l-0.706,-0.173l1.731,-7.067Z" style="fill:#a6a6a6;"/><path d="M227.777,489.373l-2.456,-5.441l1.739,5.57l1.035,5.759l0.716,-0.128l-1.034,-5.76Z" style="fill:#a6a6a6;"/></g><g><path d="M210.821,487.985l1.455,-7.199l-0.728,7.199l0,7.276l-0.727,0l0,-7.276Z" style="fill:#a6a6a6;"/><path d="M213.28,488.021l3.126,-6.646l-2.42,6.819l-1.731,7.067l-0.707,-0.173l1.732,-7.067Z" style="fill:#a6a6a6;"/><path d="M209.786,489.373l-2.456,-5.441l1.74,5.57l1.034,5.759l0.717,-0.128l-1.035,-5.76Z" style="fill:#a6a6a6;"/></g><path d="M196.232,439.237c0.001,0.008 1.586,9.163 0,10.995c-1.587,1.832 -7.935,1.832 -9.522,0c-1.587,-1.832 -0.002,-10.987 0,-10.995l9.522,0Zm-1.123,0c0.001,-0.965 -0.381,-1.891 -1.062,-2.574c-1.418,-1.421 -3.724,-1.424 -5.145,-0.006c-0.683,0.681 -1.068,1.606 -1.069,2.571l1.819,0.002c0,-0.482 0.193,-0.945 0.534,-1.286c0.711,-0.708 1.864,-0.707 2.573,0.004c0.34,0.341 0.531,0.804 0.531,1.287l1.819,0.002Z" style="fill:#ebd831;"/><path d="M33.288,133.143l-8.731,0l-2.183,13.969l13.097,0l-2.183,-13.969Z" style="fill:#8c8c8c;"/><path d="M28.923,126.617c0,0 1.185,-0.41 1.478,-0.955c0.439,-0.816 0.133,-1.834 -0.683,-2.273c-0.816,-0.439 -1.835,-0.133 -2.274,0.683c-0.211,0.392 -0.257,0.852 -0.129,1.279l-0.78,0.234c-0.191,-0.633 -0.122,-1.316 0.191,-1.899c0.652,-1.212 2.166,-1.667 3.378,-1.015c1.212,0.652 1.667,2.165 1.015,3.377c-0.276,0.513 -0.716,0.903 -1.235,1.12l11.408,6.53l0,0.9l-24.738,0l0,-0.9l12.369,-7.081Zm-10.735,7.081l21.492,0l-10.757,-6.164l0,0l-10.735,6.164Z" style="fill:#89abe3;"/><path d="M33.288,133.143l-8.731,0l1.455,32.014l5.821,0l1.455,-32.014Z" style="fill:#b3b3b3;"/><rect x="103.864" y="179.125" width="94.586" height="26.921" style="fill:none;"/><clipPath id="_clip1"><rect x="103.864" y="179.125" width="94.586" height="26.921"/></clipPath><g clip-path="url(#_clip1)"><path d="M164.981,171.486c4.417,0 8.004,3.423 8.004,7.639c0,4.217 -3.594,7.393 -8.004,7.64c-52.453,2.941 -61.117,-3.423 -61.117,-7.64c0,-4.216 56.7,-7.639 61.117,-7.639Z" style="fill:#89abe3;"/></g><rect x="103.864" y="179.125" width="94.586" height="26.921" style="fill:none;stroke:#0d0d0d;stroke-width:1px;"/><path d="M194.812,174.214c0,-0.903 -0.733,-1.637 -1.637,-1.637l-17.826,0c-0.903,0 -1.637,0.734 -1.637,1.637l0,3.274c0,0.904 0.734,1.637 1.637,1.637l17.826,0c0.904,0 1.637,-0.733 1.637,-1.637l0,-3.274Z" style="fill:#ebd831;"/></g><g><path d="M326.192,516.647c8.586,-16.355 43.141,-15.152 77.117,2.685c33.976,17.837 54.589,45.596 46.003,61.951c-8.587,16.356 -43.142,15.153 -77.117,-2.684c-33.976,-17.837 -54.589,-45.597 -46.003,-61.952Z" style="fill:#e6e6e6;"/><path d="M513.587,334.187l0.03,0l0.12,0.001l0.024,0c0.444,0.004 0.885,0.022 1.322,0.055l0.026,0.001l0.034,0.003l0.02,0.002l0.013,0.001c16.123,1.227 34.03,21.729 49.512,48.403c18.785,32.366 14.794,67.298 -1.951,75.096c-13.675,6.368 -33.733,-6.461 -49.162,-29.706c-15.43,23.245 -35.487,36.074 -49.162,29.706c-16.746,-7.798 -17.62,-41.447 -1.951,-75.096c13.011,-27.941 33.364,-47.152 49.482,-48.401c0.541,-0.044 1.089,-0.066 1.643,-0.065Z" style="fill:url(#_Linear2);"/><path d="M457.729,328.536l0.03,0l0.12,0.001l0.024,0c0.444,0.003 0.885,0.021 1.321,0.054l0.027,0.002l0.034,0.003l0.02,0.001l0.013,0.001c16.123,1.228 36.492,20.445 49.511,48.404c15.669,33.649 14.795,67.298 -1.95,75.096c-13.675,6.368 -33.733,-6.462 -49.162,-29.706c-15.43,23.245 -35.488,36.074 -49.163,29.706c-16.745,-7.798 -17.619,-41.447 -1.95,-75.096c13.011,-27.941 33.363,-47.152 49.482,-48.401c0.541,-0.045 1.089,-0.066 1.643,-0.065Z" style="fill:url(#_Linear3);"/><path d="M406.699,334.209c15.928,-0.645 38.548,13.306 56.484,36.381c22.78,29.306 29.433,62.303 14.849,73.639c-14.584,11.337 -44.919,-3.253 -67.699,-32.559c-1.688,-2.172 -3.288,-4.364 -4.796,-6.566c-1.641,2.136 -3.372,4.257 -5.193,6.352c-24.346,28.019 -55.433,40.929 -69.376,28.813c-13.944,-12.116 -5.498,-44.7 18.849,-72.718c18.573,-21.374 41.068,-33.956 56.882,-33.342Z" style="fill:url(#_Linear4);"/><path d="M324.394,386.965c-13.788,-6.484 -23.159,-13.868 -38.339,-28.505c-32.276,-31.123 -53.954,-55.37 -46.897,-73.231c6.788,-17.18 44.615,-1.555 79.523,23.957c18.124,13.246 34.776,25.833 49.634,40.309c14.561,14.186 23.564,24.406 40.246,45.822c3.275,4.205 6.289,8.46 9.029,12.715c6.853,-11.45 22.385,-13.382 33.669,-21.067c15.559,-10.595 32.155,-22.113 53.585,-17.422c28.145,6.161 35.896,-12.779 54.082,5.268c16.105,15.983 43.869,36.483 58.209,57.54c43.829,64.361 37.785,144.962 -13.489,179.879c-51.273,34.917 -128.485,11.012 -172.314,-53.349c-16.664,-24.469 -31.849,-56.78 -43.58,-82.281c-14.019,-13.485 -20.268,-15.619 -36.59,-36.571c-14.125,-18.132 -23.379,-37.205 -26.768,-53.064Z" style="fill:url(#_Linear5);"/></g></g><defs><linearGradient id="_Linear2" x1="0" y1="0" x2="1" y2="0" gradientUnits="userSpaceOnUse" gradientTransform="matrix(-56.7517,-13.8241,13.8241,-56.7517,536.534,369.655)"><stop offset="0" style="stop-color:#f2f2f2;stop-opacity:1"/><stop offset="0.51" style="stop-color:#e3e3e3;stop-opacity:1"/><stop offset="1" style="stop-color:#b3b3b3;stop-opacity:1"/></linearGradient><linearGradient id="_Linear3" x1="0" y1="0" x2="1" y2="0" gradientUnits="userSpaceOnUse" gradientTransform="matrix(-56.7517,-13.8241,13.8241,-56.7517,480.676,364.004)"><stop offset="0" style="stop-color:#f2f2f2;stop-opacity:1"/><stop offset="0.51" style="stop-color:#e3e3e3;stop-opacity:1"/><stop offset="1" style="stop-color:#b3b3b3;stop-opacity:1"/></linearGradient><linearGradient id="_Linear4" x1="0" y1="0" x2="1" y2="0" gradientUnits="userSpaceOnUse" gradientTransform="matrix(-52.384,-26.3985,26.3985,-52.384,405.005,391.13)"><stop offset="0" style="stop-color:#f2f2f2;stop-opacity:1"/><stop offset="1" style="stop-color:#ccc;stop-opacity:1"/></linearGradient><linearGradient id="_Linear5" x1="0" y1="0" x2="1" y2="0" gradientUnits="userSpaceOnUse" gradientTransform="matrix(51.6586,-42.8936,42.8936,51.6586,346.072,432.397)"><stop offset="0" style="stop-color:#e6e6e6;stop-opacity:1"/><stop offset="0.47" style="stop-color:#efefef;stop-opacity:1"/><stop offset="1" style="stop-color:#f2f2f2;stop-opacity:1"/></linearGradient></defs></svg>