<?xml version="1.0" encoding="UTF-8" standalone="no"?><!DOCTYPE svg PUBLIC "-//W3C//DTD SVG 1.1//EN" "http://www.w3.org/Graphics/SVG/1.1/DTD/svg11.dtd"><svg width="100%" height="100%" viewBox="0 0 20 20" version="1.1" xmlns="http://www.w3.org/2000/svg" xmlns:xlink="http://www.w3.org/1999/xlink" xml:space="preserve" style="fill-rule:evenodd;clip-rule:evenodd;stroke-linejoin:round;stroke-miterlimit:1.41421;"><path id="Instagram-Icon" d="M16.871,19.995l-13.747,0c-1.725,0 -3.124,-1.399 -3.124,-3.124l0,-13.747c0,-1.726 1.399,-3.124 3.124,-3.124l13.747,0c1.726,0 3.124,1.398 3.124,3.124l0,13.747c0,1.725 -1.398,3.124 -3.124,3.124Zm-6.873,-13.33c-1.841,0 -3.333,1.492 -3.333,3.332c0,1.841 1.492,3.333 3.333,3.333c1.84,0 3.332,-1.492 3.332,-3.333c0,-1.84 -1.492,-3.332 -3.332,-3.332Zm7.498,-2.916c0,-0.69 -0.56,-1.25 -1.25,-1.25l-0.833,0c-0.69,0 -1.25,0.56 -1.25,1.25l0,0.833c0,0.69 0.56,1.25 1.25,1.25l0.833,0c0.69,0 1.25,-0.56 1.25,-1.25l0,-0.833Zm0,4.582l-1.937,0c0.159,0.531 0.271,1.084 0.271,1.666c0,3.221 -2.611,5.833 -5.832,5.833c-3.221,0 -5.832,-2.612 -5.832,-5.833c0,-0.582 0.111,-1.135 0.271,-1.666l-1.938,0l0,7.915c0,0.69 0.56,1.25 1.25,1.25l12.497,0c0.69,0 1.25,-0.56 1.25,-1.25l0,-7.915Z"/></svg>