<?xml version="1.0" encoding="utf-8"?>
<!-- Generator: Adobe Illustrator 17.1.0, SVG Export Plug-In . SVG Version: 6.00 Build 0)  -->
<!DOCTYPE svg PUBLIC "-//W3C//DTD SVG 1.1//EN" "http://www.w3.org/Graphics/SVG/1.1/DTD/svg11.dtd">
<svg version="1.1" id="Layer_1" xmlns="http://www.w3.org/2000/svg" xmlns:xlink="http://www.w3.org/1999/xlink" x="0px" y="0px"
	 viewBox="0 0 149.7 296.8" enable-background="new 0 0 149.7 296.8" xml:space="preserve">
<path fill="#E28956" d="M57.8,79.1l9,16.2c0.5,1.6,5.1,3.7,6.9,4.2l25.4,7.7c2.1-0.1,4.3-2.6,4.1-4.6l-0.7-1.1
	c-0.2-1.7-2.8-1.4-4.5-1.6l-20.6-7c-1.6-0.5-4.8-1.5-5.8-3l-7.3-14.4"/>
<path fill="#EBD932" d="M56.4,80.7c-1.8,3.4,2.4,33.6,5.7,38.8c2.7,4.3,1.6,11,2.2,16.6c-1.3,2.4-3.6,3-6,2.7
	c-11.6-1.4-23-3.7-34.3-6.6c-1.3-0.3-2.1-1.4-3.1-2.3c-1.4-6.7,1.8-9.8,2.6-13.5c1.1-5.4,1-35.1-6.3-35.5c-4.2-0.2-11-2.2-11-7.1
	c0-11.5,4.7-16.4,12.1-15c12.6,7.4,25.6,6.4,38.8,1.7c9.4-0.1,10.3,7,10.3,13.5C67.3,79.4,61.9,79.2,56.4,80.7z"/>
<path fill="#E28956" d="M45.4,169.5c1.2-1.2,1.1-2.8,1.2-4.3c0.4-3.7-2.4,10.1,1.3,8.2c4.3-2.3,9.9-2.2,15-2.9c0.2,0,0.6,1.3,0.9,2
	c-0.9,3.8-1.3,7.9-2.9,11.3c-4.6,9.8-4.3,20.3-3.9,30.6c0.5,15.3-0.8,30.2-6,44.7c-3.2,9-2.7,18.2,0.8,27.1
	c-4.3,5.5-8.4,4.4-12.3-0.5c4-23.4,3.6-47,3.6-70.6C43,206.3,44.6,178.4,45.4,169.5z"/>
<path fill="#E28956" d="M57,60.5c-11.7,9.1-27.6,8.4-38.8-1.7c13.3-4.1,13.5-5.2,9.2-18.4c-2.2-6.9-5.6-14-2.2-21.6
	c3.1-3.9,6.3-7.9,12.2-6.3c5.8,1.6,8.7,5.4,8.8,11.4c0,1.1,0.7,1.9,1.6,2.6c0.7,5.2-2.9,9.1-4.3,13.7C40,51.2,41,54.1,51.8,58.6
	C53.5,59.3,55.3,59.9,57,60.5z"/>
<path fill="#11192A" d="M39.5,285.7c4,2.6,8.1,2.9,12.3,0.5c2.4,1.6,3.2,4.2,1.2,5.8c-3,2.5-7.1,1.1-10.6,0.5
	C38.5,291.8,38.9,288.7,39.5,285.7z"/>
<path fill="#E28956" d="M100.2,100.3c4-0.9,7.6-3.3,11.9-3c1.2,3-2.8,1.9-2.6,4.2c1.8,0.5,3.8,1.1,5.8,1.6c0.6,0.2,0.7,1,0.2,1.3
	c-3.6,2.7-7.7,3.8-12.3,3.3c-2-0.2-4.5,0.2-5.7-1.7C95.9,103.2,99.6,102.3,100.2,100.3z"/>
<path fill="#E28956" d="M31.7,170.5c-1.1-1.3-0.7-2.9-0.7-4.5c0-3.7,3.4,10.4-0.1,8.1c-4.1-2.7-9.6-3.3-14.6-4.6
	c-0.2-0.1-0.7,1.2-1.1,1.9c0.5,3.9,0.4,8,1.6,11.6c3.4,10.3,1.9,20.7,0.4,30.8c-2.3,15.2-2.6,30.1,0.9,45.1
	c2.2,9.3,0.7,18.4-3.9,26.9c3.7,6,7.8,5.4,12.3,1c-1.3-23.7,1.8-47.1,4.5-70.5C32,207.4,31.5,179.4,31.7,170.5z"/>
<path fill="#11192A" d="M26.5,286.7c-4.3,2.1-8.4,1.9-12.3-1c-2.5,1.3-3.6,3.8-1.8,5.6c2.7,2.8,6.9,1.9,10.4,1.7
	C26.7,292.9,26.7,289.7,26.5,286.7z"/>
<path fill="#1E2434" d="M29.8,54.7c-8,7.1-0.4,4.8-12.2,4.3c-2.1-7.1-5.8,4-11.5-0.4c2.5-1.5,6.7-16,6.7-19
	C13.1,26,15.7,17.7,24.3,11c12.2-9.5,21.4-7.5,25.6,7.1c5.6,19.7,11,19,17.7,39.4c-9-1.2-3.2,3.8-7,5.6c-1.9,0.2-2.9-1.1-3.6-3.3
	c-8.5-6.4-5.7,2.6-12.9-5.4c-6-6.8,1.3-15.5,2.4-21.4c1.4-7.9-4.6-18-12.5-18.8c-5.3-0.5-11.6,6.4-9.8,11.4
	c1.7,4.8,3.2,9.7,5.4,14.3C31.6,44.3,33.8,51.5,29.8,54.7z"/>
<path fill="#E28956" d="M9.1,78.7L4,96.5c-0.8,1.5,1,6.2,1.9,7.9l12.4,23.4c1.5,1.4,4.9,1.3,6.2-0.3l0.3-1.2c1.1-1.3-1-3-2.1-4.3
	l-9.6-19.5c-0.8-1.5-2.4-4.5-1.9-6.2l5-15.3"/>
<path fill="#173351" d="M61.8,117.2c0.4-0.4,5.8,19.1,8.3,39.8c1.2,9.6,1.6,22.3-0.5,25.1c-1.8,2.5-44.2-0.2-47.5,0.2
	c-4.2,0.5-9.2,0.1-10.6-4.1c-1.3-3.7-0.8-7-0.9-10.8c-0.3-7.4,1.6-19.7,3.3-25.4c2.3-7.8,6.3-14,7.7-21.7l1.3-6.1
	c-1.1-1.5,36.2-4.2,38,0L61.8,117.2z"/>
<path fill="#173351" d="M108.3,112.6l-6.9-1.8c-1.2-0.3-1.8-1.6-1.4-2.7l5.8-14.5c0.4-0.9,1.4-1.4,2.3-1.2l6.9,1.8
	c1.2,0.3,1.8,1.6,1.4,2.7l-5.8,14.5C110.3,112.3,109.3,112.8,108.3,112.6z"/>
<path fill="#E28956" d="M93.6,101.7c4.1,0,8.1-1.6,12.2-0.4c0.5,3.2-4.3,1.1-4.6,3.4C100.1,106,92.6,103.6,93.6,101.7z"/>
<g>
	<polygon fill="#EBD932" points="116.7,74.3 117.9,65.3 122,66.7 	"/>
	<polygon fill="#EBD932" points="128.1,82.1 134.1,73.5 136.4,76.7 	"/>
	<polygon fill="#EBD932" points="136.3,93.2 144.4,90.6 145.5,94 	"/>
</g>
</svg>
