<?xml version="1.0" encoding="UTF-8" standalone="no"?><!DOCTYPE svg PUBLIC "-//W3C//DTD SVG 1.1//EN" "http://www.w3.org/Graphics/SVG/1.1/DTD/svg11.dtd"><svg width="100%" height="100%" viewBox="0 0 20 17" version="1.1" xmlns="http://www.w3.org/2000/svg" xmlns:xlink="http://www.w3.org/1999/xlink" xml:space="preserve" style="fill-rule:evenodd;clip-rule:evenodd;stroke-linejoin:round;stroke-miterlimit:1.41421;"><path id="Twitter-Icon" d="M17.937,4.152c0.008,0.181 0.01,0.362 0.01,0.544c0,5.562 -4.123,11.975 -11.663,11.975c-2.316,0 -4.469,-0.696 -6.284,-1.892c0.321,0.04 0.646,0.058 0.977,0.058c1.921,0 3.689,-0.671 5.093,-1.801c-1.794,-0.032 -3.309,-1.25 -3.831,-2.922c0.25,0.05 0.509,0.077 0.773,0.077c0.372,0 0.734,-0.053 1.08,-0.148c-1.877,-0.388 -3.291,-2.089 -3.291,-4.126c0,-0.022 0,-0.037 0,-0.053c0.554,0.313 1.187,0.504 1.859,0.525c-1.101,-0.756 -1.825,-2.043 -1.825,-3.502c0,-0.773 0.202,-1.494 0.556,-2.117c2.021,2.547 5.043,4.221 8.45,4.399c-0.07,-0.308 -0.106,-0.632 -0.106,-0.961c0,-2.324 1.835,-4.208 4.1,-4.208c1.178,0 2.243,0.512 2.991,1.329c0.935,-0.188 1.812,-0.538 2.605,-1.021c-0.308,0.981 -0.956,1.806 -1.804,2.327c0.83,-0.099 1.621,-0.327 2.355,-0.661c-0.551,0.844 -1.244,1.584 -2.045,2.178Z"/></svg>